<?xml version="1.0" encoding="utf-8"?>
<!-- Generator: Adobe Illustrator 21.0.0, SVG Export Plug-In . SVG Version: 6.00 Build 0)  -->
<svg version="1.1" id="Layer_1" xmlns="http://www.w3.org/2000/svg" xmlns:xlink="http://www.w3.org/1999/xlink" x="0px" y="0px"
	 viewBox="0 0 730 610.1" style="enable-background:new 0 0 730 610.1;" xml:space="preserve">
<style type="text/css">
	.st0{fill:#231F20;}
</style>
<title>lg-sala-arte</title>
<desc>Created with Sketch.</desc>
<g>
	<path class="st0" d="M200.3,428.5c0,1,0,2-0.1,3c-1.3,22-18.2,45.6-52.5,45.6v-29.6c16.2,0,22.5-9.1,23-17.7
		c0.2-5.5-1.1-10-4.4-13.4c-3.7-3.9-9.6-6.2-15.8-6.2c-13.2,0-23.6,13.6-31.9,24.5l-5.7,7.5c-10,13.3-25.1,33.4-54.6,33.4
		c-20,0-49.7-13.4-49.8-50.2v-0.1c0-11.5,4.5-22.4,12.7-30.6c9.8-9.8,23.9-15.2,39.8-15.2V409c-7.9,0-14.8,2.4-18.9,6.6
		c-2.7,2.7-4,5.9-4,9.7v0.1C38.2,445,55,446,58.4,446c13.7,0,20.8-8.2,30.9-21.6l5.8-7.6c10.3-13.5,27.6-36.1,55.4-36.1
		c14.4,0,28,5.6,37.3,15.5C196,404.8,200.3,416.2,200.3,428.5"/>
	<path class="st0" d="M197.1,278.6v-28.4L11.9,286.4v11.5v16.9v11.4l185.2,36.2v-28.3l-35-6.8v-41.8L197.1,278.6z M133.3,321.6
		L55,306.4l78.3-15.3V321.6z"/>
	<polygon class="st0" points="167.7,190 11.9,190 11.9,219.4 197,219.4 197,140.2 167.7,140.2 	"/>
	<path class="st0" d="M197.1,35.6V7.2L11.8,43.3v11.5v16.8V83L197,119.2V91l-34.9-6.8V42.4L197.1,35.6z M133.3,78.5L55,63.3
		L133.3,48V78.5z"/>
	<path class="st0" d="M259.7,153c-8.7,8.6-13.1,19.1-13.1,31.4v53.3h185.3v-53.3c0-12.2-4.4-22.7-13.1-31.4
		c-8.7-8.6-19.4-13-31.6-13h-95.9C279,140,268.4,144.4,259.7,153 M402.7,183.5v24.7H276.6v-24.7c0-4.1,1.4-7.5,4.4-10.4
		c2.9-2.9,6.5-4.3,10.6-4.3h96c4.1,0,7.6,1.4,10.6,4.3C401.2,175.9,402.7,179.4,402.7,183.5"/>
	<polygon class="st0" points="276.1,7.2 246.5,7.2 246.5,96.2 431.8,96.2 431.8,7.2 402.2,7.2 402.2,66.8 353.9,66.8 353.9,21.7 
		324.4,21.7 324.4,66.8 276.1,66.8 	"/>
	<path class="st0" d="M317.4,482.3h28.4l-36.2-185.2h-11.5h-16.9h-11.4l-36.2,185.2h28.3l6.8-35h41.8L317.4,482.3z M274.4,418.5
		l15.3-78.3l15.3,78.3H274.4z"/>
	<path class="st0" d="M457.4,400.4c9.9-9.2,14.9-20.6,14.9-33.8v-27c0-13.7-3.3-24.5-9.8-32.1c-7.5-8.8-19.3-13.2-35.2-13.2h-48.2
		v188H409v-70.1h20.1l17,70.1h32.3L457.4,400.4z M443.1,340.1v27.1c0,4.3-1.5,7.8-4.4,10.8c-3,3-6.5,4.5-10.7,4.5h-19v-57.8h19
		C438.2,324.8,443.1,329.8,443.1,340.1"/>
	<polygon class="st0" points="495.9,294.4 495.9,324.4 526.1,324.4 526.1,482.3 556,482.3 556,324.4 586.3,324.4 586.3,294.4 	"/>
	<polygon class="st0" points="711.6,324.2 711.6,294.2 621.2,294.2 621.2,482.3 711.6,482.3 711.6,452.3 651.1,452.3 651.1,403.3 
		696.8,403.3 696.8,373.2 651.1,373.2 651.1,324.2 	"/>
</g>
<path class="st0" d="M405,585h12.8v-45.3H405V585z M411.5,519.6c-3.9,0-7,3.2-7,6.8c0,3.9,3.1,7,7,7c3.8,0,6.8-3.2,6.8-7
	C418.3,522.9,415.3,519.6,411.5,519.6z M453.4,538.7c-5.9,0-10.9,2.6-13.7,6.7v-5.7h-12.8V585h12.8v-26.8c0-4.9,4.2-8.7,9.5-8.7
	c5.1,0,8.6,3.9,8.6,9.5V585h12.4v-28.8C470.2,545.9,463.2,538.7,453.4,538.7z M499.1,538.6c-13.2,0-23.3,9.9-23.3,23.6
	c0,13.9,10.5,23.8,24,23.8c6.7,0,14.5-2.8,18.5-7l-8.1-8.3c-2.5,2.4-6.8,4-10.4,4c-5.3,0-9.3-3.3-10.8-8.2h32.7
	C521.6,549.4,513.3,538.6,499.1,538.6z M489.1,557.3c1.7-4.6,5.7-7.4,10.5-7.4c5.2,0,8.5,2.9,9.7,7.4H489.1z M510,523.8h-12.8
	l-4.8,9.7h12.8L510,523.8z M664.6,519.7c-3.9,0-7,3.2-7,6.8c0,3.9,3.1,7,7,7c3.8,0,6.8-3.2,6.8-7
	C671.4,522.9,668.4,519.7,664.6,519.7z M658.1,585h12.8v-45.3h-12.8V585z M698.3,556.9c-6.1-1.7-8-2.4-8-4.8c0-1.6,2.2-2.7,5.3-2.7
	c3.9,0,8.6,1.5,12.7,4l5.2-9.1c-5-3.3-11.4-5.6-17.9-5.6c-10.7,0-17.8,6.1-17.7,14.7c0.1,8.9,7.3,11.5,16.5,13.7
	c4.6,1.2,8,2.1,8,4.9c0,2-2.5,3.4-5.9,3.4c-6,0-11.1-2.2-15.1-5.1l-5.5,8.8c5.4,4.4,13.1,6.8,20.4,6.8c11.1,0,18.4-5.7,18.4-14.6
	C714.8,561.5,706.1,558.9,698.3,556.9z M636.9,585h12.8v-61.2h-12.8V585z M606.3,538.7c-13.5,0-24.8,10.8-24.8,23.6
	c0,12.9,11.3,23.7,24.8,23.7c13.4,0,24.6-10.9,24.6-23.7C630.9,549.4,619.7,538.7,606.3,538.7z M606.3,575.3c-6.8,0-12.5-6-12.5-13
	s5.7-12.9,12.5-12.9c6.7,0,12.4,5.9,12.4,12.9S613,575.3,606.3,575.3z M555.6,538.7c-6.3,0-11.6,2.7-15.1,7.4v-6.3h-12.8V600h12.8
	v-21.5c3.6,4.7,8.8,7.4,15.1,7.4c12.1,0,20.8-9.8,20.8-23.7C576.4,548.5,567.7,538.7,555.6,538.7z M551.9,575.3
	c-6.2,0-10.8-4.6-11.5-11.2v-3.5c0.7-6.6,5.3-11.1,11.5-11.1c7.1,0,12.1,5.3,12.1,12.9C564,569.9,559,575.3,551.9,575.3z
	 M383.1,551.1c2.6,0,4.9,0.9,6.8,2.3l10-7.7c-4.3-4.3-10.2-7-16.8-7c-11.5,0-21.2,8.3-23.3,19.2l12.2,2.4
	C373,555,377.6,551.1,383.1,551.1z M383.1,573.6c-5.5,0-10-3.9-11-9.1l-12.2,2.4c2.1,10.9,11.7,19.2,23.3,19.2
	c6.6,0,12.5-2.7,16.8-7l-10-7.7C388,572.7,385.6,573.6,383.1,573.6z"/>
<g>
	<path class="st0" d="M721.6,582.8c0,1.7-1.3,3-3.1,3c-1.7,0-3.1-1.3-3.1-3c0-1.7,1.4-3,3.1-3C720.3,579.8,721.6,581.1,721.6,582.8z
		 M716.3,582.8c0,1.3,1,2.4,2.3,2.4c1.3,0,2.3-1.1,2.3-2.4c0-1.3-1-2.4-2.3-2.4S716.3,581.5,716.3,582.8z M718.1,584.4h-0.7v-3
		c0.3-0.1,0.7-0.1,1.1-0.1c0.6,0,0.8,0.1,1,0.2c0.2,0.1,0.3,0.4,0.3,0.7c0,0.3-0.3,0.6-0.6,0.7v0c0.3,0.1,0.5,0.3,0.5,0.7
		c0.1,0.5,0.1,0.6,0.2,0.7h-0.7c-0.1-0.1-0.1-0.4-0.2-0.7c-0.1-0.3-0.2-0.5-0.6-0.5h-0.3V584.4z M718.1,582.7h0.3
		c0.4,0,0.7-0.1,0.7-0.4c0-0.3-0.2-0.5-0.6-0.5c-0.2,0-0.3,0-0.4,0V582.7z"/>
</g>
</svg>
