<?xml version="1.0" encoding="utf-8"?>
<!-- Generator: Adobe Illustrator 16.0.0, SVG Export Plug-In . SVG Version: 6.00 Build 0)  -->
<!DOCTYPE svg PUBLIC "-//W3C//DTD SVG 1.1//EN" "http://www.w3.org/Graphics/SVG/1.1/DTD/svg11.dtd">
<svg version="1.1" id="Shape_107_1_" xmlns="http://www.w3.org/2000/svg" xmlns:xlink="http://www.w3.org/1999/xlink" x="0px"
	 y="0px" width="1995px" height="120px" viewBox="0 0 1995 120" enable-background="new 0 0 1995 120" xml:space="preserve">
<polygon fill="#6BBDF0" points="1132.037,118.331 1130.939,117.232 1130.232,117.939 1131.962,119.669 1133.878,118.148 
	1133.257,117.366 "/>
<rect x="1155.683" y="97.889" transform="matrix(0.622 0.7831 -0.7831 0.622 515.255 -867.6191)" fill="#6BBDF0" width="1" height="3.859"/>
<rect x="1161.729" y="93.097" transform="matrix(0.622 0.7831 -0.7831 0.622 513.788 -874.1647)" fill="#6BBDF0" width="1" height="3.858"/>
<rect x="1143.591" y="107.472" transform="matrix(0.622 0.7831 -0.7831 0.622 518.1871 -854.5276)" fill="#6BBDF0" width="1" height="3.857"/>
<rect x="1149.637" y="102.68" transform="matrix(0.6214 0.7835 -0.7835 0.6214 517.4596 -861.5572)" fill="#6BBDF0" width="1" height="3.858"/>
<rect x="1137.545" y="112.263" transform="matrix(0.6215 0.7834 -0.7834 0.6215 520.2381 -848.3571)" fill="#6BBDF0" width="1.001" height="3.859"/>
<rect x="1173.821" y="83.513" transform="matrix(0.6214 0.7835 -0.7835 0.6214 511.5989 -887.7637)" fill="#6BBDF0" width="1" height="3.857"/>
<rect x="1198.004" y="64.347" transform="matrix(0.6214 0.7835 -0.7835 0.6214 505.739 -913.9688)" fill="#6BBDF0" width="1" height="3.858"/>
<rect x="1185.912" y="73.931" transform="matrix(0.6215 0.7834 -0.7834 0.6215 508.5152 -900.7593)" fill="#6BBDF0" width="1.001" height="3.858"/>
<rect x="1179.867" y="78.722" transform="matrix(0.6214 0.7835 -0.7835 0.6214 510.1339 -894.3151)" fill="#6BBDF0" width="1" height="3.856"/>
<rect x="1167.775" y="88.306" transform="matrix(0.622 0.7831 -0.7831 0.622 512.3217 -880.7103)" fill="#6BBDF0" width="1" height="3.857"/>
<rect x="1191.958" y="69.139" transform="matrix(0.6214 0.7835 -0.7835 0.6214 507.204 -907.4174)" fill="#6BBDF0" width="1" height="3.858"/>
<polygon fill="#6BBDF0" points="1202.785,62.258 1203.406,63.041 1204.838,61.907 1203.231,61.904 "/>
<polygon fill="#6BBDF0" points="1075.209,62.917 1075.916,62.21 1075.358,61.65 1073.941,61.648 "/>
<rect x="1118.411" y="106.959" transform="matrix(0.7072 0.707 -0.707 0.7072 404.013 -760.6885)" fill="#6BBDF0" width="4.094" height="1"/>
<rect x="1112.618" y="101.167" transform="matrix(0.707 0.7072 -0.7072 0.707 398.5125 -758.5309)" fill="#6BBDF0" width="4.096" height="1"/>
<rect x="1124.201" y="112.751" transform="matrix(0.707 0.7072 -0.7072 0.707 410.0989 -763.3284)" fill="#6BBDF0" width="4.096" height="1"/>
<rect x="1095.242" y="83.792" transform="matrix(0.707 0.7072 -0.7072 0.707 381.133 -751.3333)" fill="#6BBDF0" width="4.096" height="1"/>
<rect x="1106.827" y="95.374" transform="matrix(0.7072 0.707 -0.707 0.7072 392.4315 -755.8903)" fill="#6BBDF0" width="4.094" height="1.001"/>
<rect x="1077.867" y="66.416" transform="matrix(0.7071 0.7071 -0.7071 0.7071 363.6161 -744.0159)" fill="#6BBDF0" width="4.095" height="1"/>
<rect x="1083.659" y="72.208" transform="matrix(0.7071 0.7071 -0.7071 0.7071 369.4081 -746.4151)" fill="#6BBDF0" width="4.095" height="1"/>
<rect x="1101.034" y="89.583" transform="matrix(0.7071 0.7071 -0.7071 0.7071 386.7835 -753.6119)" fill="#6BBDF0" width="4.095" height="1.001"/>
<rect x="1089.451" y="78" transform="matrix(0.7071 0.7071 -0.7071 0.7071 375.2002 -748.8142)" fill="#6BBDF0" width="4.095" height="1"/>
<polygon fill="#6BBDF0" points="775,119.293 773.939,118.232 773.232,118.939 775,120.707 776.768,118.939 776.061,118.232 "/>
<rect x="822.008" y="70.402" transform="matrix(0.7071 0.7071 -0.7071 0.7071 292.175 -560.3651)" fill="#6BBDF0" width="1" height="4.204"/>
<rect x="786.326" y="106.082" transform="matrix(0.7071 0.7071 -0.7071 0.7071 306.9544 -524.6833)" fill="#6BBDF0" width="1" height="4.205"/>
<rect x="827.955" y="64.455" transform="matrix(0.7071 0.7071 -0.7071 0.7071 289.7115 -566.3124)" fill="#6BBDF0" width="1" height="4.204"/>
<rect x="780.378" y="112.029" transform="matrix(0.7066 0.7076 -0.7076 0.7066 309.854 -519.0615)" fill="#6BBDF0" width="1.001" height="4.205"/>
<rect x="798.22" y="94.189" transform="matrix(0.7071 0.7071 -0.7071 0.7071 302.0277 -536.5773)" fill="#6BBDF0" width="1" height="4.204"/>
<rect x="792.273" y="100.136" transform="matrix(0.7071 0.7071 -0.7071 0.7071 304.4911 -530.6301)" fill="#6BBDF0" width="1" height="4.204"/>
<rect x="804.167" y="88.242" transform="matrix(0.7071 0.7071 -0.7071 0.7071 299.5645 -542.524)" fill="#6BBDF0" width="1" height="4.205"/>
<rect x="816.061" y="76.348" transform="matrix(0.7071 0.7071 -0.7071 0.7071 294.6378 -554.4182)" fill="#6BBDF0" width="1" height="4.205"/>
<rect x="810.114" y="82.294" transform="matrix(0.7071 0.7071 -0.7071 0.7071 297.101 -548.4714)" fill="#6BBDF0" width="1" height="4.205"/>
<polygon fill="#6BBDF0" points="832.557,61.736 833.264,62.443 834.53,61.177 833.119,61.174 "/>
<polygon fill="#6BBDF0" points="716.502,62.209 717.209,61.502 716.651,60.943 715.234,60.939 "/>
<rect x="740.589" y="87.043" transform="matrix(0.707 0.7072 -0.7072 0.707 279.4809 -499.4694)" fill="#6BBDF0" width="3.821" height="1"/>
<rect x="729.808" y="76.219" transform="matrix(0.7071 0.7071 -0.7071 0.7071 268.5636 -494.9324)" fill="#6BBDF0" width="3.82" height="1"/>
<rect x="719.001" y="65.413" transform="matrix(0.7071 0.7071 -0.7071 0.7071 257.7576 -490.4558)" fill="#6BBDF0" width="3.82" height="1"/>
<rect x="724.405" y="70.815" transform="matrix(0.7071 0.7071 -0.7071 0.7071 263.1603 -492.6942)" fill="#6BBDF0" width="3.82" height="1"/>
<rect x="735.21" y="81.622" transform="matrix(0.7071 0.7071 -0.7071 0.7071 273.9666 -497.1698)" fill="#6BBDF0" width="3.82" height="1"/>
<rect x="756.822" y="103.233" transform="matrix(0.7071 0.7071 -0.7071 0.7071 295.5779 -506.1215)" fill="#6BBDF0" width="3.82" height="1"/>
<rect x="762.225" y="108.637" transform="matrix(0.7071 0.7071 -0.7071 0.7071 300.9817 -508.3595)" fill="#6BBDF0" width="3.82" height="1.001"/>
<rect x="767.603" y="114.058" transform="matrix(0.707 0.7072 -0.7072 0.707 306.5026 -510.6583)" fill="#6BBDF0" width="3.821" height="0.999"/>
<rect x="746.016" y="92.427" transform="matrix(0.7071 0.7071 -0.7071 0.7071 284.7716 -501.6459)" fill="#6BBDF0" width="3.82" height="1"/>
<rect x="751.418" y="97.831" transform="matrix(0.7071 0.7071 -0.7071 0.7071 290.1753 -503.8831)" fill="#6BBDF0" width="3.82" height="1"/>
<rect x="-15" y="58.502" fill="#6BBDF0" width="2" height="1"/>
<polygon fill="#6BBDF0" points="714.381,58.674 713.674,59.381 714.232,59.939 715.649,59.942 "/>
<polygon fill="#6BBDF0" points="714.232,59.939 715.234,60.939 716.651,60.943 715.649,59.942 "/>
<rect x="664.08" y="10.521" transform="matrix(0.707 0.7072 -0.7072 0.707 202.9088 -467.7605)" fill="#6BBDF0" width="3.88" height="1"/>
<rect x="680.541" y="26.983" transform="matrix(0.7072 0.707 -0.707 0.7072 219.2828 -474.4967)" fill="#6BBDF0" width="3.88" height="1"/>
<rect x="669.568" y="16.008" transform="matrix(0.707 0.7072 -0.7072 0.707 208.3963 -470.0337)" fill="#6BBDF0" width="3.88" height="1"/>
<rect x="658.594" y="5.034" transform="matrix(0.7072 0.707 -0.707 0.7072 197.3372 -465.4063)" fill="#6BBDF0" width="3.88" height="1"/>
<rect x="675.054" y="21.495" transform="matrix(0.7072 0.707 -0.707 0.7072 213.7957 -472.2236)" fill="#6BBDF0" width="3.879" height="1"/>
<rect x="702.49" y="48.93" transform="matrix(0.7071 0.7071 -0.7071 0.7071 241.275 -483.6291)" fill="#6BBDF0" width="3.879" height="1"/>
<rect x="707.976" y="54.417" transform="matrix(0.707 0.7072 -0.7072 0.707 246.8097 -485.9427)" fill="#6BBDF0" width="3.88" height="1"/>
<rect x="697.003" y="43.443" transform="matrix(0.7072 0.707 -0.707 0.7072 235.7416 -481.3151)" fill="#6BBDF0" width="3.879" height="1.001"/>
<rect x="686.029" y="32.469" transform="matrix(0.7071 0.7071 -0.7071 0.7071 224.8139 -476.8108)" fill="#6BBDF0" width="3.879" height="1"/>
<rect x="691.516" y="37.957" transform="matrix(0.7072 0.707 -0.707 0.7072 230.2555 -479.0424)" fill="#6BBDF0" width="3.879" height="1"/>
<polygon fill="#6BBDF0" points="653.232,1.061 653.939,1.768 655,0.707 656.061,1.768 656.768,1.061 655,-0.707 "/>
<rect x="620.636" y="31.877" transform="matrix(0.7069 0.7074 -0.7074 0.7069 206.0379 -429.4317)" fill="#6BBDF0" width="1" height="3.991"/>
<rect x="589.637" y="58.5" fill="#6BBDF0" width="3.991" height="1"/>
<rect x="614.992" y="37.521" transform="matrix(0.7071 0.7071 -0.7071 0.7071 208.2155 -423.6445)" fill="#6BBDF0" width="1" height="3.991"/>
<rect x="598.06" y="54.453" transform="matrix(0.7071 0.7071 -0.7071 0.7071 215.2291 -406.7124)" fill="#6BBDF0" width="1" height="3.991"/>
<rect x="603.704" y="48.809" transform="matrix(0.7071 0.7071 -0.7071 0.7071 212.8912 -412.3564)" fill="#6BBDF0" width="1" height="3.991"/>
<rect x="609.348" y="43.165" transform="matrix(0.7071 0.7071 -0.7071 0.7071 210.5534 -418.0005)" fill="#6BBDF0" width="1" height="3.991"/>
<rect x="648.857" y="3.656" transform="matrix(0.7071 0.7071 -0.7071 0.7071 194.1883 -457.5093)" fill="#6BBDF0" width="1" height="3.991"/>
<rect x="643.212" y="9.3" transform="matrix(0.7071 0.7071 -0.7071 0.7071 196.5262 -451.8648)" fill="#6BBDF0" width="1" height="3.991"/>
<rect x="631.924" y="20.589" transform="matrix(0.7069 0.7074 -0.7074 0.7069 201.3624 -440.7257)" fill="#6BBDF0" width="1" height="3.99"/>
<rect x="626.281" y="26.233" transform="matrix(0.7071 0.7071 -0.7071 0.7071 203.5403 -434.9328)" fill="#6BBDF0" width="1" height="3.991"/>
<rect x="637.568" y="14.944" transform="matrix(0.7076 0.7066 -0.7066 0.7076 198.5445 -445.9175)" fill="#6BBDF0" width="1.001" height="3.991"/>
<rect x="310.269" y="58.5" fill="#6BBDF0" width="3.991" height="1"/>
<rect x="166.594" y="58.5" fill="#6BBDF0" width="3.991" height="1"/>
<rect x="174.576" y="58.5" fill="#6BBDF0" width="3.99" height="1"/>
<rect x="182.558" y="58.5" fill="#6BBDF0" width="3.991" height="1"/>
<rect x="190.54" y="58.5" fill="#6BBDF0" width="3.99" height="1"/>
<rect x="142.648" y="58.5" fill="#6BBDF0" width="3.991" height="1"/>
<rect x="126.684" y="58.5" fill="#6BBDF0" width="3.991" height="1"/>
<rect x="158.612" y="58.5" fill="#6BBDF0" width="3.991" height="1"/>
<rect x="198.521" y="58.5" fill="#6BBDF0" width="3.991" height="1"/>
<rect x="150.63" y="58.5" fill="#6BBDF0" width="3.991" height="1"/>
<rect x="134.666" y="58.5" fill="#6BBDF0" width="3.991" height="1"/>
<rect x="246.413" y="58.5" fill="#6BBDF0" width="3.99" height="1"/>
<rect x="254.395" y="58.5" fill="#6BBDF0" width="3.991" height="1"/>
<rect x="262.377" y="58.5" fill="#6BBDF0" width="3.991" height="1"/>
<rect x="206.503" y="58.5" fill="#6BBDF0" width="3.991" height="1"/>
<rect x="238.431" y="58.5" fill="#6BBDF0" width="3.991" height="1"/>
<rect x="230.449" y="58.5" fill="#6BBDF0" width="3.99" height="1"/>
<rect x="214.485" y="58.5" fill="#6BBDF0" width="3.991" height="1"/>
<rect x="222.467" y="58.5" fill="#6BBDF0" width="3.991" height="1"/>
<rect x="14.937" y="58.5" fill="#6BBDF0" width="3.991" height="1"/>
<rect x="22.919" y="58.5" fill="#6BBDF0" width="3.991" height="1"/>
<rect x="30.9" y="58.5" fill="#6BBDF0" width="3.991" height="1"/>
<rect x="46.864" y="58.5" fill="#6BBDF0" width="3.991" height="1"/>
<rect x="38.883" y="58.5" fill="#6BBDF0" width="3.991" height="1"/>
<rect x="270.359" y="58.5" fill="#6BBDF0" width="3.991" height="1"/>
<rect x="6.955" y="58.5" fill="#6BBDF0" width="3.99" height="1"/>
<rect x="-9.009" y="58.5" fill="#6BBDF0" width="3.99" height="1"/>
<rect x="-1.027" y="58.5" fill="#6BBDF0" width="3.991" height="1"/>
<rect x="70.811" y="58.5" fill="#6BBDF0" width="3.991" height="1"/>
<rect x="102.738" y="58.5" fill="#6BBDF0" width="3.991" height="1"/>
<rect x="94.756" y="58.5" fill="#6BBDF0" width="3.991" height="1"/>
<rect x="86.774" y="58.5" fill="#6BBDF0" width="3.991" height="1"/>
<rect x="110.72" y="58.5" fill="#6BBDF0" width="3.991" height="1"/>
<rect x="78.792" y="58.5" fill="#6BBDF0" width="3.991" height="1"/>
<rect x="581.655" y="58.5" fill="#6BBDF0" width="3.991" height="1"/>
<rect x="62.829" y="58.5" fill="#6BBDF0" width="3.99" height="1"/>
<rect x="118.702" y="58.5" fill="#6BBDF0" width="3.99" height="1"/>
<rect x="54.847" y="58.5" fill="#6BBDF0" width="3.991" height="1"/>
<rect x="477.89" y="58.5" fill="#6BBDF0" width="3.991" height="1"/>
<rect x="469.907" y="58.5" fill="#6BBDF0" width="3.991" height="1"/>
<rect x="485.871" y="58.5" fill="#6BBDF0" width="3.991" height="1"/>
<rect x="493.854" y="58.5" fill="#6BBDF0" width="3.991" height="1"/>
<rect x="445.962" y="58.5" fill="#6BBDF0" width="3.99" height="1"/>
<rect x="437.98" y="58.5" fill="#6BBDF0" width="3.991" height="1"/>
<rect x="501.835" y="58.5" fill="#6BBDF0" width="3.99" height="1"/>
<rect x="461.926" y="58.5" fill="#6BBDF0" width="3.99" height="1"/>
<rect x="278.341" y="58.5" fill="#6BBDF0" width="3.991" height="1"/>
<rect x="509.817" y="58.5" fill="#6BBDF0" width="3.991" height="1"/>
<rect x="549.728" y="58.5" fill="#6BBDF0" width="3.991" height="1"/>
<rect x="565.691" y="58.5" fill="#6BBDF0" width="3.991" height="1"/>
<rect x="557.709" y="58.5" fill="#6BBDF0" width="3.99" height="1"/>
<rect x="429.997" y="58.5" fill="#6BBDF0" width="3.991" height="1"/>
<rect x="573.673" y="58.5" fill="#6BBDF0" width="3.99" height="1"/>
<rect x="541.745" y="58.5" fill="#6BBDF0" width="3.991" height="1"/>
<rect x="525.781" y="58.5" fill="#6BBDF0" width="3.991" height="1"/>
<rect x="533.764" y="58.5" fill="#6BBDF0" width="3.991" height="1"/>
<rect x="453.944" y="58.5" fill="#6BBDF0" width="3.991" height="1"/>
<rect x="326.233" y="58.5" fill="#6BBDF0" width="3.991" height="1"/>
<rect x="350.179" y="58.5" fill="#6BBDF0" width="3.991" height="1"/>
<rect x="342.197" y="58.5" fill="#6BBDF0" width="3.991" height="1"/>
<rect x="318.251" y="58.5" fill="#6BBDF0" width="3.99" height="1"/>
<rect x="334.215" y="58.5" fill="#6BBDF0" width="3.99" height="1"/>
<rect x="286.323" y="58.5" fill="#6BBDF0" width="3.991" height="1"/>
<rect x="294.305" y="58.5" fill="#6BBDF0" width="3.991" height="1"/>
<rect x="302.287" y="58.5" fill="#6BBDF0" width="3.99" height="1"/>
<rect x="414.033" y="58.5" fill="#6BBDF0" width="3.991" height="1"/>
<rect x="406.052" y="58.5" fill="#6BBDF0" width="3.991" height="1"/>
<rect x="358.16" y="58.5" fill="#6BBDF0" width="3.991" height="1"/>
<rect x="390.088" y="58.5" fill="#6BBDF0" width="3.99" height="1"/>
<rect x="422.016" y="58.5" fill="#6BBDF0" width="3.991" height="1"/>
<rect x="398.07" y="58.5" fill="#6BBDF0" width="3.991" height="1"/>
<rect x="366.143" y="58.5" fill="#6BBDF0" width="3.991" height="1"/>
<rect x="374.125" y="58.5" fill="#6BBDF0" width="3.99" height="1"/>
<rect x="382.106" y="58.5" fill="#6BBDF0" width="3.991" height="1"/>
<rect x="517.799" y="58.5" fill="#6BBDF0" width="3.99" height="1"/>
<polygon fill="#6BBDF0" points="1028,94.293 1026.939,93.232 1026.232,93.939 1028,95.707 1029.768,93.939 1029.061,93.232 "/>
<rect x="1050.088" y="70.43" transform="matrix(0.7071 0.7071 -0.7071 0.7071 358.9229 -721.665)" fill="#6BBDF0" width="1" height="3.991"/>
<rect x="1044.444" y="76.074" transform="matrix(0.7071 0.7071 -0.7071 0.7071 361.2603 -716.0208)" fill="#6BBDF0" width="1" height="3.991"/>
<rect x="1055.733" y="64.785" transform="matrix(0.7071 0.7071 -0.7071 0.7071 356.5842 -727.3098)" fill="#6BBDF0" width="1" height="3.991"/>
<rect x="1033.154" y="87.365" transform="matrix(0.7071 0.7071 -0.7071 0.7071 365.9374 -704.7304)" fill="#6BBDF0" width="1" height="3.991"/>
<rect x="1038.798" y="81.72" transform="matrix(0.7071 0.7071 -0.7071 0.7071 363.5994 -710.3749)" fill="#6BBDF0" width="1" height="3.991"/>
<polygon fill="#6BBDF0" points="1060.107,62.186 1060.814,62.893 1062.08,61.626 1060.67,61.623 "/>
<polygon fill="#6BBDF0" points="995.052,62.759 995.759,62.052 995.2,61.493 993.782,61.49 "/>
<rect x="997.66" y="66.165" transform="matrix(0.7071 0.7071 -0.7071 0.7071 339.9342 -687.3436)" fill="#6BBDF0" width="4.008" height="1"/>
<rect x="1008.997" y="77.503" transform="matrix(0.7072 0.707 -0.707 0.7072 351.1393 -691.926)" fill="#6BBDF0" width="4.009" height="1"/>
<rect x="1003.328" y="71.834" transform="matrix(0.707 0.7072 -0.7072 0.707 345.7344 -689.8054)" fill="#6BBDF0" width="4.01" height="1.001"/>
<rect x="1020.336" y="88.841" transform="matrix(0.707 0.7072 -0.7072 0.707 362.7458 -696.8498)" fill="#6BBDF0" width="4.009" height="1"/>
<rect x="1014.667" y="83.173" transform="matrix(0.7071 0.7071 -0.7071 0.7071 356.9418 -694.3878)" fill="#6BBDF0" width="4.008" height="1"/>
<polygon fill="#6BBDF0" points="888,46.293 886.939,45.232 886.232,45.939 888,47.707 889.768,45.939 889.061,45.232 "/>
<rect x="871.365" y="31.6" transform="matrix(0.7071 0.7071 -0.7071 0.7071 278.4232 -607.9729)" fill="#6BBDF0" width="3.469" height="1"/>
<rect x="876.272" y="36.507" transform="matrix(0.7072 0.707 -0.707 0.7072 283.2653 -609.9459)" fill="#6BBDF0" width="3.469" height="1"/>
<rect x="881.177" y="41.413" transform="matrix(0.7071 0.7071 -0.7071 0.7071 288.2354 -612.0367)" fill="#6BBDF0" width="3.469" height="1"/>
<polygon fill="#6BBDF0" points="866.232,28.061 866.939,28.768 868,27.707 869.061,28.768 869.768,28.061 868,26.293 "/>
<rect x="839.45" y="53.078" transform="matrix(0.7076 0.7066 -0.7066 0.7076 284.5129 -577.4242)" fill="#6BBDF0" width="1.001" height="3.966"/>
<rect x="845.059" y="47.47" transform="matrix(0.7071 0.7071 -0.7071 0.7071 282.6269 -583.416)" fill="#6BBDF0" width="1" height="3.966"/>
<rect x="850.667" y="41.861" transform="matrix(0.7071 0.7071 -0.7071 0.7071 280.3035 -589.0241)" fill="#6BBDF0" width="1" height="3.966"/>
<rect x="856.275" y="36.253" transform="matrix(0.7071 0.7071 -0.7071 0.7071 277.9803 -594.6325)" fill="#6BBDF0" width="1" height="3.965"/>
<rect x="861.885" y="30.644" transform="matrix(0.7071 0.7071 -0.7071 0.7071 275.6575 -600.2421)" fill="#6BBDF0" width="1" height="3.966"/>
<polygon fill="#6BBDF0" points="836.092,59.615 835.385,58.908 834.117,60.175 835.529,60.178 "/>
<polygon fill="#6BBDF0" points="834.117,60.175 833.119,61.174 834.53,61.177 835.529,60.178 "/>
<polygon fill="#6BBDF0" points="992.931,59.224 992.224,59.931 992.781,60.489 994.198,60.492 "/>
<polygon fill="#6BBDF0" points="992.781,60.489 993.782,61.49 995.2,61.493 994.198,60.492 "/>
<rect x="964.799" y="33.224" transform="matrix(0.707 0.7072 -0.7072 0.707 307.0564 -673.7584)" fill="#6BBDF0" width="3.849" height="1"/>
<rect x="975.687" y="44.112" transform="matrix(0.7072 0.707 -0.707 0.7072 317.8165 -678.15)" fill="#6BBDF0" width="3.85" height="1"/>
<rect x="970.243" y="38.669" transform="matrix(0.7072 0.707 -0.707 0.7072 312.3738 -675.8953)" fill="#6BBDF0" width="3.85" height="1"/>
<rect x="986.575" y="55.001" transform="matrix(0.7071 0.7071 -0.7071 0.7071 328.7701 -682.7194)" fill="#6BBDF0" width="3.85" height="1"/>
<rect x="953.911" y="22.337" transform="matrix(0.707 0.7072 -0.7072 0.707 296.1678 -669.2484)" fill="#6BBDF0" width="3.849" height="1"/>
<rect x="959.355" y="27.78" transform="matrix(0.7072 0.707 -0.707 0.7072 301.4866 -671.3854)" fill="#6BBDF0" width="3.85" height="1.001"/>
<rect x="943.023" y="11.448" transform="matrix(0.7071 0.7071 -0.7071 0.7071 285.2173 -664.6788)" fill="#6BBDF0" width="3.849" height="1"/>
<rect x="981.131" y="49.557" transform="matrix(0.7071 0.7071 -0.7071 0.7071 323.3262 -680.4641)" fill="#6BBDF0" width="3.85" height="1"/>
<rect x="937.578" y="6.004" transform="matrix(0.7072 0.707 -0.707 0.7072 279.7133 -662.3649)" fill="#6BBDF0" width="3.85" height="1"/>
<rect x="948.467" y="16.891" transform="matrix(0.7072 0.707 -0.707 0.7072 290.5995 -666.8755)" fill="#6BBDF0" width="3.85" height="1"/>
<polygon fill="#6BBDF0" points="932.232,2.061 932.939,2.768 934,1.707 935.061,2.768 935.768,2.061 934,0.293 "/>
<rect x="922.018" y="10.459" transform="matrix(0.7071 0.7071 -0.7071 0.7071 279.0341 -648.6595)" fill="#6BBDF0" width="1" height="4.07"/>
<rect x="916.262" y="16.215" transform="matrix(0.7069 0.7074 -0.7074 0.7069 281.6465 -643.123)" fill="#6BBDF0" width="1" height="4.07"/>
<rect x="904.749" y="27.728" transform="matrix(0.7071 0.7071 -0.7071 0.7071 286.1866 -631.3903)" fill="#6BBDF0" width="1" height="4.07"/>
<rect x="910.505" y="21.971" transform="matrix(0.7069 0.7074 -0.7074 0.7069 284.0307 -637.3634)" fill="#6BBDF0" width="1" height="4.07"/>
<rect x="898.993" y="33.484" transform="matrix(0.7071 0.7071 -0.7071 0.7071 288.5713 -625.6346)" fill="#6BBDF0" width="1" height="4.069"/>
<rect x="893.237" y="39.24" transform="matrix(0.7071 0.7071 -0.7071 0.7071 290.9555 -619.8779)" fill="#6BBDF0" width="1" height="4.071"/>
<rect x="927.774" y="4.703" transform="matrix(0.7071 0.7071 -0.7071 0.7071 276.6495 -654.4155)" fill="#6BBDF0" width="1" height="4.07"/>
<polygon fill="#6BBDF0" points="1317.646,63.354 1317.853,63.5 1318.06,63.5 1318.028,62.973 1318.354,62.646 1317.837,62.13 
	1316.42,62.127 "/>
<rect x="1690.028" y="62.5" fill="#6BBDF0" width="3.999" height="1"/>
<rect x="1666.03" y="62.5" fill="#6BBDF0" width="4" height="1"/>
<rect x="1682.028" y="62.5" fill="#6BBDF0" width="4" height="1"/>
<rect x="1658.031" y="62.5" fill="#6BBDF0" width="3.999" height="1"/>
<rect x="1674.029" y="62.5" fill="#6BBDF0" width="4" height="1"/>
<rect x="1698.027" y="62.5" fill="#6BBDF0" width="4" height="1"/>
<rect x="1650.031" y="62.5" fill="#6BBDF0" width="4" height="1"/>
<rect x="1730.024" y="62.5" fill="#6BBDF0" width="4" height="1"/>
<rect x="1746.023" y="62.5" fill="#6BBDF0" width="3.999" height="1"/>
<rect x="1722.025" y="62.5" fill="#6BBDF0" width="3.999" height="1"/>
<rect x="1714.025" y="62.5" fill="#6BBDF0" width="4" height="1"/>
<rect x="1706.026" y="62.5" fill="#6BBDF0" width="4" height="1"/>
<rect x="1738.023" y="62.5" fill="#6BBDF0" width="4" height="1"/>
<rect x="1562.038" y="62.5" fill="#6BBDF0" width="4" height="1"/>
<rect x="1570.037" y="62.5" fill="#6BBDF0" width="4" height="1"/>
<rect x="1642.031" y="62.5" fill="#6BBDF0" width="4" height="1"/>
<rect x="1546.039" y="62.5" fill="#6BBDF0" width="4" height="1"/>
<rect x="1554.039" y="62.5" fill="#6BBDF0" width="4" height="1"/>
<rect x="1538.041" y="62.5" fill="#6BBDF0" width="4" height="1"/>
<rect x="1586.036" y="62.5" fill="#6BBDF0" width="4" height="1"/>
<rect x="1578.037" y="62.5" fill="#6BBDF0" width="3.999" height="1"/>
<rect x="1626.032" y="62.5" fill="#6BBDF0" width="4" height="1"/>
<rect x="1634.032" y="62.5" fill="#6BBDF0" width="3.999" height="1"/>
<rect x="1594.035" y="62.5" fill="#6BBDF0" width="4" height="1"/>
<rect x="1618.033" y="62.5" fill="#6BBDF0" width="4" height="1"/>
<rect x="1610.034" y="62.5" fill="#6BBDF0" width="3.999" height="1"/>
<rect x="1602.034" y="62.5" fill="#6BBDF0" width="4" height="1"/>
<rect x="1786.02" y="62.5" fill="#6BBDF0" width="3.999" height="1"/>
<rect x="1754.022" y="62.5" fill="#6BBDF0" width="3.999" height="1"/>
<rect x="1922.007" y="62.5" fill="#6BBDF0" width="4" height="1"/>
<rect x="1930.006" y="62.5" fill="#6BBDF0" width="4" height="1"/>
<rect x="1898.009" y="62.5" fill="#6BBDF0" width="4" height="1"/>
<rect x="1882.011" y="62.5" fill="#6BBDF0" width="4" height="1"/>
<rect x="1906.009" y="62.5" fill="#6BBDF0" width="3.999" height="1"/>
<rect x="1938.006" y="62.5" fill="#6BBDF0" width="3.999" height="1"/>
<rect x="1890.01" y="62.5" fill="#6BBDF0" width="4" height="1"/>
<rect x="1978.002" y="62.5" fill="#6BBDF0" width="4" height="1"/>
<rect x="1946.005" y="62.5" fill="#6BBDF0" width="4" height="1"/>
<rect x="1530.041" y="62.5" fill="#6BBDF0" width="4" height="1"/>
<rect x="1970.003" y="62.5" fill="#6BBDF0" width="3.999" height="1"/>
<rect x="1962.004" y="62.5" fill="#6BBDF0" width="3.999" height="1"/>
<rect x="1954.004" y="62.5" fill="#6BBDF0" width="4" height="1"/>
<rect x="1914.008" y="62.5" fill="#6BBDF0" width="4" height="1"/>
<rect x="1802.018" y="62.5" fill="#6BBDF0" width="4" height="1"/>
<rect x="1810.018" y="62.5" fill="#6BBDF0" width="3.999" height="1"/>
<rect x="1794.019" y="62.5" fill="#6BBDF0" width="4" height="1"/>
<rect x="1762.021" y="62.5" fill="#6BBDF0" width="4" height="1"/>
<rect x="1778.021" y="62.5" fill="#6BBDF0" width="3.999" height="1"/>
<rect x="1818.017" y="62.5" fill="#6BBDF0" width="3.999" height="1"/>
<rect x="1770.021" y="62.5" fill="#6BBDF0" width="4" height="1"/>
<rect x="1858.013" y="62.5" fill="#6BBDF0" width="4" height="1"/>
<rect x="1874.012" y="62.5" fill="#6BBDF0" width="3.999" height="1"/>
<rect x="1826.016" y="62.5" fill="#6BBDF0" width="4" height="1"/>
<rect x="1866.012" y="62.5" fill="#6BBDF0" width="4" height="1"/>
<rect x="1850.014" y="62.5" fill="#6BBDF0" width="4" height="1"/>
<rect x="1842.015" y="62.5" fill="#6BBDF0" width="3.999" height="1"/>
<rect x="1834.015" y="62.5" fill="#6BBDF0" width="4" height="1"/>
<rect x="1458.048" y="62.5" fill="#6BBDF0" width="4" height="1"/>
<rect x="1362.056" y="62.5" fill="#6BBDF0" width="4" height="1"/>
<rect x="1370.056" y="62.5" fill="#6BBDF0" width="3.999" height="1"/>
<rect x="1402.053" y="62.5" fill="#6BBDF0" width="4" height="1"/>
<rect x="1386.054" y="62.5" fill="#6BBDF0" width="4" height="1"/>
<rect x="1378.055" y="62.5" fill="#6BBDF0" width="4" height="1"/>
<rect x="1394.054" y="62.5" fill="#6BBDF0" width="3.999" height="1"/>
<rect x="1986" y="62.5" fill="#6BBDF0" width="4" height="1"/>
<rect x="1354.057" y="62.5" fill="#6BBDF0" width="4" height="1"/>
<rect x="1994" y="62.5" fill="#6BBDF0" width="4" height="1"/>
<rect x="1522.041" y="62.5" fill="#6BBDF0" width="4" height="1"/>
<rect x="1338.059" y="62.5" fill="#6BBDF0" width="3.999" height="1"/>
<rect x="2002" y="62.5" fill="#6BBDF0" width="4" height="1"/>
<rect x="1322.06" y="62.5" fill="#6BBDF0" width="4" height="1"/>
<rect x="1330.059" y="62.5" fill="#6BBDF0" width="4" height="1"/>
<rect x="1346.058" y="62.5" fill="#6BBDF0" width="4" height="1"/>
<rect x="1498.045" y="62.5" fill="#6BBDF0" width="3.999" height="1"/>
<rect x="1490.045" y="62.5" fill="#6BBDF0" width="4" height="1"/>
<rect x="1482.046" y="62.5" fill="#6BBDF0" width="4" height="1"/>
<rect x="1506.043" y="62.5" fill="#6BBDF0" width="4" height="1"/>
<rect x="1514.043" y="62.5" fill="#6BBDF0" width="4" height="1"/>
<rect x="1474.047" y="62.5" fill="#6BBDF0" width="3.999" height="1"/>
<rect x="1418.052" y="62.5" fill="#6BBDF0" width="3.999" height="1"/>
<rect x="1466.047" y="62.5" fill="#6BBDF0" width="4" height="1"/>
<rect x="1410.052" y="62.5" fill="#6BBDF0" width="4" height="1"/>
<rect x="1434.05" y="62.5" fill="#6BBDF0" width="4" height="1"/>
<rect x="1426.051" y="62.5" fill="#6BBDF0" width="3.999" height="1"/>
<rect x="1442.049" y="62.5" fill="#6BBDF0" width="4" height="1"/>
<rect x="1450.049" y="62.5" fill="#6BBDF0" width="3.999" height="1"/>
<rect x="2010" y="62.498" fill="#6BBDF0" width="2" height="1"/>
<polygon fill="#6BBDF0" points="1206.541,60.557 1205.921,59.773 1204.49,60.907 1206.097,60.91 "/>
<polygon fill="#6BBDF0" points="1204.49,60.907 1203.231,61.904 1204.838,61.907 1206.097,60.91 "/>
<polygon fill="#6BBDF0" points="1315.567,59.86 1314.86,60.566 1315.418,61.126 1316.836,61.129 "/>
<polygon fill="#6BBDF0" points="1315.418,61.126 1316.42,62.127 1317.837,62.13 1316.836,61.129 "/>
<rect x="1309.147" y="55.594" transform="matrix(0.707 0.7072 -0.7072 0.707 423.7601 -910.7321)" fill="#6BBDF0" width="3.892" height="1"/>
<rect x="1303.641" y="50.088" transform="matrix(0.707 0.7072 -0.7072 0.707 418.2535 -908.4515)" fill="#6BBDF0" width="3.892" height="1"/>
<rect x="1292.629" y="39.076" transform="matrix(0.707 0.7072 -0.7072 0.707 407.2406 -903.8903)" fill="#6BBDF0" width="3.892" height="1"/>
<rect x="1281.617" y="28.064" transform="matrix(0.7071 0.7071 -0.7071 0.7071 396.1447 -899.2501)" fill="#6BBDF0" width="3.893" height="1"/>
<rect x="1287.124" y="33.57" transform="matrix(0.707 0.7072 -0.7072 0.707 401.7341 -901.6097)" fill="#6BBDF0" width="3.892" height="1"/>
<rect x="1298.135" y="44.582" transform="matrix(0.707 0.7072 -0.7072 0.707 412.8316 -906.2495)" fill="#6BBDF0" width="3.893" height="1"/>
<rect x="1276.111" y="22.558" transform="matrix(0.7072 0.707 -0.707 0.7072 390.5573 -896.8907)" fill="#6BBDF0" width="3.893" height="1"/>
<rect x="1270.573" y="17.084" transform="matrix(0.7071 0.7071 -0.7071 0.7071 385.1457 -894.6569)" fill="#6BBDF0" width="3.893" height="1"/>
<polygon fill="#6BBDF0" points="1265.121,12.85 1265.742,13.634 1266.962,12.668 1268.061,13.768 1268.768,13.061 1267.037,11.332 
	"/>
<rect x="1210.377" y="54.48" transform="matrix(0.6211 0.7837 -0.7837 0.6211 503.0375 -927.5926)" fill="#6BBDF0" width="1" height="3.976"/>
<rect x="1235.304" y="34.724" transform="matrix(0.6211 0.7837 -0.7837 0.6211 496.9986 -954.6139)" fill="#6BBDF0" width="1" height="3.976"/>
<rect x="1253.999" y="19.906" transform="matrix(0.6205 0.7842 -0.7842 0.6205 493.2324 -975.462)" fill="#6BBDF0" width="0.999" height="3.976"/>
<rect x="1260.231" y="14.968" transform="matrix(0.6209 0.7839 -0.7839 0.6209 491.2626 -981.8676)" fill="#6BBDF0" width="1" height="3.976"/>
<rect x="1247.735" y="24.875" transform="matrix(0.6211 0.7837 -0.7837 0.6211 493.9894 -968.0877)" fill="#6BBDF0" width="1" height="3.975"/>
<rect x="1222.809" y="44.63" transform="matrix(0.6211 0.7837 -0.7837 0.6211 500.028 -941.068)" fill="#6BBDF0" width="1" height="3.975"/>
<rect x="1216.578" y="49.568" transform="matrix(0.6214 0.7835 -0.7835 0.6214 501.2381 -934.0961)" fill="#6BBDF0" width="1" height="3.975"/>
<rect x="1241.504" y="29.813" transform="matrix(0.6211 0.7837 -0.7837 0.6211 495.4985 -961.3331)" fill="#6BBDF0" width="1" height="3.975"/>
<rect x="1229.073" y="39.663" transform="matrix(0.6203 0.7844 -0.7844 0.6203 499.5665 -948.6392)" fill="#6BBDF0" width="1" height="3.976"/>
<polygon fill="#6BBDF0" points="1063.643,60.064 1062.936,59.357 1061.668,60.624 1063.079,60.627 "/>
<polygon fill="#6BBDF0" points="1061.668,60.624 1060.67,61.623 1062.08,61.626 1063.079,60.627 "/>
<polygon fill="#6BBDF0" points="1073.089,59.382 1072.382,60.089 1072.94,60.646 1074.357,60.65 "/>
<polygon fill="#6BBDF0" points="1072.94,60.646 1073.941,61.648 1075.358,61.65 1074.357,60.65 "/>
<polygon fill="#6BBDF0" points="1066.232,56.061 1066.939,56.768 1068,55.707 1069.061,56.768 1069.768,56.061 1068,54.293 "/>
</svg>
