<?xml version="1.0" encoding="utf-8"?>
<!-- Generator: Adobe Illustrator 23.0.3, SVG Export Plug-In . SVG Version: 6.00 Build 0)  -->
<svg version="1.1" xmlns="http://www.w3.org/2000/svg" xmlns:xlink="http://www.w3.org/1999/xlink" x="0px" y="0px"
	 viewBox="0 0 360 100" style="enable-background:new 0 0 360 100;" xml:space="preserve">
<style type="text/css">
	.st0{display:none;}
	.st1{display:inline;fill:#7F1818;stroke:#000000;stroke-miterlimit:10;}
	.st2{display:inline;fill:#002169;}
	.st3{display:inline;}
	.st4{fill:#FFFFFF;}
	.st5{fill:#FFC226;}
</style>
<g id="Capa_3" class="st0">
	<rect x="-41" y="-111" class="st1" width="470" height="271"/>
</g>
<g id="Capa_1" class="st0">
	<g id="bg">
		<rect class="st2" width="361.1" height="100"/>
	</g>
	<g id="Layer_2">
		<g class="st3">
			<g>
				<path class="st4" d="M65.1,79.6h9V47.9h-9V79.6z M69.6,33.9c-2.8,0-4.9,2.3-4.9,4.8c0,2.7,2.2,4.9,4.9,4.9
					c2.6,0,4.8-2.2,4.8-4.9C74.4,36.1,72.2,33.9,69.6,33.9z M98.9,47.2c-4.1,0-7.7,1.8-9.6,4.7v-4h-9v31.7h9V60.8
					c0-3.4,2.9-6.1,6.7-6.1c3.6,0,6,2.7,6,6.6v18.3h8.7V59.5C110.7,52.3,105.8,47.2,98.9,47.2z M131,47.2c-9.3,0-16.3,6.9-16.3,16.5
					c0,9.8,7.4,16.7,16.8,16.7c4.7,0,10.1-2,12.9-4.9l-5.7-5.8c-1.7,1.7-4.8,2.8-7.3,2.8c-3.7,0-6.5-2.3-7.6-5.8h22.9
					C146.7,54.7,140.9,47.2,131,47.2z M124,60.2c1.2-3.2,4-5.2,7.4-5.2c3.6,0,5.9,2,6.8,5.2H124z M138.6,36.8h-9l-3.3,6.8h9
					L138.6,36.8z M246.9,33.9c-2.8,0-4.9,2.3-4.9,4.8c0,2.7,2.1,4.9,4.9,4.9c2.6,0,4.8-2.2,4.8-4.9
					C251.7,36.2,249.5,33.9,246.9,33.9z M242.4,79.6h9V47.9h-9V79.6z M270.5,60c-4.3-1.2-5.6-1.7-5.6-3.4c0-1.1,1.5-1.9,3.7-1.9
					c2.7,0,6,1,8.9,2.8l3.6-6.4c-3.5-2.3-8-3.9-12.5-3.9c-7.5,0-12.5,4.3-12.4,10.3c0.1,6.3,5.1,8,11.6,9.6c3.2,0.9,5.6,1.5,5.6,3.4
					c0,1.4-1.7,2.4-4.1,2.4c-4.2,0-7.8-1.5-10.6-3.6l-3.9,6.2c3.8,3.1,9.2,4.8,14.3,4.8c7.8,0,12.9-4,12.9-10.2
					C282,63.2,276,61.4,270.5,60z M227.5,79.6h9V36.8h-9V79.6z M206.1,47.2c-9.4,0-17.4,7.5-17.4,16.6s7.9,16.6,17.4,16.6
					c9.4,0,17.2-7.6,17.2-16.6C223.3,54.7,215.4,47.2,206.1,47.2z M206.1,72.8c-4.8,0-8.8-4.2-8.8-9.1s4-9,8.8-9
					c4.7,0,8.7,4.1,8.7,9S210.8,72.8,206.1,72.8z M170.5,47.2c-4.4,0-8.1,1.9-10.6,5.2v-4.4h-9v42.3h9v-15c2.5,3.3,6.2,5.2,10.6,5.2
					c8.5,0,14.6-6.9,14.6-16.6C185.1,54.1,179,47.2,170.5,47.2z M167.9,72.8c-4.4,0-7.5-3.2-8-7.8v-2.5c0.5-4.6,3.7-7.8,8-7.8
					c5,0,8.5,3.7,8.5,9C176.4,69.1,172.9,72.8,167.9,72.8z M49.7,55.9c1.8,0,3.4,0.6,4.8,1.6l7-5.4c-3-3-7.2-4.9-11.8-4.9
					c-8.1,0-14.8,5.8-16.3,13.4l8.6,1.7C42.7,58.7,45.8,55.9,49.7,55.9z M49.7,71.7c-3.8,0-7-2.7-7.7-6.4l-8.6,1.7
					c1.5,7.7,8.2,13.4,16.3,13.4c4.6,0,8.8-1.9,11.8-4.9l-7-5.4C53.1,71,51.5,71.7,49.7,71.7z"/>
				<g>
					<path class="st4" d="M286.9,78.1c0,1.2-0.9,2.1-2.1,2.1c-1.2,0-2.1-0.9-2.1-2.1c0-1.2,1-2.1,2.1-2.1
						C285.9,76,286.9,76.9,286.9,78.1z M283.1,78.1c0,0.9,0.7,1.7,1.6,1.7c0.9,0,1.6-0.7,1.6-1.7c0-0.9-0.7-1.7-1.6-1.7
						C283.8,76.4,283.1,77.2,283.1,78.1z M284.4,79.2h-0.5v-2.1c0.2,0,0.5-0.1,0.8-0.1c0.4,0,0.6,0.1,0.7,0.2
						c0.1,0.1,0.2,0.2,0.2,0.5c0,0.2-0.2,0.4-0.4,0.5v0c0.2,0.1,0.3,0.2,0.4,0.5c0.1,0.3,0.1,0.4,0.1,0.5h-0.5
						c-0.1-0.1-0.1-0.3-0.2-0.5c0-0.2-0.2-0.3-0.4-0.3h-0.2V79.2z M284.4,78h0.2c0.3,0,0.5-0.1,0.5-0.3c0-0.2-0.1-0.3-0.5-0.3
						c-0.1,0-0.2,0-0.3,0L284.4,78L284.4,78z"/>
				</g>
			</g>
			<g>
				<g>
					<path class="st4" d="M287.3,16.6v21.5c0,0.7,0.1,1.3,0.3,1.9c0.2,0.6,0.5,1.1,0.9,1.5s0.8,0.8,1.3,1.1c0.5,0.3,1,0.4,1.6,0.5
						l1.3,0v5.2l5.8-5l23,1c0.7,0,1.4-0.1,2-0.3c0.6-0.2,1.2-0.6,1.6-1.1s0.8-1,1.1-1.7s0.4-1.3,0.4-2.1V14.9c0-0.7-0.1-1.4-0.4-2.1
						c-0.3-0.6-0.6-1.2-1.1-1.6c-0.5-0.5-1-0.8-1.6-1.1c-0.6-0.2-1.3-0.3-2-0.3l-30.1,1.8c-0.6,0-1.1,0.2-1.6,0.5
						c-0.5,0.3-0.9,0.6-1.3,1.1c-0.4,0.4-0.7,1-0.9,1.6C287.5,15.4,287.3,16,287.3,16.6z M288.9,16.6c0-0.4,0.1-0.8,0.2-1.2
						s0.3-0.7,0.5-1c0.2-0.3,0.5-0.5,0.8-0.7c0.3-0.2,0.6-0.3,1-0.3l30.1-1.6c0.4,0,0.9,0.1,1.2,0.2s0.7,0.4,1,0.7s0.5,0.6,0.7,1
						c0.2,0.4,0.2,0.8,0.2,1.3v24.2c0,0.5-0.1,0.9-0.2,1.3c-0.2,0.4-0.4,0.8-0.7,1c-0.3,0.3-0.6,0.5-1,0.7c-0.4,0.2-0.8,0.2-1.2,0.2
						l-23.3-0.9l-4.1,3.6v-3.7l-2.7-0.1c-0.4,0-0.7-0.1-1-0.3c-0.3-0.2-0.6-0.4-0.8-0.7s-0.4-0.6-0.5-1c-0.1-0.4-0.2-0.8-0.2-1.2
						L288.9,16.6L288.9,16.6z"/>
				</g>
				<g>
					<g>
						<path class="st4" d="M294.1,19.2c2.2-0.1,3.3-0.1,5.5-0.2c0,7,0.1,10.5,0.1,17.4c-2.2-0.1-3.3-0.1-5.5-0.2
							C294.2,29.4,294.2,26,294.1,19.2z"/>
						<path class="st4" d="M303.7,18.8c3.3-0.1,4.9-0.2,8.2-0.3c1.6-0.1,2.9,0.1,3.9,0.5s1.8,1,2.5,1.9s1.1,1.8,1.4,3
							s0.5,2.4,0.5,3.6c0,2-0.2,3.6-0.6,4.7c-0.4,1.1-1,2-1.8,2.7c-0.8,0.7-1.6,1.2-2.5,1.4c-1.2,0.3-2.3,0.4-3.3,0.4
							c-3.3-0.1-4.9-0.1-8.2-0.2C303.8,29.4,303.8,25.9,303.7,18.8z M309.3,22.7c0,4,0,5.9,0.1,9.9c0.5,0,0.8,0,1.4,0
							c1.2,0,2-0.1,2.5-0.4c0.5-0.3,0.9-0.7,1.1-1.4c0.3-0.6,0.4-1.7,0.4-3.2c0-2-0.3-3.3-1-4c-0.6-0.7-1.6-1-3.1-1
							C310.1,22.6,309.8,22.7,309.3,22.7z"/>
					</g>
				</g>
			</g>
		</g>
	</g>
	<g id="Layer_3" class="st3">
		<g>
			<polygon class="st5" points="208.5,49.2 234.1,22.9 222.6,22.9 197.4,49.3 223,76.6 234.9,76.6 			"/>
			<polygon class="st5" points="214.6,49.2 240.1,22.9 236.8,22.9 211.5,49.3 237.1,76.6 241,76.6 			"/>
			<polygon class="st5" points="195.1,49.2 201.2,42.8 201.2,22.9 192.1,22.9 192.1,76.6 201.2,76.6 201.2,56.3 			"/>
			<path class="st4" d="M331.2,61.3l-0.2,0.3c-2.1,2.8-4.6,5.1-7.4,6.8c-2.8,1.7-5.9,2.5-9.4,2.5c-2.6,0-5.2-0.6-7.6-1.7
				c-2.4-1.2-4.6-2.7-6.4-4.6c-1.8-1.9-3.3-4.1-4.4-6.6c-1.1-2.5-1.6-5.1-1.6-7.8c0-2.8,0.5-5.5,1.6-8c1.1-2.5,2.5-4.8,4.4-6.7
				s4-3.5,6.4-4.6c2.4-1.1,5-1.7,7.8-1.7c3.3,0,6.4,0.8,9.3,2.4c2.9,1.6,5.4,3.8,7.2,6.6l0.2,0.3h6.9l-0.4-0.9
				c-0.4-1-0.9-1.9-1.4-2.7c-0.6-0.8-1.2-1.6-1.8-2.3c-2.5-2.9-5.6-5.2-9.1-6.8c-3.5-1.6-7.2-2.4-11-2.4c-3.6,0-7.1,0.7-10.3,2.1
				c-3.2,1.4-6,3.3-8.4,5.7c-2.4,2.4-4.3,5.3-5.6,8.5c-1.4,3.3-2.1,6.8-2.1,10.6c0,3.7,0.7,7.2,2.1,10.4c1.4,3.2,3.3,6.1,5.7,8.5
				c2.4,2.4,5.2,4.3,8.4,5.7c3.2,1.4,6.7,2.1,10.3,2.1c2.5,0,4.9-0.3,7.2-1c2.3-0.7,4.5-1.7,6.5-2.9c2-1.2,3.9-2.8,5.5-4.6
				c1.6-1.8,3.1-3.8,4.2-6l0.5-1L331.2,61.3L331.2,61.3z"/>
			<polygon class="st4" points="250,70.9 250,23.3 243.6,23.3 243.6,77 271.2,77 271.2,70.9 			"/>
			<rect x="273.8" y="23.4" class="st4" width="6.5" height="53.8"/>
			<path class="st5" d="M322,49.5c0.3,0.4,0.3,0.9,0,1.3c0,0-10.8,10.5-11.1,10.1V39.4C311.2,39,322,49.5,322,49.5z"/>
			<g>
				<path class="st4" d="M179.2,56.6c-1,0-1.8,0.8-1.8,1.8c0,1,0.8,1.8,1.8,1.8s1.7-0.8,1.7-1.8C180.9,57.4,180.1,56.6,179.2,56.6z
					 M179.2,59.9c-0.8,0-1.5-0.7-1.5-1.5s0.7-1.5,1.5-1.5s1.5,0.7,1.5,1.5C180.7,59.2,180,59.9,179.2,59.9z"/>
				<g>
					<path class="st4" d="M50.2,39.5v-5.2h6.5v5.2H50.2z M56.7,59.9h-6.5V41.8h6.5V59.9z"/>
					<path class="st4" d="M66,59.9h-6.5V41.7h6v2.8c0.8-1.2,1.6-2,2.5-2.6c0.9-0.5,1.9-0.8,3.1-0.8c2,0,3.5,0.6,4.6,1.8
						c1.1,1.2,1.6,3.1,1.6,5.5v11.3h-6.5v-10c0-1-0.2-1.8-0.6-2.3c-0.4-0.5-1-0.7-1.7-0.7c-0.7,0-1.3,0.3-1.8,0.8
						c-0.4,0.6-0.7,1.5-0.7,2.7V59.9z"/>
					<path class="st4" d="M86.7,46.4c0.5-0.5,1.2-0.8,2-0.8c0.9,0,1.6,0.3,2.2,0.9c0.5,0.6,0.8,1.3,0.8,2.3h-5.8
						C85.9,47.8,86.2,47,86.7,46.4z M97.8,48.8c-0.4-1.6-1-2.9-1.9-4.1c-0.9-1.2-2-2-3.2-2.6c-1.3-0.5-2.6-0.8-4.1-0.8
						c-2.8,0-5,0.9-6.7,2.8c-1.7,1.8-2.5,4.2-2.5,7.1c0,2.7,0.8,5,2.5,6.7c1.7,1.8,4,2.6,6.9,2.6c1.8,0,3.4-0.3,4.8-1
						c1.3-0.7,2.4-1.6,3.1-2.7c0.4-0.7,0.8-1.4,0.9-2.3h-6.2c-0.4,1-1.2,1.5-2.3,1.5c-1,0-1.8-0.3-2.4-0.9c-0.6-0.6-0.9-1.4-0.9-2.5
						h12.3C98.1,51,98,49.8,97.8,48.8z"/>
					<path class="st4" d="M111.3,47.6c0.5,0.7,0.8,1.7,0.8,3.1c0,0.9-0.1,1.7-0.3,2.3c-0.2,0.7-0.6,1.1-1,1.4s-0.9,0.5-1.4,0.5
						c-0.8,0-1.4-0.3-1.9-1c-0.5-0.7-0.7-1.8-0.7-3.3c0-1.3,0.3-2.3,0.8-3c0.5-0.7,1.2-1,2-1C110.2,46.6,110.8,46.9,111.3,47.6z
						 M106.8,58.1c0.5,0.6,0.9,1.1,1.2,1.4c0.3,0.3,0.8,0.5,1.3,0.7c0.5,0.2,1.2,0.3,1.9,0.3c2.1,0,3.8-0.9,5.3-2.6
						c1.4-1.7,2.1-4.1,2.1-7.1c0-1.8-0.3-3.5-0.9-5c-0.6-1.5-1.4-2.6-2.6-3.4c-1.1-0.8-2.4-1.2-3.8-1.2c-1.2,0-2.3,0.3-3.3,0.9
						c-0.9,0.6-1.6,1.4-1.9,2.3v-2.7h-5.8V67h6.5L106.8,58.1L106.8,58.1z"/>
					<path class="st4" d="M128.4,55.2c-0.4-0.3-0.8-0.8-1.1-1.5c-0.2-0.7-0.4-1.6-0.4-2.7c0-1.8,0.3-3,0.8-3.8
						c0.5-0.8,1.2-1.1,2-1.1c0.8,0,1.4,0.3,1.8,1c0.6,0.9,0.9,2.1,0.9,3.8c0,1.1-0.1,2.1-0.4,2.8s-0.6,1.2-1,1.5
						c-0.4,0.3-0.9,0.4-1.3,0.4C129.3,55.6,128.8,55.5,128.4,55.2z M122.9,43.9c-1.6,1.8-2.4,4.1-2.4,7.1c0,2.2,0.4,4,1.3,5.4
						s2,2.5,3.5,3.2c1.4,0.6,2.9,1,4.4,1c1.9,0,3.5-0.4,5-1.3c1.5-0.8,2.5-2,3.2-3.4c0.7-1.4,1-3.1,1-4.9c0-2.9-0.8-5.3-2.4-7
						s-3.9-2.6-6.9-2.6C126.8,41.3,124.5,42.1,122.9,43.9z"/>
					<path class="st4" d="M147.7,59.9h-6.4v-25h6.4V59.9z"/>
					<path class="st4" d="M150.6,39.5v-5.2h6.5v5.2H150.6z M157.1,59.9h-6.5V41.8h6.5V59.9z"/>
					<path class="st4" d="M158.9,54.2h6.2c0,0.7,0.2,1.2,0.6,1.6c0.4,0.4,1,0.6,1.7,0.6c0.6,0,1.1-0.2,1.5-0.5
						c0.3-0.3,0.5-0.7,0.5-1.1c0-0.3-0.1-0.6-0.3-0.9c-0.2-0.2-0.5-0.4-1-0.6l-3.7-1c-1.9-0.5-3.2-1.2-3.9-2.1
						c-0.7-0.9-1.1-2-1.1-3.2c0-1.2,0.3-2.2,0.9-3.1s1.4-1.6,2.6-2.1c1.1-0.5,2.6-0.8,4.5-0.8c2.7,0,4.7,0.5,5.9,1.6s1.9,2.4,1.9,4
						h-5.9c-0.1-0.5-0.2-1-0.6-1.3c-0.4-0.3-0.8-0.5-1.4-0.5c-0.6,0-1.1,0.2-1.4,0.4c-0.3,0.2-0.4,0.5-0.4,0.9
						c0,0.3,0.1,0.5,0.3,0.8c0.2,0.2,0.7,0.4,1.4,0.6l3.1,0.8c2,0.5,3.4,1.2,4.2,2.2c0.8,1,1.2,2.1,1.2,3.4c0,1-0.2,2-0.7,2.8
						c-0.4,0.8-1.1,1.5-1.8,2c-0.8,0.5-1.7,0.9-2.7,1.1c-1,0.2-2.1,0.3-3.3,0.3c-1.4,0-2.6-0.2-3.7-0.5c-1.1-0.3-2-0.8-2.7-1.4
						c-0.7-0.6-1.2-1.4-1.6-2.2C159.2,55.9,159,55.2,158.9,54.2z"/>
					<path class="st4" d="M86.4,39.5h3.5l4.4-4.2h-5.4L86.4,39.5z"/>
					<path class="st4" d="M39.2,42.1c-0.2-2.4-2-3.7-4.9-3.7c-4.1,0-4.9,4.9-4.9,8.9c0,3.8,0.8,8.4,4.9,8.4c3,0,4.8-1.3,4.9-3.9h7.6
						c0.1,6.6-6.2,9-12.5,9c-8.1,0-12.5-4.9-12.5-13.7c0-8.8,4.4-13.6,12.5-13.7c6.3,0,12.6,2.2,12.5,8.8L39.2,42.1L39.2,42.1z"/>
					<path class="st4" d="M178.8,57.7h0.4c0.2,0,0.3,0.1,0.3,0.3c0,0.2-0.1,0.3-0.3,0.3h-0.4V57.7z M178.8,58.6h0.5
						c0.2,0,0.2,0.2,0.2,0.3c0,0.2,0,0.4,0.1,0.6h0.5c-0.1-0.1-0.1-0.4-0.1-0.5c0-0.3,0-0.5-0.4-0.6l0,0c0.3-0.1,0.4-0.2,0.4-0.5
						c0-0.5-0.4-0.6-0.8-0.6h-0.9v2.2h0.5L178.8,58.6L178.8,58.6z"/>
				</g>
			</g>
		</g>
	</g>
</g>
<g id="Capa_2">
	<g>
		<g>
			<path class="st4" d="M42,66.6h6.4V43.9H42V66.6z M45.3,33.8c-2,0-3.5,1.6-3.5,3.4c0,1.9,1.5,3.5,3.5,3.5c1.9,0,3.4-1.6,3.4-3.5
				C48.7,35.4,47.1,33.8,45.3,33.8z M66.2,43.3c-2.9,0-5.5,1.3-6.8,3.4v-2.8H53v22.7h6.4V53.1c0-2.5,2.1-4.4,4.8-4.4
				c2.5,0,4.3,1.9,4.3,4.7v13.1h6.2V52.1C74.7,47,71.2,43.3,66.2,43.3z M89.1,43.3c-6.6,0-11.7,5-11.7,11.8c0,7,5.3,11.9,12,11.9
				c3.3,0,7.2-1.4,9.3-3.5l-4.1-4.2c-1.2,1.2-3.4,2-5.2,2c-2.7,0-4.7-1.7-5.4-4.1h16.4C100.4,48.7,96.3,43.3,89.1,43.3z M84.1,52.7
				C85,50.4,87,49,89.4,49c2.6,0,4.3,1.4,4.9,3.7H84.1z M94.6,35.9h-6.4l-2.4,4.9h6.4L94.6,35.9z M172.1,33.8c-2,0-3.5,1.6-3.5,3.4
				c0,1.9,1.5,3.5,3.5,3.5c1.9,0,3.4-1.6,3.4-3.5C175.5,35.4,174,33.8,172.1,33.8z M168.8,66.6h6.4V43.9h-6.4V66.6z M189,52.5
				c-3.1-0.8-4-1.2-4-2.4c0-0.8,1.1-1.4,2.7-1.4c1.9,0,4.3,0.7,6.4,2l2.6-4.6c-2.5-1.7-5.7-2.8-8.9-2.8c-5.4,0-8.9,3.1-8.9,7.4
				c0,4.5,3.6,5.7,8.3,6.9c2.3,0.6,4,1.1,4,2.5c0,1-1.2,1.7-2.9,1.7c-3,0-5.6-1.1-7.6-2.5l-2.8,4.4c2.7,2.2,6.6,3.4,10.2,3.4
				c5.6,0,9.2-2.9,9.2-7.3C197.2,54.8,192.9,53.5,189,52.5z M158.2,66.6h6.4V35.9h-6.4V66.6z M142.8,43.3c-6.8,0-12.4,5.4-12.4,11.8
				c0,6.4,5.7,11.9,12.4,11.9c6.7,0,12.3-5.4,12.3-11.9C155.2,48.7,149.6,43.3,142.8,43.3z M142.8,61.7c-3.4,0-6.3-3-6.3-6.5
				c0-3.5,2.9-6.4,6.3-6.4c3.4,0,6.2,2.9,6.2,6.4C149.1,58.7,146.2,61.7,142.8,61.7z M117.4,43.3c-3.2,0-5.8,1.4-7.6,3.7v-3.2h-6.4
				v30.2h6.4V63.3c1.8,2.4,4.4,3.7,7.6,3.7c6.1,0,10.4-4.9,10.4-11.9C127.9,48.3,123.5,43.3,117.4,43.3z M115.6,61.7
				c-3.1,0-5.4-2.3-5.7-5.6v-1.8c0.4-3.3,2.6-5.6,5.7-5.6c3.6,0,6.1,2.7,6.1,6.4C121.6,59,119.1,61.7,115.6,61.7z M31,49.6
				c1.3,0,2.5,0.4,3.4,1.2l5-3.9c-2.2-2.2-5.1-3.5-8.4-3.5c-5.8,0-10.6,4.1-11.6,9.6l6.1,1.2C26,51.6,28.3,49.6,31,49.6z M31,60.8
				c-2.7,0-5-2-5.5-4.6l-6.1,1.2c1.1,5.5,5.9,9.6,11.6,9.6c3.3,0,6.3-1.3,8.4-3.5l-5-3.9C33.5,60.4,32.3,60.8,31,60.8z"/>
		</g>
		<g>
			<path class="st4" d="M262.3,17.9h12.3v58.9h-12.3V17.9z"/>
			<path class="st4" d="M282.2,20.5c0-3.5,3-6.6,6.7-6.6c3.6,0,6.6,3.1,6.6,6.6c0,3.7-3,6.7-6.6,6.7
				C285.1,27.2,282.2,24.2,282.2,20.5z M282.7,33.2H295v43.6h-12.3V33.2z"/>
			<path class="st4" d="M332.2,64.2c-2.1,2-4.9,3.2-7.9,3.2c-6.6,0-12.1-5.7-12.1-12.5c0-6.7,5.5-12.4,12.1-12.4
				c3,0,5.8,1.2,7.9,3.2L341,39c-4.3-4.2-10.3-6.8-16.7-6.8c-13,0-23.9,10.4-23.9,22.8s10.9,22.9,23.9,22.9c6.5,0,12.4-2.6,16.7-6.8
				L332.2,64.2z"/>
			<polygon class="st4" points="240,33.1 230.5,41.4 230.5,17.9 218.2,17.9 218.2,44.3 230.5,54.6 256.8,33.1 			"/>
			<polyline class="st4" points="230.5,55 218.2,65.3 218.2,76.8 230.5,76.8 230.5,68.1 			"/>
			<polygon class="st4" points="230.5,55 227.7,66.7 240,76.8 257.5,76.8 			"/>
		</g>
	</g>
</g>
</svg>
