<?xml version="1.0" encoding="utf-8"?>
<!-- Generator: Adobe Illustrator 23.0.4, SVG Export Plug-In . SVG Version: 6.00 Build 0)  -->
<svg version="1.1" xmlns="http://www.w3.org/2000/svg" xmlns:xlink="http://www.w3.org/1999/xlink" x="0px" y="0px"
	 viewBox="0 0 360 100" style="enable-background:new 0 0 360 100;" xml:space="preserve">
<style type="text/css">
	.st0{display:none;}
	.st1{display:inline;fill:#002169;}
	.st2{fill:#FFFFFF;}
</style>
<g id="bg" class="st0">
	<rect class="st1" width="361.15" height="100"/>
</g>
<g id="Layer_2">
	<g>
		<g>
			<path class="st2" d="M65.07,79.63h8.96V47.92h-8.96V79.63z M69.61,33.86c-2.76,0-4.91,2.27-4.91,4.79c0,2.7,2.15,4.91,4.91,4.91
				c2.64,0,4.79-2.21,4.79-4.91C74.4,36.13,72.25,33.86,69.61,33.86z M98.94,47.19c-4.11,0-7.67,1.83-9.57,4.72v-3.98h-8.96v31.71
				h8.96V60.84c0-3.44,2.94-6.11,6.69-6.11c3.56,0,6.01,2.7,6.01,6.63v18.28h8.65V59.45C110.72,52.27,105.81,47.19,98.94,47.19z
				 M130.97,47.18c-9.26,0-16.32,6.93-16.32,16.5c0,9.76,7.36,16.69,16.81,16.69c4.66,0,10.12-1.96,12.95-4.91l-5.71-5.83
				c-1.72,1.66-4.79,2.82-7.3,2.82c-3.74,0-6.5-2.33-7.55-5.77h22.88C146.73,54.73,140.91,47.18,130.97,47.18z M123.97,60.25
				c1.17-3.19,3.99-5.15,7.36-5.15c3.62,0,5.95,2.03,6.81,5.15H123.97z M138.61,36.79h-8.96l-3.34,6.81h8.96L138.61,36.79z
				 M246.9,33.88c-2.76,0-4.91,2.27-4.91,4.78c0,2.7,2.15,4.91,4.91,4.91c2.64,0,4.78-2.21,4.78-4.91
				C251.69,36.15,249.54,33.88,246.9,33.88z M242.36,79.63h8.96V47.92h-8.96V79.63z M270.52,59.95c-4.29-1.17-5.58-1.66-5.58-3.37
				c0-1.1,1.53-1.9,3.74-1.9c2.7,0,6.01,1.04,8.89,2.82l3.62-6.38c-3.5-2.33-7.97-3.93-12.51-3.93c-7.48,0-12.45,4.29-12.39,10.3
				c0.06,6.26,5.09,8.04,11.59,9.63c3.25,0.86,5.58,1.47,5.58,3.43c0,1.41-1.72,2.39-4.11,2.39c-4.23,0-7.79-1.53-10.61-3.56
				l-3.86,6.19c3.8,3.07,9.2,4.78,14.29,4.78c7.79,0,12.88-3.99,12.88-10.24C282.05,63.2,275.97,61.36,270.52,59.95z M227.52,79.63
				h8.96V36.76h-8.96V79.63z M206.05,47.19c-9.45,0-17.36,7.54-17.36,16.56c0,9.02,7.91,16.62,17.36,16.62
				c9.38,0,17.24-7.61,17.24-16.62C223.29,54.73,215.44,47.19,206.05,47.19z M206.05,72.83c-4.78,0-8.77-4.17-8.77-9.08
				s3.99-9.02,8.77-9.02c4.72,0,8.71,4.11,8.71,9.02S210.78,72.83,206.05,72.83z M170.52,47.19c-4.42,0-8.1,1.9-10.61,5.15v-4.42
				h-8.96v42.26h8.96V75.16c2.51,3.31,6.19,5.21,10.61,5.21c8.46,0,14.6-6.87,14.6-16.62C185.12,54.06,178.99,47.19,170.52,47.19z
				 M167.95,72.83c-4.35,0-7.54-3.19-8.03-7.85v-2.45c0.49-4.6,3.68-7.79,8.03-7.79c4.97,0,8.46,3.74,8.46,9.02
				C176.41,69.08,172.92,72.83,167.95,72.83z M49.69,55.91c1.79,0,3.44,0.61,4.76,1.61l7.03-5.42c-3.01-3.04-7.18-4.92-11.79-4.92
				c-8.09,0-14.82,5.78-16.29,13.44l8.56,1.68C42.66,58.66,45.85,55.91,49.69,55.91z M49.69,71.65c-3.83,0-7.02-2.74-7.72-6.37
				l-8.57,1.65c1.47,7.66,8.2,13.44,16.29,13.44c4.61,0,8.78-1.88,11.79-4.92l-7.03-5.42C53.13,71.04,51.49,71.65,49.69,71.65z"/>
			<g>
				<path class="st2" d="M286.86,78.1c0,1.18-0.93,2.11-2.14,2.11c-1.2,0-2.15-0.93-2.15-2.11c0-1.16,0.95-2.09,2.15-2.09
					C285.93,76.02,286.86,76.94,286.86,78.1z M283.1,78.1c0,0.93,0.69,1.67,1.63,1.67c0.92,0,1.59-0.74,1.59-1.66
					c0-0.93-0.67-1.68-1.6-1.68C283.79,76.44,283.1,77.19,283.1,78.1z M284.39,79.2h-0.48v-2.09c0.19-0.04,0.46-0.06,0.8-0.06
					c0.39,0,0.57,0.06,0.73,0.15c0.11,0.09,0.2,0.25,0.2,0.46c0,0.23-0.18,0.41-0.43,0.48v0.03c0.2,0.08,0.32,0.23,0.38,0.51
					c0.06,0.32,0.1,0.45,0.15,0.52h-0.52c-0.06-0.08-0.1-0.27-0.17-0.51c-0.04-0.23-0.17-0.33-0.43-0.33h-0.23V79.2z M284.4,78.01
					h0.23c0.27,0,0.48-0.09,0.48-0.31c0-0.19-0.14-0.32-0.45-0.32c-0.13,0-0.22,0.01-0.27,0.03V78.01z"/>
			</g>
		</g>
		<g>
			<g>
				<path class="st2" d="M287.34,16.64v21.53c0,0.66,0.11,1.28,0.32,1.86c0.21,0.58,0.5,1.1,0.87,1.55c0.37,0.45,0.81,0.81,1.3,1.08
					c0.49,0.26,1.04,0.42,1.61,0.45l1.3,0.05v5.25l5.77-5l23,0.99c0.69,0.03,1.36-0.09,1.96-0.33c0.61-0.24,1.16-0.61,1.62-1.08
					c0.46-0.47,0.84-1.03,1.1-1.66c0.26-0.63,0.41-1.34,0.41-2.08V14.89c0-0.74-0.14-1.44-0.41-2.07c-0.26-0.63-0.64-1.19-1.1-1.64
					c-0.46-0.46-1.01-0.82-1.62-1.05c-0.61-0.23-1.27-0.34-1.96-0.3l-30.06,1.82c-0.57,0.03-1.11,0.2-1.61,0.47
					c-0.49,0.27-0.93,0.65-1.3,1.1c-0.37,0.45-0.67,0.98-0.87,1.56C287.46,15.35,287.34,15.98,287.34,16.64z M288.85,16.57
					c0-0.41,0.07-0.81,0.2-1.18c0.13-0.37,0.32-0.7,0.55-0.99c0.23-0.29,0.51-0.52,0.82-0.69c0.31-0.17,0.65-0.27,1.01-0.29
					l30.06-1.64c0.44-0.02,0.85,0.05,1.23,0.2c0.38,0.15,0.72,0.38,1.01,0.67c0.29,0.29,0.53,0.64,0.69,1.03
					c0.16,0.39,0.25,0.83,0.25,1.3v24.22c0,0.46-0.09,0.9-0.25,1.3c-0.16,0.4-0.4,0.75-0.69,1.05c-0.29,0.29-0.63,0.53-1.01,0.68
					c-0.38,0.16-0.8,0.24-1.23,0.22l-23.27-0.87l-4.12,3.56v-3.72l-2.68-0.1c-0.36-0.01-0.7-0.11-1.01-0.28
					c-0.31-0.16-0.59-0.4-0.82-0.68c-0.23-0.28-0.42-0.61-0.55-0.98c-0.13-0.36-0.2-0.76-0.2-1.18V16.57z"/>
			</g>
			<g>
				<g>
					<path class="st2" d="M294.11,19.21c2.22-0.09,3.33-0.14,5.55-0.23c0.05,6.97,0.08,10.45,0.12,17.42
						c-2.22-0.06-3.33-0.09-5.55-0.15C294.18,29.43,294.16,26.03,294.11,19.21z"/>
					<path class="st2" d="M303.71,18.81c3.29-0.14,4.94-0.2,8.23-0.34c1.62-0.07,2.94,0.1,3.94,0.52c1,0.42,1.83,1.04,2.49,1.88
						c0.66,0.84,1.14,1.83,1.44,2.97c0.3,1.14,0.46,2.35,0.47,3.64c0.01,2.01-0.19,3.57-0.62,4.68c-0.43,1.1-1.03,2.02-1.8,2.74
						c-0.77,0.73-1.6,1.2-2.49,1.42c-1.21,0.3-2.31,0.44-3.3,0.41c-3.29-0.09-4.94-0.13-8.23-0.22
						C303.79,29.43,303.76,25.89,303.71,18.81z M309.28,22.68c0.03,3.95,0.04,5.93,0.07,9.88c0.54,0.01,0.81,0.01,1.36,0.02
						c1.16,0.01,1.98-0.11,2.47-0.37c0.49-0.26,0.87-0.72,1.14-1.37c0.27-0.65,0.4-1.72,0.39-3.2c-0.01-1.95-0.33-3.29-0.96-3.99
						c-0.62-0.71-1.65-1.04-3.09-1C310.11,22.65,309.83,22.66,309.28,22.68z"/>
				</g>
			</g>
		</g>
	</g>
</g>
</svg>
