<svg xmlns="http://www.w3.org/2000/svg" viewBox="0 0 1139.21 160.39"><defs><style>.cls-1{fill:#fff}</style></defs><title>lg-cc</title><path class="cls-1" d="M510.4 133.58h25.51V43.27H510.4zM523.33 3.24a13.94 13.94 0 0 0-14 13.63 13.81 13.81 0 1 0 14-13.63zm83.52 37.94c-11.7 0-21.84 5.21-27.25 13.43V43.27h-25.51v90.31h25.51V80.06c0-9.79 8.38-17.41 19-17.41 10.14 0 17.12 7.68 17.12 18.86v52.07h24.68V76.1c0-20.44-13.98-34.92-33.55-34.92zm91.21 0c-26.39 0-46.48 19.75-46.48 47 0 27.78 21 47.53 47.87 47.53 13.28 0 28.83-5.59 36.87-14l-16.25-16.6c-4.89 4.72-13.63 8-20.79 8-10.66 0-18.52-6.64-21.49-16.42H743c0-34.05-16.64-55.54-44.94-55.54zm-19.92 37.19a21.82 21.82 0 0 1 21-14.68c10.31 0 16.95 5.77 19.4 14.68zm41.68-66.8h-25.5L684.81 31h25.5zm308.39-8.3a14 14 0 0 0-14 13.63 13.8 13.8 0 1 0 27.6 0 13.88 13.88 0 0 0-13.6-13.63zm-12.92 130.31h25.5V43.27h-25.5zm80.17-56.07c-12.23-3.32-15.9-4.72-15.9-9.61 0-3.14 4.37-5.41 10.66-5.41 7.68 0 17.12 3 25.33 8l10.3-18.16c-10-6.64-22.71-11.18-35.63-11.18-21.31 0-35.46 12.23-35.29 29.34.18 17.82 14.5 22.89 33 27.43 9.26 2.44 15.89 4.19 15.89 9.78 0 4-4.89 6.81-11.7 6.81a51.43 51.43 0 0 1-30.22-10.13l-11 17.64c10.83 8.74 26.2 13.63 40.69 13.63 22.19 0 36.69-11.36 36.69-29.17.02-19.71-17.28-24.95-32.82-28.97zM973 133.58h25.5V11.49H973zm-61.14-92.4c-26.9 0-49.43 21.48-49.43 47.16s22.53 47.34 49.43 47.34c26.75 0 49.14-21.68 49.14-47.34s-22.39-47.16-49.12-47.16zm0 73c-13.62 0-25-11.88-25-25.85s11.35-25.68 25-25.68c13.45 0 24.81 11.71 24.81 25.68s-11.34 25.86-24.79 25.86zm-101.17-73a37.19 37.19 0 0 0-30.22 14.67V43.27H755v120.35h25.51v-42.79a36.85 36.85 0 0 0 30.22 14.85c24.1 0 41.57-19.57 41.57-47.34-.02-27.6-17.49-47.16-41.59-47.16zm-7.34 73c-12.4 0-21.49-9.08-22.88-22.36v-7c1.39-13.1 10.48-22.19 22.88-22.19 14.15 0 24.1 10.66 24.1 25.68.02 15.23-9.93 25.88-24.08 25.88zM466.61 66a22.31 22.31 0 0 1 13.56 4.6l20-15.44a47.24 47.24 0 0 0-79.95 24.28l24.38 4.77A22.4 22.4 0 0 1 466.61 66zm0 44.82a22.42 22.42 0 0 1-22-18.14l-24.39 4.7a47.23 47.23 0 0 0 79.95 24.27l-20-15.43a22.31 22.31 0 0 1-13.56 4.62zm675.39 18.4a6.11 6.11 0 1 1-6.09-6 6 6 0 0 1 6.09 6zm-10.69 0A4.6 4.6 0 0 0 1136 134a4.55 4.55 0 0 0 4.53-4.71 4.59 4.59 0 1 0-9.17 0zm3.66 3.12h-1.38v-6a11.87 11.87 0 0 1 2.28-.18 3.65 3.65 0 0 1 2.07.44 1.62 1.62 0 0 1 .58 1.3 1.53 1.53 0 0 1-1.23 1.38v.07a1.75 1.75 0 0 1 1.08 1.45 4.62 4.62 0 0 0 .44 1.49h-1.49a5.12 5.12 0 0 1-.47-1.45c-.11-.66-.47-.95-1.23-.95h-.62zm0-3.37h.66c.76 0 1.37-.26 1.37-.87s-.4-.91-1.27-.91a3.8 3.8 0 0 0-.76.07zM49.61 43.6c25.06 0 37.59 19.78 37.59 19.78l-4.62 4a40.25 40.25 0 0 0-33-17.15C27.19 50.19 9.38 68 9.38 91.08S27.19 132 49.61 132s33.63-17.15 33.63-17.15l4.62 4s-13.19 19.78-38.25 19.78c-25.72 0-46.82-21.1-46.82-47.49S23.89 43.6 49.61 43.6zm60.68 93.65V44.91h9.89V128h47.48v9.23zm137.83-36.93V44.91h14.5v55.41c0 21.1-17.14 38.25-38.9 38.25s-38.91-17.15-38.91-38.25V44.91h14.51v55.41c0 13.85 11.21 25.06 24.4 25.06s24.4-11.21 24.4-25.06zM289 137.25V44.91h39.57c17.14 0 29 11.88 29 24.41A22.66 22.66 0 0 1 347 88.45s15.17 5.93 15.17 21.76c0 14.25-12.53 27-31.39 27zm19.79-75.85v19.79h18.47c6.59 0 10.55-4 10.55-9.89s-4-9.9-10.55-9.9zm21.1 59.36c7.26 0 12.53-5.27 12.53-11.87S337.15 97 329.89 97h-21.1v23.74z" transform="translate(-2.79 -3.24)" id="Capa_1" data-name="Capa 1"/></svg>