<?xml version="1.0" encoding="utf-8"?>
<!-- Generator: Adobe Illustrator 23.0.1, SVG Export Plug-In . SVG Version: 6.00 Build 0)  -->
<svg version="1.1" id="loaderLogoVR" xmlns="http://www.w3.org/2000/svg" xmlns:xlink="http://www.w3.org/1999/xlink" x="0px"
	 y="0px" viewBox="0 0 892.2 224" style="enable-background:new 0 0 892.2 224;" xml:space="preserve">
<style type="text/css">
	.st0{fill:#FFFFFF;}
	.st1{fill:#4782FF;}

	.st0, .st1 {
		stroke: #fff;
		stroke-width: 2px;
		fill-opacity: 0;
		-webkit-animation-timing-function: ease-in-out;
		animation-timing-function: ease-in-out;
		-webkit-animation-fill-mode: forwards;
		animation-fill-mode: forwards;
		animation-iteration: 1;
		-webkit-animation-name: DrawLine,FadeStroke,FillIn;
		animation-name: DrawLine,FadeStroke,FillIn;
		-webkit-animation-duration: 3s,1s,1s;
		animation-duration: 3s,1s,1s;
		-webkit-animation-delay: 0.16s,2.5s,2.5s;
		animation-delay: 0.16s,2.5s,2.5s;
		stroke-dashArray: 1100;
		stroke-dashoffset: 1100
	}

		@-webkit-keyframes DrawLine {
			to {
				stroke-dashOffset: 0
			}
		}

		@keyframes DrawLine {
			to {
				stroke-dashOffset: 0
			}
		}

		@-webkit-keyframes FadeStroke {
			to {
				stroke-opacity: 0
			}
		}

		@keyframes FadeStroke {
			to {
				stroke-opacity: 0
			}
		}

		@-webkit-keyframes FillIn {
			from {
				fill-opacity: 0
			}

			to {
				fill-opacity: 1
			}
		}

		@keyframes FillIn {
			from {
				fill-opacity: 0
			}

			to {
				fill-opacity: 1
			}
		}
</style>
<title>lg-cinepolis-vr</title>
<desc>Created with Sketch.</desc>
<g>
	<g>
		<g>
			<path class="st0" d="M57.2,161.9c-11.8,0-21.6-8.4-23.8-19.6L7,147.4c4.5,23.6,25.3,41.4,50.2,41.4c14.2,0,27-5.8,36.3-15.1
				L71.9,157C67.8,160,62.7,161.9,57.2,161.9 M57.2,113.4c5.5,0,10.6,1.9,14.7,5l21.6-16.7c-9.3-9.3-22.1-15.1-36.3-15.1
				C32.3,86.6,11.5,104.4,7,128l26.4,5.2C35.5,121.9,45.3,113.4,57.2,113.4 M421.4,165.5c-13.4,0-23.2-9.8-24.7-24.2v-7.6
				c1.5-14.2,11.3-24,24.7-24c15.3,0,26.1,11.5,26.1,27.8C447.4,154,436.7,165.5,421.4,165.5 M429.3,86.6
				c-13.6,0-24.9,5.9-32.7,15.9V88.8H369V219h27.6v-46.3c7.7,10.2,19.1,16.1,32.7,16.1c26.1,0,45-21.2,45-51.2
				C474.3,107.7,455.4,86.6,429.3,86.6 M538.7,165.5c-14.7,0-27-12.8-27-28c0-15.1,12.3-27.8,27-27.8c14.5,0,26.8,12.7,26.8,27.8
				C565.6,152.7,553.3,165.5,538.7,165.5 M538.7,86.6c-29.1,0-53.5,23.2-53.5,51s24.4,51.2,53.5,51.2c28.9,0,53.1-23.4,53.1-51.2
				S567.6,86.6,538.7,86.6 M604.9,186.5h27.6v-132h-27.6V186.5z M737.3,125.9c-13.2-3.6-17.2-5.1-17.2-10.4c0-3.4,4.7-5.9,11.5-5.9
				c8.3,0,18.5,3.2,27.4,8.7l11.1-19.6c-10.8-7.2-24.6-12.1-38.5-12.1c-23,0-38.3,13.2-38.2,31.7c0.2,19.3,15.7,24.8,35.7,29.7
				c10,2.6,17.2,4.5,17.2,10.6c0,4.3-5.3,7.4-12.7,7.4c-13,0-24-4.7-32.7-11l-11.8,19c11.7,9.4,28.3,14.7,44,14.7
				c24,0,39.7-12.3,39.7-31.5C772.8,135.9,754.1,130.2,737.3,125.9 M650.6,186.5h27.6V88.8h-27.6V186.5z M664.5,45.6
				c-8.5,0-15.1,7-15.1,14.7c0,8.3,6.6,15.1,15.1,15.1c8.1,0,14.7-6.8,14.7-15.1C679.3,52.6,672.7,45.6,664.5,45.6 M331,54.6h-27.6
				l-10.3,21h27.6L331,54.6z M285.9,126.8c3.6-9.8,12.3-15.9,22.7-15.9c11.2,0,18.3,6.2,21,15.9H285.9z M307.5,86.5
				c-28.5,0-50.3,21.4-50.3,50.8c0,30,22.7,51.4,51.8,51.4c14.4,0,31.2-6,39.9-15.1l-17.6-18c-5.3,5.1-14.7,8.7-22.5,8.7
				c-11.5,0-20-7.2-23.2-17.8H356C356,109.8,338.1,86.5,307.5,86.5 M208.8,86.6c-12.7,0-23.6,5.6-29.5,14.5V88.8h-27.6v97.7h27.6
				v-57.9c0-10.6,9.1-18.8,20.6-18.8c11,0,18.5,8.3,18.5,20.4v56.3H245v-62.2C245.1,102.2,230,86.6,208.8,86.6 M118.5,45.5
				c-8.5,0-15.1,7-15.1,14.7c0,8.3,6.6,15.1,15.1,15.1c8.1,0,14.7-6.8,14.7-15.1C133.2,52.5,126.6,45.5,118.5,45.5 M104.5,186.5
				h27.6V88.8h-27.6C104.5,88.8,104.5,186.5,104.5,186.5z"/>
		</g>
		<polygon class="st1" points="817.4,5 800.3,42.3 783.1,5 771.6,5 794.5,55.2 806,55.2 828.9,5 		"/>
		<g>
			<path class="st1" d="M874.5,36.2c0,0,9-3.9,9-14.7c0-9.2-7.2-16.5-17.2-16.5h-48.7v9.7H866c3.9,0,6.8,2.9,6.8,6.8
				c0,3.6-2.9,6.5-6.8,6.5h-30.4v27.3h10.8V37.6h17.8l9.7,17.6h11.5L874.5,36.2z"/>
		</g>
	</g>
	<g>
		<path class="st0" d="M784,183.3c0,3.3-2.6,5.9-6,5.9c-3.4,0-6.1-2.6-6.1-5.9c0-3.3,2.7-5.9,6.1-5.9
			C781.4,177.5,784,180.1,784,183.3z M773.4,183.3c0,2.6,1.9,4.7,4.6,4.7c2.6,0,4.5-2.1,4.5-4.7c0-2.6-1.9-4.7-4.5-4.7
			S773.4,180.7,773.4,183.3z M777.1,186.4h-1.4v-5.9c0.5-0.1,1.3-0.2,2.3-0.2c1.1,0,1.6,0.2,2,0.4c0.3,0.3,0.6,0.7,0.6,1.3
			c0,0.6-0.5,1.1-1.2,1.4v0.1c0.6,0.2,0.9,0.6,1.1,1.4c0.2,0.9,0.3,1.3,0.4,1.5h-1.5c-0.2-0.2-0.3-0.8-0.5-1.4
			c-0.1-0.6-0.5-0.9-1.2-0.9h-0.6V186.4z M777.1,183.1h0.6c0.8,0,1.4-0.3,1.4-0.9c0-0.5-0.4-0.9-1.3-0.9c-0.4,0-0.6,0-0.8,0.1V183.1
			z"/>
	</g>
</g>
</svg>
