<svg xmlns="http://www.w3.org/2000/svg" viewBox="0 0 117.64 119.57"><defs><style>.cls-1{fill:#ffc425;}</style></defs><title>logo-c-fallback</title><g id="Layer_2" data-name="Layer 2"><g id="Layer_1-2" data-name="Layer 1"><path class="cls-1" d="M110.32,16.73C100.65,26.85,86,25.9,81.54,25.9c-13.21,0-18.69,0-18.69,0L70,48h.06s5.7.07,18.91.07c4.43,0,18-.27,28.62-8.89l-7.32-22.46M66.48,29.11l-1,.13a.32.32,0,0,1-.39-.2l-.47-1.47a.32.32,0,0,1,.21-.4h1a.31.31,0,0,1,.39.2l.43,1.36a.31.31,0,0,1-.21.39m3.45,0-1,.13a.31.31,0,0,1-.4-.21l-.45-1.45a.3.3,0,0,1,.2-.4h1a.31.31,0,0,1,.4.2l.42,1.36a.3.3,0,0,1-.19.39m1.75-1.85h1a.32.32,0,0,1,.4.2l.43,1.36a.32.32,0,0,1-.2.39l-1,.13a.35.35,0,0,1-.41-.23l-.47-1.44a.34.34,0,0,1,.22-.41m3.48-.1h1a.3.3,0,0,1,.39.2L77,28.72a.32.32,0,0,1-.22.39l-1,.13a.34.34,0,0,1-.41-.21L75,27.57a.32.32,0,0,1,.21-.41m3.5,0,1,0a.33.33,0,0,1,.4.21l.43,1.35a.32.32,0,0,1-.21.4l-1,.12a.32.32,0,0,1-.42-.21l-.45-1.46a.3.3,0,0,1,.21-.39m3.4-.07h1a.35.35,0,0,1,.42.2l.41,1.35a.3.3,0,0,1-.2.4l-1,.12a.33.33,0,0,1-.42-.21l-.46-1.46a.33.33,0,0,1,.2-.4m3.52.09h1a.31.31,0,0,1,.39.2l.44,1.35a.32.32,0,0,1-.21.4l-1,.11a.31.31,0,0,1-.4-.21l-.47-1.45a.3.3,0,0,1,.2-.39m3.45-.2,1,0a.31.31,0,0,1,.39.22l.44,1.35a.33.33,0,0,1-.21.39l-1,.11a.31.31,0,0,1-.4-.2l-.47-1.47a.29.29,0,0,1,.21-.39m3.29-.37h1a.31.31,0,0,1,.42.19l.43,1.36a.33.33,0,0,1-.22.4l-1,.11a.33.33,0,0,1-.41-.21L92.11,27a.31.31,0,0,1,.21-.39m3.33-.65,1,0a.33.33,0,0,1,.4.21l.42,1.36a.29.29,0,0,1-.2.39l-1,.12a.31.31,0,0,1-.39-.21l-.47-1.45a.3.3,0,0,1,.2-.39m3.08-.49a.34.34,0,0,1,.21-.4l.95-.24a.34.34,0,0,1,.41.2l.45,1.41a.3.3,0,0,1-.21.4l-.93.28a.33.33,0,0,1-.4-.21l-.47-1.45m3.93.11-.46-1.46a.31.31,0,0,1,.2-.4l.9-.4a.3.3,0,0,1,.38.21l.48,1.47a.3.3,0,0,1-.2.4l-.9.39a.36.36,0,0,1-.4-.21m3.06-1.41-.47-1.46a.33.33,0,0,1,.22-.4l.88-.39a.3.3,0,0,1,.39.2l.48,1.47a.32.32,0,0,1-.21.4l-.9.38a.32.32,0,0,1-.4-.21m3-1.79L108.29,21a.31.31,0,0,1,.21-.4l.85-.49a.32.32,0,0,1,.4.2l.48,1.48a.32.32,0,0,1-.22.4l-.88.38a.33.33,0,0,1-.41-.21M72.2,46l-1,.12a.31.31,0,0,1-.39-.21l-.47-1.47a.31.31,0,0,1,.2-.39h1a.3.3,0,0,1,.38.2l.43,1.36a.3.3,0,0,1-.19.4m3.42,0-1,.12a.31.31,0,0,1-.39-.21l-.48-1.47A.31.31,0,0,1,74,44h1a.33.33,0,0,1,.42.2l.43,1.36a.31.31,0,0,1-.21.4m1.76-1.86h1a.3.3,0,0,1,.39.21l.45,1.36A.32.32,0,0,1,79,46l-1,.12a.31.31,0,0,1-.39-.21l-.47-1.46a.33.33,0,0,1,.21-.4m3.5-.1h1a.3.3,0,0,1,.39.2l.44,1.36a.33.33,0,0,1-.21.4l-1,.11a.31.31,0,0,1-.39-.2l-.47-1.47a.3.3,0,0,1,.21-.39m3.5,0h1a.31.31,0,0,1,.4.2l.44,1.35a.31.31,0,0,1-.21.4L85,46a.33.33,0,0,1-.41-.21l-.47-1.46a.32.32,0,0,1,.22-.4m3.41-.06h1a.34.34,0,0,1,.4.2l.42,1.35a.3.3,0,0,1-.21.4l-1,.11a.31.31,0,0,1-.4-.2l-.47-1.46a.31.31,0,0,1,.21-.4M91.3,44h1a.31.31,0,0,1,.4.19l.43,1.35a.31.31,0,0,1-.21.4L92,46a.3.3,0,0,1-.41-.21l-.47-1.46A.31.31,0,0,1,91.3,44m3.43-.21h1a.31.31,0,0,1,.4.22l.42,1.34a.32.32,0,0,1-.21.4l-1,.12a.33.33,0,0,1-.41-.21l-.46-1.46a.32.32,0,0,1,.2-.4M98,43.41h1a.3.3,0,0,1,.39.21l.43,1.35a.32.32,0,0,1-.2.41l-1,.12a.32.32,0,0,1-.4-.21l-.47-1.47a.3.3,0,0,1,.21-.38m3.33-.67h1a.31.31,0,0,1,.39.21l.41,1.34a.3.3,0,0,1-.2.41l-1,.11a.31.31,0,0,1-.38-.19l-.48-1.47a.34.34,0,0,1,.2-.4m3.09-.49a.31.31,0,0,1,.21-.39l.95-.23a.34.34,0,0,1,.41.2l.46,1.41a.33.33,0,0,1-.22.4l-.94.27a.32.32,0,0,1-.4-.22l-.47-1.46m3.92.12-.47-1.46a.33.33,0,0,1,.21-.4l.89-.39a.33.33,0,0,1,.41.21l.46,1.48a.33.33,0,0,1-.2.4l-.91.37a.32.32,0,0,1-.4-.2M111.44,41,111,39.51a.31.31,0,0,1,.2-.4l.89-.39a.32.32,0,0,1,.4.21l.47,1.47a.34.34,0,0,1-.2.4l-.91.37a.29.29,0,0,1-.39-.2m3-1.79L114,37.82a.32.32,0,0,1,.21-.4l.88-.48a.3.3,0,0,1,.4.21l.47,1.47a.31.31,0,0,1-.2.4l-.92.37a.32.32,0,0,1-.4-.21"/><path class="cls-1" d="M38,.16c6.69,12.29,1.33,26,0,30.19L32.3,48.16,55.58,48v0s1.8-5.4,5.81-18c1.36-4.22,5.21-17.23.22-30L38,.16M36.48,45.69l-.18,1A.32.32,0,0,1,36,47H34.44a.32.32,0,0,1-.32-.32l.31-1a.32.32,0,0,1,.32-.32h1.43a.32.32,0,0,1,.3.33m1.05-3.27-.2,1a.31.31,0,0,1-.32.3H35.48a.31.31,0,0,1-.33-.3l.31-1a.33.33,0,0,1,.31-.33h1.44a.33.33,0,0,1,.31.33m-1.23-2.26.3-1a.33.33,0,0,1,.32-.32h1.43a.31.31,0,0,1,.3.32l-.2,1a.31.31,0,0,1-.32.32H36.61a.32.32,0,0,1-.32-.32m1-3.35.3-1a.33.33,0,0,1,.31-.33H39.3a.31.31,0,0,1,.31.33l-.2,1a.3.3,0,0,1-.3.31H37.56a.31.31,0,0,1-.31-.31m1-3.35.3-1a.32.32,0,0,1,.32-.32h1.43a.32.32,0,0,1,.31.32l-.18,1a.33.33,0,0,1-.33.32H38.59a.32.32,0,0,1-.32-.32m1-3.27.31-1a.32.32,0,0,1,.32-.32h1.42a.31.31,0,0,1,.3.32l-.17,1a.33.33,0,0,1-.32.32H39.58a.32.32,0,0,1-.32-.32m1.15-3.33.31-1a.32.32,0,0,1,.31-.32h1.42a.31.31,0,0,1,.31.32l-.19,1a.31.31,0,0,1-.3.32H40.72a.31.31,0,0,1-.31-.31m.84-3.34.31-1a.29.29,0,0,1,.32-.31l1.41,0a.32.32,0,0,1,.31.33l-.18,1a.33.33,0,0,1-.32.32H41.56a.33.33,0,0,1-.31-.32m.64-3.25.32-1a.33.33,0,0,1,.32-.33h1.42a.32.32,0,0,1,.32.33l-.19,1a.32.32,0,0,1-.31.32H42.22a.33.33,0,0,1-.33-.32m.4-3.37.31-1a.31.31,0,0,1,.32-.32h1.42a.31.31,0,0,1,.31.32l-.18,1a.3.3,0,0,1-.31.3l-1.53,0a.33.33,0,0,1-.33-.32m.48-3.1a.31.31,0,0,1-.31-.32l.07-1a.29.29,0,0,1,.31-.3h1.48a.31.31,0,0,1,.32.31v1a.32.32,0,0,1-.31.32H42.76m1.31-3.7H42.52a.32.32,0,0,1-.3-.33l-.1-1a.33.33,0,0,1,.32-.32H44a.33.33,0,0,1,.33.32l.08,1a.32.32,0,0,1-.32.33m-.42-3.35H42.12a.32.32,0,0,1-.32-.31l-.08-1A.31.31,0,0,1,42,5.17h1.55a.32.32,0,0,1,.32.32l.09,1a.32.32,0,0,1-.33.31m-.8-3.4H41.44a.31.31,0,0,1-.32-.32l-.2-1a.31.31,0,0,1,.31-.31h1.55a.32.32,0,0,1,.33.31l.08,1a.34.34,0,0,1-.34.32m11.39,42-.19,1a.32.32,0,0,1-.32.33H52.21a.32.32,0,0,1-.31-.33l.31-1a.34.34,0,0,1,.31-.33H54a.31.31,0,0,1,.3.32m1.05-3.27-.21,1a.31.31,0,0,1-.31.32H53.25a.29.29,0,0,1-.31-.31l.3-1a.32.32,0,0,1,.32-.32H55a.33.33,0,0,1,.33.32m-1.24-2.24.3-1a.31.31,0,0,1,.33-.31H56.1a.32.32,0,0,1,.33.32l-.19,1a.32.32,0,0,1-.32.32H54.38a.32.32,0,0,1-.32-.32m1-3.35.31-1a.32.32,0,0,1,.32-.33h1.42a.31.31,0,0,1,.31.33l-.19,1a.31.31,0,0,1-.31.32H55.34A.32.32,0,0,1,55,36.5m1-3.35.3-1a.32.32,0,0,1,.31-.32h1.43a.33.33,0,0,1,.32.32l-.19,1a.32.32,0,0,1-.33.33H56.36a.32.32,0,0,1-.31-.33m1-3.26.3-1a.32.32,0,0,1,.32-.32h1.4a.31.31,0,0,1,.32.32l-.18,1a.33.33,0,0,1-.32.31H57.35a.33.33,0,0,1-.31-.32m1.14-3.33.3-1a.32.32,0,0,1,.32-.32h1.42a.31.31,0,0,1,.31.32l-.19,1a.31.31,0,0,1-.3.32H58.5a.31.31,0,0,1-.32-.32M59,23.22l.3-1a.32.32,0,0,1,.32-.31h1.42a.3.3,0,0,1,.3.31l-.18,1a.33.33,0,0,1-.31.32H59.34a.32.32,0,0,1-.31-.33M59.66,20,60,19a.32.32,0,0,1,.32-.32h1.42A.31.31,0,0,1,62,19l-.18,1a.33.33,0,0,1-.32.32H60a.33.33,0,0,1-.33-.32m.41-3.37.3-1a.32.32,0,0,1,.32-.33H62.1a.32.32,0,0,1,.32.33l-.2,1a.29.29,0,0,1-.3.31H60.38a.32.32,0,0,1-.32-.32m.47-3.1a.3.3,0,0,1-.3-.32l.07-1a.32.32,0,0,1,.31-.32H62.1a.31.31,0,0,1,.32.32l0,1a.3.3,0,0,1-.31.32H60.54m1.31-3.7H60.31A.32.32,0,0,1,60,9.48l-.1-1a.33.33,0,0,1,.32-.32h1.56a.32.32,0,0,1,.32.32l.07,1a.31.31,0,0,1-.31.32m-.42-3.35-1.54,0a.32.32,0,0,1-.31-.32l-.1-1a.29.29,0,0,1,.32-.3l1.56,0a.31.31,0,0,1,.3.32l.1,1a.32.32,0,0,1-.33.3m-.79-3.4H59.22a.32.32,0,0,1-.33-.31l-.18-1a.32.32,0,0,1,.3-.32h1.55a.31.31,0,0,1,.33.32l.07,1a.31.31,0,0,1-.32.31"/><path class="cls-1" d="M0,63.72c13.78-2.53,25.09,6.83,28.7,9.44,10.7,7.74,15.12,11,15.12,11L51,61.95l-.06,0s-4.57-3.4-15.3-11.14C32,48.18,20.88,40.46,7.22,41.24L0,63.72M42.79,79.35l.88.49a.34.34,0,0,1,.21.4L43.4,81.7a.34.34,0,0,1-.41.21l-.85-.6a.33.33,0,0,1-.2-.41l.45-1.35a.31.31,0,0,1,.4-.19m-2.77-2,.87.49a.32.32,0,0,1,.2.41l-.49,1.45a.3.3,0,0,1-.39.21l-.84-.59a.33.33,0,0,1-.2-.42l.43-1.35a.34.34,0,0,1,.41-.19m-2.52.47-.84-.6a.31.31,0,0,1-.2-.4l.43-1.34a.32.32,0,0,1,.41-.21l.88.49a.29.29,0,0,1,.19.38l-.48,1.48a.3.3,0,0,1-.39.2m-2.89-2-.83-.58a.31.31,0,0,1-.2-.4L34,73.52a.34.34,0,0,1,.42-.21l.87.49a.32.32,0,0,1,.2.41L35,75.66a.3.3,0,0,1-.41.19m-2.86-2-.84-.59a.33.33,0,0,1-.2-.41l.44-1.35a.3.3,0,0,1,.4-.2l.87.48a.3.3,0,0,1,.19.39l-.47,1.47a.29.29,0,0,1-.4.2M29,71.9l-.85-.59a.35.35,0,0,1-.2-.42l.46-1.33a.3.3,0,0,1,.39-.21l.88.5a.29.29,0,0,1,.2.39l-.47,1.45a.34.34,0,0,1-.4.21m-2.81-2.13-.82-.6a.32.32,0,0,1-.22-.4l.43-1.35a.35.35,0,0,1,.41-.2l.88.48a.34.34,0,0,1,.2.4l-.48,1.45a.32.32,0,0,1-.4.21m-2.91-1.84-.83-.61a.32.32,0,0,1-.2-.4l.44-1.35a.33.33,0,0,1,.41-.2l.86.47a.33.33,0,0,1,.19.42l-.46,1.47a.36.36,0,0,1-.42.21m-2.88-1.65-.82-.59a.32.32,0,0,1-.22-.4l.44-1.35a.34.34,0,0,1,.41-.2l.87.49a.32.32,0,0,1,.2.4l-.47,1.46a.31.31,0,0,1-.41.19m-3.09-1.42-.83-.6a.31.31,0,0,1-.2-.4l.44-1.35a.33.33,0,0,1,.4-.2l.86.49a.32.32,0,0,1,.21.41l-.48,1.45a.31.31,0,0,1-.4.19m-2.79-1.41a.31.31,0,0,1-.4.2l-.91-.38a.28.28,0,0,1-.19-.4l.45-1.41a.3.3,0,0,1,.4-.19l.92.32A.31.31,0,0,1,15,62l-.48,1.45m-3.1-2.39-.49,1.45a.32.32,0,0,1-.4.2l-1-.2a.31.31,0,0,1-.21-.4l.5-1.49a.31.31,0,0,1,.39-.2l.95.22a.33.33,0,0,1,.21.41m-3.31-.66-.48,1.46a.3.3,0,0,1-.4.2l-1-.2a.32.32,0,0,1-.2-.41L6.52,60a.32.32,0,0,1,.41-.21l.94.22a.33.33,0,0,1,.2.4m-3.49-.3-.45,1.36a.32.32,0,0,1-.4.21l-1-.11a.33.33,0,0,1-.21-.4L3,59.68a.32.32,0,0,1,.41-.21l.95.22a.33.33,0,0,1,.2.41M48,62.38l.89.47a.32.32,0,0,1,.19.41l-.47,1.46a.31.31,0,0,1-.41.18l-.82-.58a.3.3,0,0,1-.21-.4l.45-1.35a.29.29,0,0,1,.38-.2m-2.78-2,.88.49a.31.31,0,0,1,.21.4l-.47,1.47a.3.3,0,0,1-.4.19l-.84-.59a.32.32,0,0,1-.22-.4l.45-1.35a.31.31,0,0,1,.4-.21m-2.5.47-.85-.59a.31.31,0,0,1-.19-.38l.44-1.36a.31.31,0,0,1,.39-.2l.88.5a.31.31,0,0,1,.2.39l-.48,1.45a.3.3,0,0,1-.39.21m-2.89-2-.83-.6a.3.3,0,0,1-.2-.4l.44-1.34a.31.31,0,0,1,.41-.2l.86.5a.31.31,0,0,1,.21.4l-.48,1.45a.34.34,0,0,1-.41.2m-2.85-2-.84-.61a.3.3,0,0,1-.2-.39l.43-1.35a.32.32,0,0,1,.41-.2l.88.48a.33.33,0,0,1,.2.4l-.49,1.46a.33.33,0,0,1-.39.21m-2.81-2-.84-.59a.32.32,0,0,1-.2-.4l.45-1.36a.31.31,0,0,1,.4-.19l.87.48a.33.33,0,0,1,.21.4l-.48,1.46a.33.33,0,0,1-.41.21m-2.8-2.12-.84-.6a.31.31,0,0,1-.19-.41l.43-1.34a.29.29,0,0,1,.39-.19l.89.48a.3.3,0,0,1,.19.39l-.47,1.46a.32.32,0,0,1-.4.21m-2.91-1.86-.85-.59a.31.31,0,0,1-.19-.4l.45-1.34a.3.3,0,0,1,.4-.2l.86.48a.32.32,0,0,1,.21.4l-.48,1.46a.31.31,0,0,1-.4.2m-2.88-1.62-.83-.6a.31.31,0,0,1-.2-.4L25,47a.31.31,0,0,1,.41-.2l.87.46a.37.37,0,0,1,.21.43L26,49.1a.32.32,0,0,1-.4.21m-3.08-1.42-.85-.59a.35.35,0,0,1-.2-.4l.45-1.36a.32.32,0,0,1,.39-.19l.88.49a.31.31,0,0,1,.2.4l-.47,1.45a.32.32,0,0,1-.4.21m-2.79-1.42a.31.31,0,0,1-.41.19l-.91-.36a.33.33,0,0,1-.19-.4l.46-1.4a.32.32,0,0,1,.4-.21l.92.33a.33.33,0,0,1,.21.4l-.48,1.45M16.6,44.08l-.48,1.45a.3.3,0,0,1-.39.21l-.95-.21a.32.32,0,0,1-.21-.4L15,43.66a.35.35,0,0,1,.41-.21l.94.23a.3.3,0,0,1,.2.4m-3.29-.65-.49,1.46a.29.29,0,0,1-.38.2l-1-.21a.31.31,0,0,1-.21-.4L11.74,43a.31.31,0,0,1,.39-.19l1,.22a.32.32,0,0,1,.21.4m-3.48-.3-.46,1.35a.31.31,0,0,1-.4.2l-1-.11a.33.33,0,0,1-.22-.39l.49-1.48a.32.32,0,0,1,.4-.2l1,.23a.33.33,0,0,1,.21.4"/><path class="cls-1" d="M48.69,119.57c1.9-13.88,14.3-21.74,17.88-24.36,10.7-7.78,15.14-11,15.14-11L62.85,70.57l0,0S58.15,73.9,47.47,81.68c-3.58,2.6-14.38,10.81-17.9,24l19.12,13.86M76.86,83.76l.74-.68A.3.3,0,0,1,78,83l1.25.91a.31.31,0,0,1,.05.43l-.81.61a.33.33,0,0,1-.46.07l-1.15-.84a.32.32,0,0,1-.06-.43m-2.77,2,.74-.7a.33.33,0,0,1,.45-.06l1.22.91a.31.31,0,0,1,.09.45l-.83.6a.3.3,0,0,1-.44.05l-1.15-.83a.31.31,0,0,1-.07-.42m-.33,2.52-.84.62a.32.32,0,0,1-.43.06l-1.15-.84a.3.3,0,0,1-.07-.44L72,87a.3.3,0,0,1,.43-.06l1.24.91a.34.34,0,0,1,.07.44M71,90.45l-.83.59a.3.3,0,0,1-.43.08l-1.16-.84a.34.34,0,0,1-.05-.46l.73-.66a.33.33,0,0,1,.45-.08l1.22.91a.32.32,0,0,1,.07.45m-2.79,2.09-.83.61a.31.31,0,0,1-.44.07l-1.15-.83a.32.32,0,0,1-.05-.45l.73-.68a.3.3,0,0,1,.44-.08l1.23.92a.31.31,0,0,1,.07.44m-2.73,2.05-.83.6a.32.32,0,0,1-.44.08l-1.14-.85A.3.3,0,0,1,63,94l.73-.68a.32.32,0,0,1,.44-.05l1.24.89a.33.33,0,0,1,.07.46m-2.9,2-.82.59a.29.29,0,0,1-.44.07l-1.14-.82a.34.34,0,0,1-.06-.46l.72-.67a.34.34,0,0,1,.46-.07l1.24.91a.33.33,0,0,1,.06.46m-2.64,2.17-.84.61a.3.3,0,0,1-.44.07l-1.14-.86a.29.29,0,0,1-.06-.43l.72-.69a.37.37,0,0,1,.46-.06l1.24.91a.33.33,0,0,1,.07.45M57.47,101l-.84.6a.31.31,0,0,1-.44.06L55,100.86a.32.32,0,0,1-.06-.45l.73-.68a.33.33,0,0,1,.45-.06l1.23.9a.31.31,0,0,1,.08.45m-2.32,2.47-.82.63a.31.31,0,0,1-.45.06l-1.15-.83a.36.36,0,0,1-.07-.46l.74-.67a.32.32,0,0,1,.46-.07l1.23.89a.32.32,0,0,1,.06.44m-2.21,2.23a.32.32,0,0,1,.06.45l-.65.74a.29.29,0,0,1-.43.06l-1.21-.87a.33.33,0,0,1-.05-.45l.59-.77a.33.33,0,0,1,.46,0l1.23.9m-3.25,2.2,1.26.91a.32.32,0,0,1,.06.44l-.49.86a.33.33,0,0,1-.45.05l-1.26-.91a.32.32,0,0,1-.06-.44l.51-.84a.31.31,0,0,1,.43-.07m-1.64,2.94,1.24.91a.33.33,0,0,1,.07.45l-.49.83a.31.31,0,0,1-.44.07l-1.28-.9a.35.35,0,0,1-.06-.46l.51-.84a.33.33,0,0,1,.44-.06m-1.38,3.21,1.17.84a.35.35,0,0,1,.06.45l-.42.91a.33.33,0,0,1-.46.06l-1.24-.91a.3.3,0,0,1-.07-.43l.52-.85a.31.31,0,0,1,.44-.07M62.34,73.51l.73-.68a.34.34,0,0,1,.45-.07l1.24.92a.33.33,0,0,1,.06.45l-.83.59a.31.31,0,0,1-.43.07l-1.15-.83a.31.31,0,0,1-.07-.44m-2.77,2,.74-.68a.31.31,0,0,1,.45-.06l1.23.89a.31.31,0,0,1,.06.44l-.81.61a.33.33,0,0,1-.46.07L59.64,76a.35.35,0,0,1-.07-.45M59.23,78l-.82.62a.32.32,0,0,1-.45.06l-1.14-.84a.32.32,0,0,1-.07-.45l.74-.68a.32.32,0,0,1,.44-.06l1.24.9a.32.32,0,0,1,.06.45m-2.76,2.14-.81.59a.31.31,0,0,1-.44.07L54.06,80a.29.29,0,0,1-.07-.44l.73-.69a.34.34,0,0,1,.45-.07l1.23.91a.31.31,0,0,1,.05.46m-2.78,2.09-.84.62a.31.31,0,0,1-.44.06l-1.15-.83a.31.31,0,0,1-.06-.44l.73-.68a.3.3,0,0,1,.43-.07l1.26.9a.33.33,0,0,1,.07.44M51,84.33l-.84.62a.32.32,0,0,1-.44.05l-1.14-.84a.3.3,0,0,1-.07-.44l.72-.67a.33.33,0,0,1,.46-.08l1.22.91a.32.32,0,0,1,.09.44m-2.91,2-.82.61a.32.32,0,0,1-.46.07l-1.13-.84a.32.32,0,0,1-.08-.45l.74-.68a.32.32,0,0,1,.45-.07l1.23.9a.33.33,0,0,1,.07.46m-2.66,2.19-.82.61a.31.31,0,0,1-.44.05L43,88.36a.3.3,0,0,1-.07-.43l.73-.7a.34.34,0,0,1,.44-.06l1.23.91a.32.32,0,0,1,.07.45M43,90.77l-.83.61a.31.31,0,0,1-.44.06l-1.14-.83a.33.33,0,0,1-.07-.45l.73-.67a.32.32,0,0,1,.46-.06l1.24.89a.34.34,0,0,1,.07.46m-2.32,2.48-.82.61a.31.31,0,0,1-.45.07l-1.14-.84a.3.3,0,0,1-.07-.43l.74-.68a.3.3,0,0,1,.44-.07l1.25.91a.3.3,0,0,1,.05.44m-2.21,2.23a.29.29,0,0,1,.06.42l-.63.75a.33.33,0,0,1-.44.08l-1.19-.88a.32.32,0,0,1-.07-.46l.6-.76a.31.31,0,0,1,.44-.07l1.24.91m-3.24,2.19,1.23.91a.32.32,0,0,1,.07.44l-.49.86a.31.31,0,0,1-.44.06L34.29,99a.3.3,0,0,1-.06-.44l.49-.84a.35.35,0,0,1,.45-.08m-1.66,2.94,1.24.91a.29.29,0,0,1,.07.43l-.49.87a.34.34,0,0,1-.46.07l-1.24-.94a.3.3,0,0,1-.07-.43l.51-.85a.35.35,0,0,1,.44-.06m-1.36,3.23,1.14.83a.33.33,0,0,1,.07.45L33,106a.31.31,0,0,1-.44.05l-1.25-.91a.34.34,0,0,1-.07-.45l.52-.82a.31.31,0,0,1,.45-.07"/><path class="cls-1" d="M116.74,90.75c-12.59-6.15-16.14-20.4-17.51-24.63-4-12.59-5.67-17.81-5.67-17.81L74.65,61.93l0,0S76.37,67.43,80.4,80c1.35,4.22,5.74,17.05,17.2,24.54l19.14-13.81m-25.15-38-.4-.89a.31.31,0,0,1,.06-.45l1.25-.9a.31.31,0,0,1,.44.08l.33,1a.31.31,0,0,1-.08.44L92,52.84a.29.29,0,0,1-.43-.09m1,3.29-.42-.92a.31.31,0,0,1,.08-.45l1.25-.89a.31.31,0,0,1,.43.09l.32,1a.31.31,0,0,1-.06.44l-1.18.83a.3.3,0,0,1-.43-.06m2.29,1.1.33,1a.3.3,0,0,1-.08.43L94,59.38a.3.3,0,0,1-.44-.07l-.41-.9a.32.32,0,0,1,.07-.45l1.26-.9a.3.3,0,0,1,.43.08m1.16,3.29.33,1a.31.31,0,0,1-.09.44l-1.16.82a.3.3,0,0,1-.44-.07l-.41-.9a.36.36,0,0,1,.07-.46l1.24-.89a.33.33,0,0,1,.45.08m1.11,3.31.32,1a.33.33,0,0,1,0,.46L96.28,66a.32.32,0,0,1-.43-.07L95.43,65a.32.32,0,0,1,.09-.45l1.23-.89a.32.32,0,0,1,.44.07M98.3,67l.32,1a.32.32,0,0,1-.07.45l-1.16.82a.32.32,0,0,1-.45-.08l-.4-.9a.31.31,0,0,1,.07-.44l1.25-.9a.32.32,0,0,1,.44.09m1,3.36.3,1a.32.32,0,0,1-.07.44l-1.15.82a.33.33,0,0,1-.46-.08l-.42-.9a.36.36,0,0,1,.09-.46l1.25-.89a.34.34,0,0,1,.45.07m1.23,3.22.32,1a.32.32,0,0,1-.07.43l-1.17.83a.32.32,0,0,1-.43-.07l-.42-.9a.31.31,0,0,1,.08-.45l1.24-.89a.31.31,0,0,1,.44.06m1.36,3,.32,1a.32.32,0,0,1-.07.45l-1.16.83a.33.33,0,0,1-.45-.08l-.4-.9a.32.32,0,0,1,.06-.45l1.26-.89a.32.32,0,0,1,.44.07m1.63,3,.32,1a.32.32,0,0,1-.06.44l-1.17.82a.3.3,0,0,1-.43-.08l-.42-.89a.35.35,0,0,1,.08-.46l1.24-.88a.3.3,0,0,1,.44.07m1.42,2.8a.3.3,0,0,1,.44.08l.5.83a.31.31,0,0,1-.08.44l-1.2.86a.32.32,0,0,1-.46-.08l-.55-.81a.32.32,0,0,1,.08-.44l1.26-.89M106,86.15l1.24-.91a.33.33,0,0,1,.45.08l.64.74a.3.3,0,0,1-.07.44l-1.26.9a.31.31,0,0,1-.45-.08l-.62-.74a.3.3,0,0,1,.08-.43m2.26,2.47,1.26-.89a.31.31,0,0,1,.44.08l.65.73a.3.3,0,0,1-.08.44l-1.27.91a.31.31,0,0,1-.44-.08l-.62-.75a.32.32,0,0,1,.06-.43m2.64,2.32,1.14-.83a.33.33,0,0,1,.46.06l.72.69a.32.32,0,0,1-.07.44l-1.26.9a.33.33,0,0,1-.44-.08l-.63-.76a.3.3,0,0,1,.08-.43M77.3,63.33l-.43-.91A.33.33,0,0,1,77,62l1.25-.88a.32.32,0,0,1,.45.07l.32,1a.34.34,0,0,1-.06.44l-1.17.82a.3.3,0,0,1-.43-.08m1,3.26-.41-.9a.32.32,0,0,1,.08-.45l1.24-.88a.31.31,0,0,1,.45.07l.33,1a.31.31,0,0,1-.09.44l-1.14.83a.33.33,0,0,1-.45-.08m2.31,1.12.31,1a.31.31,0,0,1-.08.44L79.73,70a.31.31,0,0,1-.45-.08l-.41-.9a.32.32,0,0,1,.08-.44l1.25-.9a.34.34,0,0,1,.45.09M81.8,71l.31,1a.31.31,0,0,1-.07.45l-1.16.82a.31.31,0,0,1-.43-.08L80,72.26a.34.34,0,0,1,.09-.44l1.25-.9a.32.32,0,0,1,.44.08m1.11,3.31.32,1a.33.33,0,0,1-.08.45L82,76.55a.31.31,0,0,1-.46-.06l-.41-.9a.33.33,0,0,1,.07-.46l1.26-.88a.32.32,0,0,1,.44.07M84,77.54l.31,1a.3.3,0,0,1-.06.43l-1.17.83a.3.3,0,0,1-.44-.09l-.42-.9a.32.32,0,0,1,.09-.44l1.24-.9a.32.32,0,0,1,.44.07m1,3.38.31,1a.3.3,0,0,1-.08.43l-1.14.83a.3.3,0,0,1-.43-.08l-.43-.9a.32.32,0,0,1,.08-.45l1.24-.88a.33.33,0,0,1,.46.07m1.22,3.21.33,1a.31.31,0,0,1-.08.43l-1.16.84a.32.32,0,0,1-.43-.08l-.41-.91a.33.33,0,0,1,.08-.45l1.25-.88a.3.3,0,0,1,.43.07m1.37,3,.31,1a.33.33,0,0,1-.07.45l-1.16.83a.38.38,0,0,1-.46-.08l-.4-.91a.32.32,0,0,1,.07-.45l1.25-.9a.33.33,0,0,1,.45.08m1.64,3,.32,1a.32.32,0,0,1-.08.44l-1.16.84a.3.3,0,0,1-.43-.1l-.41-.89a.28.28,0,0,1,.07-.42l1.24-.91a.33.33,0,0,1,.45.08m1.41,2.81a.3.3,0,0,1,.43.06l.51.85a.31.31,0,0,1-.09.43l-1.2.87a.33.33,0,0,1-.44-.07l-.55-.82a.31.31,0,0,1,.08-.44l1.26-.88m1.06,3.76L93,95.79a.36.36,0,0,1,.45.09l.65.73a.34.34,0,0,1-.07.45l-1.26.9a.32.32,0,0,1-.45-.08l-.64-.73a.37.37,0,0,1,.07-.46M94,99.19l1.25-.9a.31.31,0,0,1,.44.08l.65.73a.29.29,0,0,1-.07.43l-1.26.91a.31.31,0,0,1-.44-.07l-.64-.75a.32.32,0,0,1,.08-.44m2.62,2.3,1.16-.84a.35.35,0,0,1,.45.08l.72.68a.33.33,0,0,1-.07.46l-1.26.89a.33.33,0,0,1-.45-.07l-.63-.76a.33.33,0,0,1,.08-.45"/></g></g></svg>