<?xml version="1.0" encoding="UTF-8"?>
<!-- Generator: Adobe Illustrator 19.1.0, SVG Export Plug-In . SVG Version: 6.00 Build 0)  -->
<svg version="1.1" id="Capa_1" xmlns="http://www.w3.org/2000/svg" xmlns:xlink="http://www.w3.org/1999/xlink" x="0px" y="0px" viewBox="0 0 267.9 271.7" style="enable-background:new 0 0 267.9 271.7;" xml:space="preserve">
<style type="text/css">
	.st0{fill:#2A2A2A;}
	.st1{fill-rule:evenodd;clip-rule:evenodd;fill:#2A2A2A;}
</style>
<g>
	<g>
		<polygon class="st0" points="137.6,162.4 239.7,57.6 194,57.5 93.2,162.7 195.5,271.7 243,271.7   "/>
		<polygon class="st0" points="161.8,162.4 263.9,57.6 250.4,57.5 149.6,162.7 252,271.7 267.2,271.7   "/>
		<polygon class="st0" points="84.2,162.7 108.6,137.1 108.6,57.5 72.2,57.5 72.2,271.7 108.6,271.7 108.6,190.8   "/>
	</g>
	<g>
		<path class="st1" d="M115.3,47.3h-8v-23h8V47.3z M107.3,14.8h8v6.6h-8V14.8z"/>
		<path class="st0" d="M126.8,47.3h-8V24.2h7.4v3.6c1-1.5,2-2.6,3-3.3c1.1-0.6,2.3-1,3.8-1c2.5,0,4.4,0.8,5.7,2.4c1.3,1.6,2,3.9,2,7    v14.4h-8.1V34.6c0-1.3-0.2-2.3-0.7-2.9c-0.5-0.6-1.2-0.9-2.1-0.9c-0.9,0-1.6,0.4-2.2,1.1c-0.6,0.7-0.8,1.8-0.8,3.4V47.3z"/>
		<path class="st1" d="M166.1,33.1c-0.4-2-1.3-3.7-2.3-5.2c-1.1-1.5-2.4-2.6-4-3.3c-1.6-0.7-3.2-1-5.1-1c-3.4,0-6.2,1.2-8.3,3.5    c-2.1,2.4-3.1,5.4-3.1,9c0,3.5,1,6.3,3.1,8.5c2.1,2.2,4.9,3.3,8.6,3.3c2.3,0,4.2-0.4,5.9-1.3c1.6-0.9,2.9-2,3.8-3.4    c0.6-0.9,1-1.8,1.2-2.9h-7.6c-0.6,1.2-1.5,1.9-2.9,1.9c-1.3,0-2.2-0.4-2.9-1.2c-0.7-0.7-1-1.8-1.1-3.2h15.2    C166.5,36,166.4,34.4,166.1,33.1z M152.4,30.2c0.6-0.7,1.4-1,2.4-1c1.1,0,2,0.3,2.7,1.1c0.7,0.7,1,1.7,1,2.9h-7.2    C151.4,31.9,151.8,30.8,152.4,30.2z"/>
		<path class="st1" d="M177.3,45c0.6,0.8,1.1,1.4,1.5,1.8c0.4,0.4,0.9,0.7,1.6,0.9c0.7,0.3,1.4,0.4,2.3,0.4c2.6,0,4.8-1.1,6.5-3.3    c1.7-2.2,2.6-5.2,2.6-9c0-2.3-0.4-4.4-1.1-6.3c-0.7-1.9-1.7-3.3-3.2-4.3c-1.4-1-3-1.5-4.7-1.5c-1.6,0-2.9,0.4-4.1,1.2    c-1.2,0.8-2,1.7-2.4,2.9v-3.4h-7.2v32h8V45z M182.9,31.7c0.7,0.9,1,2.2,1,4c0,1.1-0.1,2.1-0.4,2.9c-0.3,0.8-0.7,1.4-1.2,1.8    c-0.5,0.4-1.1,0.6-1.8,0.6c-1,0-1.8-0.4-2.4-1.3c-0.6-0.9-0.9-2.3-0.9-4.2c0-1.7,0.3-3,1-3.8c0.6-0.9,1.5-1.3,2.4-1.3    C181.4,30.3,182.2,30.8,182.9,31.7z"/>
		<path class="st1" d="M197.2,27c-2,2.2-3,5.2-3,9c0,2.7,0.6,5,1.6,6.9c1.1,1.9,2.5,3.2,4.3,4c1.8,0.8,3.6,1.2,5.5,1.2    c2.3,0,4.4-0.5,6.2-1.6c1.8-1.1,3.2-2.5,4-4.3c0.9-1.8,1.3-3.9,1.3-6.2c0-3.7-1-6.7-3-8.9c-2-2.2-4.8-3.3-8.5-3.3    C202,23.6,199.2,24.7,197.2,27z M204,41.2c-0.6-0.4-1-1-1.3-1.9c-0.3-0.9-0.5-2-0.5-3.4c0-2.2,0.3-3.8,1-4.8    c0.6-0.9,1.5-1.4,2.5-1.4c1,0,1.7,0.4,2.3,1.2c0.8,1.1,1.1,2.7,1.1,4.8c0,1.5-0.1,2.6-0.4,3.6c-0.3,0.9-0.7,1.6-1.2,2    c-0.5,0.4-1.1,0.6-1.7,0.6C205.1,41.8,204.5,41.6,204,41.2z"/>
		<rect x="219.9" y="15.5" class="st0" width="7.9" height="31.8"/>
		<path class="st1" d="M239.4,47.3h-8v-23h8V47.3z M231.4,14.8h8v6.6h-8V14.8z"/>
		<path class="st0" d="M241.7,40.1h7.7c0,0.8,0.3,1.5,0.7,2.1c0.5,0.5,1.2,0.8,2.1,0.8c0.8,0,1.4-0.2,1.8-0.6    c0.4-0.4,0.6-0.9,0.6-1.4c0-0.4-0.1-0.8-0.3-1.1c-0.2-0.3-0.7-0.6-1.2-0.7l-4.5-1.2c-2.3-0.6-3.9-1.6-4.8-2.7    c-0.9-1.1-1.4-2.5-1.4-4.1c0-1.5,0.4-2.8,1.1-3.9c0.7-1.1,1.8-2,3.2-2.7c1.4-0.7,3.3-1,5.5-1c3.3,0,5.8,0.7,7.3,2.1    c1.5,1.4,2.3,3.1,2.4,5.1h-7.3c-0.1-0.6-0.3-1.2-0.8-1.6c-0.4-0.4-1-0.6-1.7-0.6c-0.7,0-1.3,0.2-1.7,0.6c-0.3,0.3-0.5,0.6-0.5,1.1    c0,0.4,0.1,0.7,0.4,1c0.3,0.3,0.8,0.5,1.8,0.8l3.8,1c2.5,0.6,4.3,1.6,5.3,2.8c1,1.2,1.4,2.6,1.4,4.3c0,1.3-0.2,2.5-0.8,3.6    c-0.5,1.1-1.3,1.9-2.3,2.6c-1,0.7-2.1,1.1-3.3,1.4c-1.3,0.3-2.6,0.4-4.1,0.4c-1.7,0-3.3-0.2-4.6-0.6c-1.3-0.4-2.4-1-3.3-1.8    c-0.9-0.8-1.5-1.7-1.9-2.7C242.1,42.2,241.8,41.2,241.7,40.1z"/>
		<polygon class="st0" points="152,21.4 156.3,21.4 161.8,16 155.2,16   "/>
		<path class="st0" d="M93.6,24.7c-0.2-3-2.4-4.7-6.1-4.7c-5.1,0-6.1,6.2-6.1,11.2c0,4.9,1,10.6,6.1,10.6c3.7,0,5.9-1.7,6.1-4.9h9.4    c0.1,8.4-7.6,11.4-15.4,11.4c-10.1,0-15.5-6.3-15.5-17.4c0-11.2,5.4-17.3,15.5-17.3c7.8,0,15.6,2.8,15.4,11.2H93.6z"/>
		<path class="st1" d="M266.3,45.6h0.6c0.2,0,0.2,0.2,0.2,0.4c0,0.2,0.1,0.5,0.1,0.7h0.6c-0.1-0.2-0.1-0.5-0.2-0.7    c0-0.4,0-0.7-0.5-0.7c0.3-0.1,0.5-0.3,0.5-0.7c0-0.6-0.5-0.7-0.9-0.7h-1.1v2.8h0.6V45.6z M266.3,44.4h0.5c0.3,0,0.4,0.1,0.4,0.4    c0,0.2-0.2,0.4-0.4,0.4h-0.5V44.4z"/>
		<path class="st1" d="M34.7,9.2c0,0.1-0.1,0.2-0.2,0.2l-0.8,0c-0.1,0-0.2-0.1-0.2-0.2l0-0.6c0-0.1,0.1-0.2,0.2-0.2h0.9    c0.1,0,0.2,0.1,0.2,0.2L34.7,9.2z M34.5,11.1c0,0.1-0.1,0.2-0.2,0.2h-0.9c-0.1,0-0.2-0.1-0.2-0.2l0.1-0.6c0-0.1,0.1-0.2,0.2-0.2    h0.9c0.1,0,0.2,0.1,0.1,0.2L34.5,11.1z M34.3,13c0,0.1-0.1,0.2-0.2,0.2h-0.9c-0.1,0-0.2-0.1-0.1-0.2l0.1-0.6    c0-0.1,0.1-0.2,0.2-0.2l0.9,0c0.1,0,0.1,0.1,0.1,0.2L34.3,13z M33.8,14.9c0,0.1-0.1,0.2-0.2,0.2h-0.9c-0.1,0-0.2-0.1-0.1-0.2    l0.2-0.6c0-0.1,0.1-0.2,0.2-0.2l0.9,0c0.1,0,0.2,0.1,0.1,0.2L33.8,14.9z M33.3,16.8c0,0.1-0.1,0.2-0.2,0.2h-0.9    c-0.1,0-0.1-0.1-0.1-0.2l0.2-0.6c0-0.1,0.1-0.2,0.2-0.2l0.9,0c0.1,0,0.2,0.1,0.1,0.2L33.3,16.8z M32.7,18.8    c-0.1,0.1-0.2,0.2-0.3,0.2h-0.9c-0.1,0-0.2-0.1-0.1-0.2l0.2-0.6c0.1-0.1,0.1-0.2,0.2-0.2h0.9c0.1,0,0.2,0.1,0.1,0.2L32.7,18.8z     M32.1,20.7c0,0.1-0.2,0.2-0.2,0.2H31c-0.1,0-0.1-0.1-0.1-0.2l0.2-0.6c0-0.1,0.1-0.2,0.2-0.2h0.9c0.1,0,0.2,0.1,0.1,0.2L32.1,20.7    z M31.5,22.6c0,0.1-0.1,0.2-0.2,0.2h-0.9c-0.1,0-0.2-0.1-0.1-0.2l0.2-0.6c0.1-0.1,0.1-0.2,0.2-0.2h0.9c0.1,0,0.1,0.1,0.1,0.2    L31.5,22.6z M30.9,24.5c0,0.1-0.2,0.2-0.2,0.2l-0.9,0c-0.1,0-0.1-0.1-0.1-0.2l0.2-0.6c0.1-0.1,0.2-0.2,0.3-0.2h0.9    c0.1,0,0.2,0.1,0.1,0.2L30.9,24.5z M30.3,26.5c0,0.1-0.1,0.2-0.2,0.2h-0.9c-0.1,0-0.2-0.1-0.1-0.2l0.2-0.6c0-0.1,0.1-0.2,0.2-0.2    l0.9,0c0.1,0,0.2,0.1,0.1,0.2L30.3,26.5z M24.9,7.4H24c-0.1,0-0.2-0.1-0.2-0.2l0-0.6c0-0.1,0.1-0.2,0.2-0.2h0.9    c0.1,0,0.2,0.1,0.2,0.2l0,0.6C25,7.3,24.9,7.4,24.9,7.4z M25,9.1c0,0.1-0.1,0.2-0.2,0.2h-0.9c-0.1,0-0.2-0.1-0.2-0.2V8.5    c0-0.1,0.1-0.2,0.2-0.2l0.9,0c0.1,0,0.2,0.1,0.2,0.2V9.1z M24.7,11c0,0.1-0.1,0.2-0.2,0.2l-0.9,0c-0.1,0-0.2-0.1-0.1-0.2l0.1-0.6    c0-0.1,0.1-0.2,0.2-0.2h0.9c0.1,0,0.2,0.1,0.2,0.2L24.7,11z M24.4,12.9c0,0.1-0.1,0.2-0.2,0.2h-0.9c-0.1,0-0.2-0.1-0.1-0.2    l0.1-0.6c0-0.1,0.1-0.2,0.2-0.2h0.9c0.1,0,0.1,0.1,0.1,0.2L24.4,12.9z M23.9,14.8c0,0.1-0.1,0.2-0.2,0.2h-0.9    c-0.1,0-0.2-0.1-0.1-0.2l0.2-0.6c0-0.1,0.1-0.2,0.2-0.2l0.9,0c0.1,0,0.1,0.1,0.1,0.2L23.9,14.8z M23.3,16.7c0,0.1-0.1,0.2-0.2,0.2    h-0.9c-0.1,0-0.2-0.1-0.1-0.2l0.2-0.6c0-0.1,0.1-0.2,0.2-0.2l0.9,0c0.1,0,0.1,0.1,0.1,0.2L23.3,16.7z M22.7,18.6    c0,0.1-0.1,0.2-0.2,0.2h-0.9c-0.1,0-0.2-0.1-0.1-0.2l0.2-0.6c0-0.1,0.1-0.2,0.2-0.2h0.9c0.1,0,0.2,0.1,0.1,0.2L22.7,18.6z     M22.1,20.5c0,0.1-0.1,0.2-0.2,0.2l-0.9,0c-0.1,0-0.2-0.1-0.1-0.2l0.2-0.6c0-0.1,0.1-0.2,0.2-0.2h0.9c0.1,0,0.2,0.1,0.1,0.2    L22.1,20.5z M21.5,22.4c0,0.1-0.2,0.2-0.2,0.2h-0.9c-0.1,0-0.1-0.1-0.1-0.2l0.2-0.6c0-0.1,0.1-0.2,0.2-0.2l0.9,0    c0.1,0,0.2,0.1,0.1,0.2L21.5,22.4z M20.9,24.4c-0.1,0.1-0.1,0.2-0.2,0.2l-0.9,0c-0.1,0-0.1-0.1-0.1-0.2l0.2-0.6    c0-0.1,0.1-0.2,0.2-0.2H21c0.1,0,0.2,0.1,0.1,0.2L20.9,24.4z M20.3,26.3c0,0.1-0.1,0.2-0.2,0.2h-0.9c-0.1,0-0.1-0.1-0.1-0.2    l0.2-0.6c0-0.1,0.2-0.2,0.2-0.2h0.9c0.1,0,0.2,0.1,0.1,0.2L20.3,26.3z M22.9,1.6c-0.1,0-0.2-0.1-0.3-0.2l-0.3-0.6    c-0.1-0.1,0-0.2,0.1-0.2h0.9c0.1,0,0.2,0.1,0.3,0.2l0.2,0.6c0.1,0.1,0,0.2-0.1,0.2L22.9,1.6z M24.3,2.8l0.2,0.6    c0,0.1,0,0.2-0.1,0.2l-0.9,0c-0.1,0-0.2-0.1-0.2-0.2l-0.2-0.6c0-0.1,0-0.2,0.1-0.2h0.9C24.2,2.6,24.3,2.7,24.3,2.8z M24.8,4.7    l0.1,0.6c0,0.1,0,0.2-0.2,0.2h-0.9c-0.1,0-0.2-0.1-0.2-0.2l-0.1-0.6c0-0.1,0-0.2,0.1-0.2h0.9C24.7,4.5,24.8,4.6,24.8,4.7z     M32.7,0.7h0.9c0.1,0,0.2,0.1,0.2,0.2l0.2,0.6c0,0.1,0,0.2-0.1,0.2l-0.9,0c-0.1,0-0.2-0.1-0.2-0.2l-0.2-0.6    C32.5,0.8,32.6,0.7,32.7,0.7z M34.3,2.8l0.1,0.6c0,0.1,0,0.2-0.1,0.2h-0.9c-0.1,0-0.2-0.1-0.2-0.2l-0.1-0.6c0-0.1,0-0.2,0.1-0.2    h0.9C34.2,2.6,34.3,2.7,34.3,2.8z M34.6,4.7l0.1,0.6c0,0.1-0.1,0.2-0.1,0.2l-0.9,0c-0.1,0-0.2-0.1-0.2-0.2l-0.1-0.6    c0-0.1,0.1-0.2,0.2-0.2h0.8C34.5,4.6,34.6,4.6,34.6,4.7z M34.8,6.6l0,0.6c0,0.1-0.1,0.2-0.2,0.2l-0.9,0c-0.1,0-0.2-0.1-0.2-0.2    V6.6c0-0.1,0.1-0.2,0.2-0.2h0.9C34.7,6.5,34.8,6.5,34.8,6.6z M34.2,0l-13,0c3.6,7,0.6,14.8-0.1,17.2c-2.2,7.2-3.2,10.1-3.2,10.1    h12.8v0c0,0,1-3.1,3.3-10.2C34.7,14.7,36.9,7.3,34.2,0z"/>
		<path class="st1" d="M56.8,25.6c-0.1,0-0.2,0-0.2-0.1l-0.3-0.9c0-0.1,0-0.2,0.1-0.2l0.6-0.2c0.1,0,0.2,0,0.2,0.1l0.3,0.9    c0,0.1,0,0.2-0.1,0.2L56.8,25.6z M55,26c-0.1,0-0.2,0-0.2-0.1L54.5,25c0-0.1,0-0.2,0.1-0.2l0.5-0.1c0.1,0,0.2,0.1,0.3,0.1l0.3,0.9    c0,0.1,0,0.2-0.1,0.2L55,26z M53.1,26.3c-0.1,0-0.2,0-0.2-0.1l-0.3-0.9c0-0.1,0-0.2,0.1-0.2l0.6-0.1c0.1,0,0.2,0,0.2,0.2l0.3,0.8    c0,0.1,0,0.2-0.1,0.2L53.1,26.3z M51.2,26.5c-0.1,0-0.2-0.1-0.3-0.2l-0.2-0.8c0-0.1,0-0.2,0.1-0.2l0.6,0c0.1,0,0.2,0.1,0.2,0.2    l0.3,0.8c0,0.1,0,0.2-0.1,0.2L51.2,26.5z M49.2,26.6c-0.1,0-0.2-0.1-0.2-0.2l-0.3-0.9c0-0.1,0-0.2,0.1-0.2h0.6    c0.1,0,0.2,0.1,0.3,0.2l0.3,0.9c0,0.1,0,0.2-0.1,0.2H49.2z M47.3,26.6c-0.1,0-0.2-0.1-0.3-0.2l-0.3-0.8c0-0.1,0.1-0.2,0.1-0.2h0.6    c0.1,0,0.2,0.1,0.2,0.2l0.3,0.8c0,0.1,0,0.2-0.1,0.2H47.3z M45.3,26.6c-0.1,0-0.2-0.1-0.2-0.2l-0.3-0.9c0-0.1,0-0.2,0.1-0.2h0.6    c0.1,0,0.2,0.1,0.2,0.2l0.3,0.9c0,0.1,0,0.2-0.2,0.2H45.3z M43.3,26.6c-0.1,0-0.2-0.1-0.3-0.2l-0.3-0.9c0-0.1,0-0.2,0.1-0.2h0.6    c0.1,0,0.2,0.1,0.2,0.2l0.3,0.9c0.1,0.1,0,0.2-0.1,0.2H43.3z M41.4,26.6c-0.1,0-0.2-0.1-0.2-0.2l-0.3-0.9c0-0.1,0-0.2,0.2-0.2h0.6    c0.1,0,0.2,0.1,0.3,0.2l0.3,0.9c0,0.1,0,0.2-0.1,0.2H41.4z M39.4,26.6c-0.1,0-0.2-0.1-0.2-0.2l-0.3-0.9c0-0.1,0-0.2,0.1-0.2h0.6    c0.1,0,0.2,0.1,0.3,0.2l0.3,0.8c0,0.1,0,0.2-0.1,0.2H39.4z M55.4,15.4l-0.3-0.8c0-0.1,0-0.2,0.1-0.2l0.5-0.2c0.1,0,0.2,0,0.2,0.1    l0.3,0.8c0,0.1,0,0.2-0.1,0.3l-0.5,0.2C55.6,15.5,55.4,15.5,55.4,15.4z M53.9,16c-0.1,0.1-0.2,0-0.2-0.1l-0.3-0.8    c0-0.1,0-0.2,0.1-0.2l0.5-0.2c0.1,0,0.2,0,0.2,0.1l0.3,0.9c0,0.1,0,0.2-0.1,0.2L53.9,16z M52,16.4c-0.1,0-0.2,0-0.2-0.1l-0.3-0.8    c0-0.1,0-0.2,0.1-0.2l0.6-0.1c0.1,0,0.2,0,0.2,0.1l0.3,0.9c0,0.1,0,0.2-0.1,0.2L52,16.4z M50.1,16.7c-0.1,0-0.2,0-0.2-0.1    l-0.3-0.9c0-0.1,0-0.2,0.1-0.2l0.6,0c0.1,0,0.2,0,0.2,0.2l0.3,0.8c0,0.1-0.1,0.2-0.1,0.2L50.1,16.7z M48.2,16.8    c-0.1,0-0.2-0.1-0.2-0.2l-0.3-0.9c0-0.1,0-0.2,0.1-0.2h0.6c0.1,0,0.2,0.1,0.2,0.2l0.3,0.9c0,0.1,0,0.2-0.1,0.2H48.2z M46.3,16.8    c-0.1,0-0.2-0.1-0.3-0.2l-0.3-0.8c0-0.1,0-0.2,0.1-0.2h0.6c0.1,0,0.2,0.1,0.3,0.2l0.3,0.8c0,0.1,0,0.2-0.1,0.2H46.3z M44.3,16.8    c-0.1,0-0.2-0.1-0.2-0.2l-0.2-0.8c0-0.1,0-0.2,0.1-0.2l0.6,0c0.1,0,0.2,0.1,0.3,0.2l0.3,0.8c0,0.1,0,0.2-0.1,0.2H44.3z M42.3,16.8    c-0.1,0-0.2-0.1-0.3-0.2l-0.2-0.8c0-0.1,0-0.2,0.1-0.2h0.6c0.1,0,0.2,0.1,0.2,0.2l0.3,0.8c0,0.1,0,0.2-0.1,0.2H42.3z M40.4,16.8    c-0.1,0-0.2-0.1-0.2-0.2l-0.3-0.8c0-0.1,0-0.2,0.2-0.2h0.6c0.1,0,0.2,0.1,0.2,0.2l0.3,0.8c0,0.1,0,0.2-0.1,0.2H40.4z M38.4,16.8    c-0.1,0-0.2-0.1-0.2-0.2l-0.3-0.8c0-0.1,0-0.2,0.1-0.2l0.6,0c0.1,0,0.2,0.1,0.2,0.2l0.3,0.8c0,0.1,0,0.2-0.1,0.2H38.4z M36.5,16.8    c-0.1,0-0.2-0.1-0.3-0.2l-0.3-0.8c0-0.1,0-0.2,0.1-0.2h0.6c0.1,0,0.2,0.1,0.2,0.2l0.3,0.8c0,0.1,0,0.2-0.1,0.2H36.5z M60.2,11.8    c0-0.1,0-0.2,0.1-0.3l0.5-0.4c0.1-0.1,0.2-0.1,0.2,0l0.3,0.9c0,0.1,0,0.2-0.1,0.3l-0.5,0.5c-0.1,0.1-0.2,0.1-0.2,0L60.2,11.8z     M59.5,13.5L59,13.8c-0.1,0.1-0.2,0-0.2-0.1l-0.3-0.8c0-0.1,0-0.2,0.1-0.3l0.5-0.4c0.1,0,0.2,0,0.2,0.1l0.3,0.9    C59.7,13.3,59.6,13.4,59.5,13.5z M57.9,14.5l-0.5,0.3c-0.1,0-0.2,0-0.2-0.1l-0.3-0.9c0-0.1,0-0.2,0.1-0.2l0.5-0.3    c0.1,0,0.2,0,0.2,0.1l0.2,0.8C58,14.3,58,14.4,57.9,14.5z M64,21l0.2,0.8c0,0.1,0,0.2-0.1,0.3l-0.5,0.3c-0.1,0.1-0.2,0-0.2-0.1    l-0.2-0.8c0-0.1,0-0.2,0.1-0.3l0.5-0.3C63.9,20.8,64,20.9,64,21z M62.6,23.2l-0.5,0.3c-0.1,0.1-0.2,0-0.2-0.1l-0.3-0.8    c0-0.1,0-0.2,0.1-0.3l0.5-0.3c0.1-0.1,0.2,0,0.2,0.1l0.3,0.8C62.7,23,62.6,23.1,62.6,23.2z M60.9,24.1l-0.5,0.2    c-0.1,0.1-0.2,0-0.2-0.1l-0.3-0.8c0-0.1,0-0.2,0.1-0.3l0.5-0.2c0.1-0.1,0.2,0,0.2,0.1l0.3,0.9C61,23.9,61,24,60.9,24.1z     M59.1,24.9L58.6,25c-0.1,0-0.2,0-0.2-0.1l-0.3-0.8c0-0.1,0-0.2,0.1-0.2l0.5-0.2c0.1,0,0.2,0,0.2,0.1l0.3,0.9    C59.3,24.7,59.2,24.8,59.1,24.9z M65.1,22.2l-4-12.7c-5.4,5.7-13.5,5.2-16,5.2l-10.4,0l3.9,12.5l0,0c0,0,3.2,0,10.5,0    C51.7,27.3,59.2,27.1,65.1,22.2z"/>
		<path class="st1" d="M48.4,52.2c0-0.1,0-0.2,0.1-0.3l0.7-0.5c0.1,0,0.2,0,0.2,0.1l0.3,0.5c0.1,0.1,0,0.2,0,0.2L49,52.7    c-0.1,0.1-0.2,0-0.3,0L48.4,52.2z M47.5,50.5c-0.1-0.1,0-0.2,0.1-0.3l0.7-0.5c0.1-0.1,0.2,0,0.2,0.1l0.3,0.5c0,0.1,0,0.2-0.1,0.3    L48,51.1c-0.1,0.1-0.2,0-0.2-0.1L47.5,50.5z M46.6,48.8c-0.1-0.1,0-0.2,0.1-0.3l0.7-0.5c0.1-0.1,0.2,0,0.2,0.1l0.3,0.5    c0,0.1,0,0.2-0.1,0.3l-0.7,0.5c-0.1,0.1-0.2,0-0.2-0.1L46.6,48.8z M45.9,47c0-0.1,0-0.2,0.1-0.3l0.7-0.5c0.1-0.1,0.2,0,0.2,0.1    l0.2,0.6c0,0.1,0,0.2-0.1,0.3l-0.7,0.5c-0.1,0.1-0.2,0-0.2-0.1L45.9,47z M45.2,45.1c0-0.1,0-0.2,0.1-0.3l0.7-0.5    c0.1-0.1,0.2,0,0.2,0.1l0.2,0.6c0,0.1,0,0.2-0.1,0.3l-0.7,0.5c-0.1,0.1-0.2,0-0.2-0.1L45.2,45.1z M44.5,43.2c0-0.1,0-0.2,0.1-0.3    l0.7-0.5c0.1-0.1,0.2,0,0.2,0.1l0.2,0.6c0,0.1,0,0.2-0.1,0.3l-0.7,0.5c-0.1,0.1-0.2,0-0.2-0.1L44.5,43.2z M43.9,41.3    c0-0.1,0-0.3,0.1-0.3l0.7-0.5c0.1-0.1,0.2,0,0.2,0.1l0.2,0.6c0,0.1,0,0.2-0.1,0.3l-0.7,0.5c-0.1,0.1-0.2,0-0.2-0.1L43.9,41.3z     M43.3,39.4c0-0.1,0-0.2,0.1-0.3l0.7-0.5c0.1-0.1,0.2-0.1,0.2,0.1l0.2,0.6c0,0.1,0,0.2-0.1,0.3L43.7,40c-0.1,0.1-0.2,0-0.2-0.1    L43.3,39.4z M42.7,37.4c0-0.1,0-0.2,0.1-0.3l0.7-0.5c0.1-0.1,0.2,0,0.2,0.1l0.2,0.6c0,0.1,0,0.2-0.1,0.3l-0.7,0.5    c-0.1,0.1-0.2,0-0.2-0.1L42.7,37.4z M42.1,35.5c-0.1-0.1,0-0.2,0.1-0.3l0.7-0.5c0.1-0.1,0.2,0,0.2,0.1l0.2,0.6    c0,0.1,0,0.2-0.1,0.3l-0.7,0.5c-0.1,0.1-0.2,0-0.2-0.1L42.1,35.5z M57.4,47.7l0.7-0.5c0.1-0.1,0.2-0.1,0.3,0l0.4,0.5    c0.1,0.1,0,0.2,0,0.3L58,48.4c-0.1,0.1-0.2,0-0.3,0l-0.4-0.5C57.4,47.8,57.4,47.7,57.4,47.7z M56.3,46.4c0-0.1,0-0.2,0.1-0.3    l0.7-0.5c0.1-0.1,0.2,0,0.3,0l0.3,0.5c0.1,0.1,0,0.2,0,0.3L57,46.9c-0.1,0.1-0.2,0-0.3,0L56.3,46.4z M55.4,44.7    c0-0.1,0-0.2,0.1-0.3l0.7-0.5c0.1-0.1,0.2,0,0.2,0.1l0.3,0.5c0,0.1,0,0.2-0.1,0.3l-0.7,0.5c-0.1,0.1-0.2,0-0.2-0.1L55.4,44.7z     M54.6,42.9c0-0.1,0-0.2,0.1-0.3l0.7-0.5c0.1-0.1,0.2,0,0.2,0.1l0.2,0.5c0.1,0.1,0,0.2,0,0.3l-0.7,0.5c-0.1,0.1-0.2,0-0.2-0.1    L54.6,42.9z M53.9,41.1c0-0.1,0-0.2,0.1-0.3l0.7-0.5c0.1-0.1,0.2,0,0.2,0.1l0.2,0.6c0,0.1,0,0.2-0.1,0.3l-0.7,0.5    c-0.1,0.1-0.2,0-0.2-0.1L53.9,41.1z M53.3,39.2c0-0.1,0-0.3,0.1-0.3l0.7-0.5c0.1,0,0.2,0,0.2,0.1l0.2,0.6c0,0.1,0,0.2-0.1,0.3    l-0.7,0.5c-0.1,0.1-0.2,0-0.2-0.1L53.3,39.2z M52.7,37.3c0-0.1,0-0.2,0.1-0.3l0.7-0.5c0.1-0.1,0.2,0,0.2,0.1l0.2,0.6    c0.1,0.1,0,0.2-0.1,0.3l-0.7,0.5c-0.1,0.1-0.2,0-0.2-0.1L52.7,37.3z M52.1,35.3c0-0.1,0-0.2,0.1-0.3l0.7-0.5    c0.1-0.1,0.2,0,0.2,0.1l0.2,0.6c0,0.1,0,0.2-0.1,0.3L52.5,36c-0.1,0.1-0.2,0-0.2-0.1L52.1,35.3z M51.5,33.4c0-0.1,0-0.2,0.1-0.3    l0.7-0.5c0.1-0.1,0.2,0,0.2,0.1l0.2,0.6c0,0.1,0,0.2-0.1,0.3l-0.7,0.5c-0.1,0.1-0.2,0-0.2-0.1L51.5,33.4z M50.9,31.5    c0-0.1,0-0.2,0.1-0.3l0.7-0.5c0.1-0.1,0.2,0,0.2,0.1l0.2,0.6c0,0.1,0,0.2-0.1,0.3l-0.7,0.5c-0.1,0-0.2,0-0.2-0.1L50.9,31.5z     M50.3,29.6c0-0.1,0-0.2,0.1-0.3l0.7-0.5c0.1-0.1,0.2,0,0.2,0.1l0.2,0.6c0,0.1,0,0.2-0.1,0.3l-0.7,0.5c-0.1,0-0.2,0-0.2-0.1    L50.3,29.6z M62.3,51.2c0.1-0.1,0.2-0.1,0.3,0l0.5,0.3c0.1,0.1,0.1,0.2,0,0.2l-0.7,0.5c-0.1,0.1-0.2,0.1-0.3,0l-0.5-0.3    c-0.1-0.1-0.1-0.2,0-0.2L62.3,51.2z M60.5,51.1L60,50.7c-0.1-0.1-0.1-0.2,0-0.2l0.7-0.5c0.1,0,0.2,0,0.3,0l0.5,0.4    c0.1,0.1,0.1,0.2,0,0.2l-0.7,0.5C60.7,51.2,60.6,51.2,60.5,51.1z M59,49.8l-0.4-0.4c-0.1-0.1-0.1-0.2,0-0.2l0.7-0.5    c0.1-0.1,0.2,0,0.3,0l0.4,0.4c0.1,0.1,0.1,0.2,0,0.2l-0.7,0.5C59.2,49.9,59.1,49.9,59,49.8z M54.9,57.8l-0.7,0.5    c-0.1,0.1-0.2,0.1-0.3,0l-0.5-0.4c-0.1-0.1-0.1-0.2,0-0.2l0.7-0.5c0-0.1,0.2-0.1,0.3,0l0.5,0.4C55,57.6,55,57.7,54.9,57.8z     M52.4,57.1L52,56.7c-0.1-0.1-0.1-0.2,0-0.3l0.7-0.5c0.1,0,0.2,0,0.3,0l0.4,0.4c0.1,0.1,0.1,0.2,0,0.2l-0.7,0.5    C52.6,57.1,52.5,57.1,52.4,57.1z M51.1,55.7l-0.4-0.5c-0.1-0.1-0.1-0.2,0-0.2l0.7-0.5c0.1-0.1,0.2,0,0.3,0l0.4,0.4    c0.1,0,0.1,0.2,0,0.2l-0.7,0.5C51.3,55.8,51.1,55.8,51.1,55.7z M49.9,54.2l-0.3-0.5c-0.1-0.1-0.1-0.2,0-0.3l0.7-0.5    c0.1-0.1,0.2,0,0.3,0l0.3,0.5c0,0.1,0,0.2,0,0.3l-0.7,0.5C50,54.3,49.9,54.3,49.9,54.2z M54.1,59.3l10.5-7.8c-7-3.5-9-11.6-9.8-14    c-2.3-7.1-3.2-10.1-3.2-10.1l-10.3,7.7l0,0c0,0,0.9,3.1,3.2,10.2C45.2,47.8,47.8,55,54.1,59.3z"/>
		<path class="st1" d="M21.1,52.2c0.1-0.1,0.2-0.1,0.3,0l0.7,0.5c0.1,0.1,0.1,0.2,0,0.3l-0.3,0.4c-0.1,0.1-0.2,0.1-0.3,0l-0.7-0.5    c-0.1,0-0.1-0.2,0-0.2L21.1,52.2z M22.3,50.8c0.1-0.1,0.2-0.1,0.3,0l0.7,0.5c0.1,0.1,0.1,0.2,0,0.2l-0.4,0.4    c-0.1,0.1-0.2,0.1-0.3,0l-0.7-0.5c-0.1-0.1-0.1-0.2,0-0.2L22.3,50.8z M23.6,49.4c0.1-0.1,0.2-0.1,0.3,0l0.7,0.5    c0.1,0.1,0.1,0.2,0,0.3l-0.4,0.4c-0.1,0.1-0.2,0.1-0.3,0L23.2,50c-0.1-0.1-0.1-0.2,0-0.2L23.6,49.4z M25.1,48.1    c0.1-0.1,0.2-0.1,0.3,0l0.7,0.5c0.1,0,0.1,0.1,0,0.2l-0.5,0.4c-0.1,0.1-0.2,0.1-0.3,0l-0.7-0.5c-0.1,0-0.1-0.2,0-0.2L25.1,48.1z     M26.6,46.8c0.1-0.1,0.2-0.1,0.3,0l0.7,0.5c0.1,0.1,0.1,0.1,0,0.2l-0.5,0.4c-0.1,0.1-0.2,0.1-0.3,0l-0.7-0.5    c-0.1-0.1-0.1-0.1,0-0.2L26.6,46.8z M28.2,45.7c0.1-0.1,0.2-0.1,0.3,0l0.7,0.5c0.1,0.1,0.1,0.2,0,0.2l-0.5,0.3    c-0.1,0.1-0.2,0.1-0.3,0l-0.7-0.5c-0.1-0.1-0.1-0.2,0-0.2L28.2,45.7z M29.8,44.5c0.1-0.1,0.2-0.1,0.3,0l0.7,0.5    c0.1,0.1,0.1,0.1,0,0.2l-0.5,0.3c-0.1,0.1-0.2,0.1-0.3,0L29.3,45c-0.1,0-0.1-0.1,0-0.2L29.8,44.5z M31.4,43.3    c0.1-0.1,0.2-0.1,0.3,0l0.7,0.5c0.1,0.1,0.1,0.2,0,0.2l-0.5,0.3c-0.1,0.1-0.2,0.1-0.3,0l-0.7-0.5c-0.1-0.1-0.1-0.2,0-0.2    L31.4,43.3z M33,42.1c0.1-0.1,0.2-0.1,0.3,0l0.7,0.5c0.1,0,0.1,0.2,0,0.2l-0.5,0.4c-0.1,0.1-0.2,0.1-0.3,0l-0.7-0.5    c0,0,0-0.1,0-0.2L33,42.1z M34.6,40.9c0.1-0.1,0.2-0.1,0.3,0l0.7,0.5c0.1,0.1,0.1,0.2,0,0.2L35.1,42c-0.1,0.1-0.2,0.1-0.3,0    l-0.7-0.5c-0.1-0.1-0.1-0.2,0-0.2L34.6,40.9z M28.1,59.6l0.7,0.5c0.1,0.1,0.1,0.2,0,0.3l-0.3,0.5c-0.1,0.1-0.2,0.1-0.2,0.1    l-0.7-0.5c-0.1-0.1-0.1-0.2,0-0.3l0.3-0.5C27.9,59.6,28,59.5,28.1,59.6z M28.9,58.1c0.1-0.1,0.2-0.1,0.3-0.1l0.7,0.5    c0.1,0,0.1,0.2,0,0.2l-0.4,0.5c0,0.1-0.2,0.1-0.2,0l-0.7-0.5c-0.1,0-0.1-0.2,0-0.2L28.9,58.1z M30.2,56.7c0.1-0.1,0.2-0.1,0.3,0    l0.7,0.5c0.1,0.1,0.1,0.2,0,0.2l-0.4,0.4c-0.1,0.1-0.2,0.1-0.3,0l-0.7-0.5c-0.1,0-0.1-0.2,0-0.2L30.2,56.7z M31.6,55.4    c0.1-0.1,0.2-0.1,0.3,0l0.7,0.5c0.1,0,0.1,0.2,0,0.2l-0.4,0.4c-0.1,0.1-0.2,0.1-0.3,0L31.2,56c-0.1-0.1-0.1-0.2,0-0.2L31.6,55.4z     M33.1,54.1c0.1-0.1,0.2-0.1,0.3,0l0.7,0.5c0.1,0.1,0.1,0.2,0,0.2l-0.5,0.4c-0.1,0.1-0.2,0.1-0.3,0l-0.7-0.5    c-0.1-0.1-0.1-0.2,0-0.2L33.1,54.1z M34.7,53c0.1-0.1,0.2-0.1,0.3,0l0.7,0.5c0.1,0.1,0.1,0.1,0,0.2L35.2,54    c-0.1,0.1-0.2,0.1-0.3,0l-0.7-0.5c-0.1-0.1-0.1-0.2,0-0.2L34.7,53z M36.3,51.8c0.1-0.1,0.2-0.1,0.3,0l0.7,0.5    c0.1,0.1,0.1,0.1,0,0.2l-0.5,0.4c-0.1,0.1-0.2,0.1-0.3,0l-0.7-0.5c-0.1,0-0.1-0.1,0-0.2L36.3,51.8z M37.8,50.6    c0.1-0.1,0.2-0.1,0.3,0l0.7,0.5c0.1,0.1,0.1,0.2,0,0.2l-0.5,0.4c-0.1,0.1-0.2,0.1-0.3,0l-0.7-0.5c-0.1-0.1-0.1-0.1,0-0.2    L37.8,50.6z M39.4,49.4c0.1-0.1,0.2-0.1,0.3,0l0.7,0.5c0.1,0.1,0.1,0.2,0,0.2l-0.5,0.4c-0.1,0.1-0.2,0.1-0.3,0L38.9,50    c-0.1,0-0.1-0.2,0-0.2L39.4,49.4z M41,48.2c0.1-0.1,0.2-0.1,0.3,0l0.7,0.5c0.1,0.1,0.1,0.2,0,0.2l-0.5,0.4c-0.1,0.1-0.2,0.1-0.3,0    l-0.7-0.5c-0.1-0.1-0.1-0.2,0-0.2L41,48.2z M42.6,47c0.1-0.1,0.2-0.1,0.3,0l0.7,0.5c0.1,0.1,0.1,0.2,0,0.2l-0.5,0.4    c-0.1,0.1-0.2,0.1-0.3,0l-0.7-0.5c-0.1,0,0-0.2,0-0.2L42.6,47z M26.3,65.4c0.1,0,0.1,0.2,0.1,0.3l-0.1,0.6c0,0.1-0.1,0.2-0.2,0.1    l-0.7-0.5c-0.1-0.1-0.1-0.2-0.1-0.3l0.1-0.6c0-0.1,0.1-0.2,0.2-0.1L26.3,65.4z M25.8,63.6l0.2-0.6c0-0.1,0.1-0.1,0.2-0.1l0.7,0.5    c0.1,0.1,0.1,0.2,0.1,0.3l-0.2,0.6c0,0.1-0.1,0.2-0.2,0.1l-0.7-0.5C25.8,63.9,25.8,63.7,25.8,63.6z M26.6,61.8l0.3-0.5    c0-0.1,0.1-0.1,0.2-0.1l0.7,0.5c0.1,0.1,0.1,0.2,0.1,0.3l-0.2,0.5c0,0.1-0.1,0.1-0.2,0.1l-0.7-0.5C26.5,62,26.5,61.9,26.6,61.8z     M17.9,60.3l-0.7-0.5c-0.1-0.1-0.1-0.2-0.1-0.3l0.2-0.6c0-0.1,0.1-0.1,0.2-0.1l0.7,0.5c0,0.1,0.1,0.2,0,0.3l-0.2,0.6    C18.1,60.3,18,60.3,17.9,60.3z M17.8,57.6l0.3-0.5c0-0.1,0.2-0.1,0.2-0.1l0.7,0.5c0.1,0.1,0.1,0.2,0.1,0.3l-0.3,0.5    c-0.1,0.1-0.2,0.1-0.2,0.1l-0.7-0.5C17.8,57.8,17.8,57.7,17.8,57.6z M18.7,55.9l0.3-0.5c0-0.1,0.1-0.1,0.2-0.1l0.7,0.5    c0.1,0.1,0.1,0.2,0,0.3l-0.3,0.5c-0.1,0.1-0.2,0.1-0.2,0.1l-0.7-0.5C18.6,56.1,18.6,55.9,18.7,55.9z M19.6,54.2l0.3-0.5    c0.1-0.1,0.2-0.1,0.2,0l0.7,0.5c0.1,0.1,0.1,0.2,0,0.3L20.6,55c-0.1,0.1-0.2,0.1-0.3,0l-0.7-0.5C19.6,54.4,19.5,54.3,19.6,54.2z     M16.3,59.9l10.5,7.8c1.1-7.9,7.9-12.4,9.9-13.9c5.9-4.4,8.4-6.3,8.4-6.3l-10.4-7.7l0,0c0,0-2.6,1.9-8.5,6.3    C24.2,47.7,18.2,52.4,16.3,59.9z"/>
		<path class="st1" d="M12.6,25.6c0.1,0.1,0.2,0.2,0.1,0.3l-0.3,0.8c0,0.1-0.1,0.2-0.2,0.1l-0.5-0.2c-0.1,0-0.2-0.1-0.1-0.2l0.3-0.9    c0-0.1,0.1-0.1,0.2-0.1L12.6,25.6z M14.4,26.3c0.1,0.1,0.1,0.2,0.1,0.3l-0.3,0.8c0,0.1-0.1,0.1-0.2,0.1l-0.5-0.3    c-0.1,0-0.1-0.2-0.1-0.2l0.3-0.8c0-0.1,0.1-0.1,0.2-0.1L14.4,26.3z M16.1,27.2c0.1,0.1,0.1,0.2,0.1,0.3l-0.3,0.8    c0,0.1-0.1,0.1-0.2,0.1l-0.5-0.3c-0.1-0.1-0.1-0.2-0.1-0.3l0.3-0.8c0-0.1,0.1-0.1,0.2-0.1L16.1,27.2z M17.7,28.3    c0.1,0,0.1,0.2,0.1,0.3l-0.3,0.8c0,0.1-0.1,0.1-0.2,0.1l-0.5-0.3c-0.1-0.1-0.1-0.2-0.1-0.3L17,28c0-0.1,0.1-0.1,0.2-0.1L17.7,28.3    z M19.3,29.3c0.1,0.1,0.1,0.2,0.1,0.3l-0.3,0.8c0,0.1-0.1,0.1-0.2,0.1l-0.5-0.4c-0.1-0.1-0.1-0.2-0.1-0.3l0.3-0.9    c0-0.1,0.1-0.1,0.2,0L19.3,29.3z M20.9,30.5c0.1,0.1,0.1,0.2,0.1,0.3l-0.3,0.8c0,0.1-0.1,0.1-0.2,0l-0.5-0.4    c-0.1,0-0.1-0.2-0.1-0.3l0.3-0.8c0-0.1,0.1-0.1,0.2-0.1L20.9,30.5z M22.5,31.7c0.1,0.1,0.1,0.2,0.1,0.3l-0.3,0.9    c0,0.1-0.1,0.1-0.2,0l-0.5-0.4c-0.1-0.1-0.1-0.2-0.1-0.3l0.3-0.8c0-0.1,0.1-0.1,0.2-0.1L22.5,31.7z M24.1,32.9    c0.1,0.1,0.1,0.2,0.1,0.3L24,34c0,0.1-0.1,0.1-0.2,0.1l-0.5-0.4c-0.1-0.1-0.1-0.2-0.1-0.3l0.3-0.8c0-0.1,0.1-0.1,0.2,0L24.1,32.9z     M25.7,34.1c0.1,0.1,0.1,0.2,0.1,0.3l-0.3,0.8c0,0.1-0.1,0.1-0.2,0.1l-0.5-0.4c-0.1-0.1-0.2-0.2-0.1-0.3l0.3-0.9    c0-0.1,0.1-0.1,0.2-0.1L25.7,34.1z M27.3,35.3c0.1,0.1,0.1,0.2,0.1,0.3l-0.3,0.8c0,0.1-0.1,0.1-0.2,0.1l-0.5-0.4    c-0.1-0.1-0.1-0.2-0.1-0.3l0.3-0.8c0-0.1,0.1-0.1,0.2-0.1L27.3,35.3z M7.9,34.6l-0.3,0.9c0,0.1-0.1,0.1-0.2,0.1l-0.5-0.2    c-0.1,0-0.2-0.1-0.1-0.2L7,34.4c0-0.1,0.1-0.2,0.2-0.1l0.6,0.2C7.9,34.5,7.9,34.6,7.9,34.6z M9.6,35.1c0.1,0,0.2,0.1,0.1,0.2    l-0.3,0.8c0,0.1-0.1,0.1-0.3,0.1l-0.5-0.2c-0.1,0-0.1-0.1-0.1-0.2L8.8,35c0-0.1,0.1-0.1,0.2-0.1L9.6,35.1z M11.3,35.9    c0.1,0.1,0.1,0.2,0.1,0.3L11.1,37c0,0.1-0.1,0.1-0.2,0.1l-0.5-0.3c-0.1-0.1-0.1-0.2-0.1-0.3l0.3-0.8c0-0.1,0.1-0.1,0.2-0.1    L11.3,35.9z M12.9,36.8c0.1,0.1,0.1,0.2,0.1,0.3l-0.3,0.8c0,0.1-0.1,0.1-0.2,0.1l-0.5-0.3c-0.1-0.1-0.1-0.2-0.1-0.3l0.3-0.9    c0-0.1,0.1-0.1,0.2-0.1L12.9,36.8z M14.6,37.9c0.1,0.1,0.1,0.2,0.1,0.3L14.4,39c0,0.1-0.1,0.1-0.2,0.1l-0.5-0.4    c-0.1-0.1-0.1-0.2-0.1-0.3l0.3-0.9c0-0.1,0.1-0.1,0.2-0.1L14.6,37.9z M16.2,39.1c0.1,0.1,0.1,0.2,0.1,0.3L16,40.2    c0,0.1-0.1,0.1-0.2,0.1l-0.5-0.3c-0.1-0.1-0.1-0.2-0.1-0.3l0.3-0.8c0-0.1,0.1-0.1,0.2,0L16.2,39.1z M17.7,40.2    c0.1,0.1,0.1,0.2,0.1,0.3l-0.3,0.8c0,0.1-0.1,0.1-0.2,0.1l-0.5-0.4c-0.1-0.1-0.1-0.2-0.1-0.3l0.3-0.8c0-0.1,0.1-0.1,0.2,0    L17.7,40.2z M19.3,41.4c0.1,0.1,0.1,0.2,0.1,0.3l-0.3,0.8c0,0.1-0.1,0.1-0.2,0.1l-0.5-0.4c-0.1-0.1-0.1-0.2-0.1-0.3l0.3-0.8    c0-0.1,0.1-0.1,0.2-0.1L19.3,41.4z M20.9,42.6c0.1,0.1,0.1,0.2,0.1,0.3l-0.3,0.9c0,0.1-0.1,0.1-0.2,0L20,43.4    c-0.1,0-0.1-0.2-0.1-0.3l0.3-0.8c0-0.1,0.1-0.1,0.2-0.1L20.9,42.6z M22.5,43.8c0.1,0.1,0.1,0.2,0.1,0.3l-0.3,0.8    c-0.1,0.1-0.1,0.1-0.2,0l-0.5-0.4c-0.1-0.1-0.1-0.2-0.1-0.3l0.3-0.8c0-0.1,0.1-0.1,0.2-0.1L22.5,43.8z M24.1,45    c0.1,0.1,0.1,0.2,0.1,0.3l-0.3,0.8c0,0.1-0.1,0.1-0.2,0.1l-0.5-0.4c-0.1-0.1-0.1-0.2-0.1-0.3l0.3-0.8c0-0.1,0.1-0.1,0.2,0L24.1,45    z M2,34.7c0,0.1-0.1,0.2-0.3,0.2L1.1,35C1,35,1,34.9,1,34.9L1.3,34c0-0.1,0.1-0.2,0.2-0.2l0.6-0.1c0.1,0,0.2,0.1,0.2,0.1L2,34.7z     M3.5,33.7h0.6c0.1,0,0.1,0.1,0.1,0.2L4,34.8c0,0.1-0.1,0.2-0.2,0.2l-0.6,0c-0.1,0-0.2-0.1-0.1-0.2l0.3-0.9    C3.3,33.8,3.4,33.7,3.5,33.7z M5.4,33.9L6,34c0.1,0,0.1,0.1,0.1,0.2L5.9,35c0,0.1-0.2,0.2-0.2,0.1L5,35.1c-0.1,0-0.2-0.1-0.1-0.2    L5.2,34C5.2,33.9,5.3,33.9,5.4,33.9z M4.2,25l0.3-0.9C4.5,24,4.6,24,4.7,24l0.6,0c0.1,0,0.2,0.1,0.1,0.2L5.2,25    c0,0.1-0.1,0.2-0.3,0.2l-0.6,0C4.2,25.1,4.1,25.1,4.2,25z M6.6,24.1l0.6,0.1c0.1,0,0.2,0.1,0.1,0.2l-0.3,0.9    c0,0.1-0.1,0.2-0.3,0.1l-0.6-0.1c-0.1,0-0.2-0.1-0.1-0.2l0.3-0.8C6.4,24.1,6.5,24,6.6,24.1z M8.5,24.3l0.6,0.1    c0.1,0,0.2,0.1,0.1,0.2l-0.3,0.8c0,0.1-0.2,0.1-0.2,0.1l-0.6-0.1C8,25.5,8,25.4,8,25.3l0.3-0.8C8.3,24.4,8.4,24.3,8.5,24.3z     M10.3,24.8l0.6,0.2c0.1,0,0.2,0.2,0.1,0.3L10.7,26c0,0.1-0.1,0.2-0.3,0.1L10,26c-0.1,0-0.1-0.1-0.1-0.2l0.3-0.8    C10.1,24.8,10.2,24.8,10.3,24.8z M4,23.3L0,35.9c7.6-1.4,13.9,3.9,15.9,5.4c6,4.4,8.4,6.2,8.4,6.2l4-12.5l0,0c0,0-2.5-1.9-8.5-6.3    C17.8,27.3,11.6,22.9,4,23.3z"/>
	</g>
</g>
<style xmlns="http://www.w3.org/1999/xhtml" charset="utf-8" type="text/css" class="firebugResetStyles">/* See license.txt for terms of usage */
/** reset styling **/
.firebugResetStyles {
    z-index: 2147483646 !important;
    top: 0 !important;
    left: 0 !important;
    display: block !important;
    border: 0 none !important;
    margin: 0 !important;
    padding: 0 !important;
    outline: 0 !important;
    min-width: 0 !important;
    max-width: none !important;
    min-height: 0 !important;
    max-height: none !important;
    position: fixed !important;
    transform: rotate(0deg) !important;
    transform-origin: 50% 50% !important;
    border-radius: 0 !important;
    box-shadow: none !important;
    background: transparent none !important;
    pointer-events: none !important;
    white-space: normal !important;
}
style.firebugResetStyles {
    display: none !important;
}

.firebugBlockBackgroundColor {
    background-color: transparent !important;
}

.firebugResetStyles:before, .firebugResetStyles:after {
    content: "" !important;
}
/**actual styling to be modified by firebug theme**/
.firebugCanvas {
    display: none !important;
}

/* * * * * * * * * * * * * * * * * * * * * * * * * * * * * * * * * * * * * * * * * * * * * * * * */
.firebugLayoutBox {
    width: auto !important;
    position: static !important;
}

.firebugLayoutBoxOffset {
    opacity: 0.8 !important;
    position: fixed !important;
}

.firebugLayoutLine {
    opacity: 0.4 !important;
    background-color: #000000 !important;
}

.firebugLayoutLineLeft, .firebugLayoutLineRight {
    width: 1px !important;
    height: 100% !important;
}

.firebugLayoutLineTop, .firebugLayoutLineBottom {
    width: 100% !important;
    height: 1px !important;
}

.firebugLayoutLineTop {
    margin-top: -1px !important;
    border-top: 1px solid #999999 !important;
}

.firebugLayoutLineRight {
    border-right: 1px solid #999999 !important;
}

.firebugLayoutLineBottom {
    border-bottom: 1px solid #999999 !important;
}

.firebugLayoutLineLeft {
    margin-left: -1px !important;
    border-left: 1px solid #999999 !important;
}

/* * * * * * * * * * * * * * * * * * * * * * * * * * * * * * * * * * * * * * * * * * * * * * * * */
.firebugLayoutBoxParent {
    border-top: 0 none !important;
    border-right: 1px dashed #E00 !important;
    border-bottom: 1px dashed #E00 !important;
    border-left: 0 none !important;
    position: fixed !important;
    width: auto !important;
}

.firebugRuler{
    position: absolute !important;
}

.firebugRulerH {
    top: -15px !important;
    left: 0 !important;
    width: 100% !important;
    height: 14px !important;
    background: url("data:image/png,%89PNG%0D%0A%1A%0A%00%00%00%0DIHDR%00%00%13%88%00%00%00%0E%08%02%00%00%00L%25a%0A%00%00%00%04gAMA%00%00%D6%D8%D4OX2%00%00%00%19tEXtSoftware%00Adobe%20ImageReadyq%C9e%3C%00%00%04%F8IDATx%DA%EC%DD%D1n%E2%3A%00E%D1%80%F8%FF%EF%E2%AF2%95%D0D4%0E%C1%14%B0%8Fa-%E9%3E%CC%9C%87n%B9%81%A6W0%1C%A6i%9A%E7y%0As8%1CT%A9R%A5J%95*U%AAT%A9R%A5J%95*U%AAT%A9R%A5J%95*U%AAT%A9R%A5J%95*U%AAT%A9R%A5J%95*U%AAT%A9R%A5J%95*U%AAT%A9R%A5J%95*U%AATE9%FE%FCw%3E%9F%AF%2B%2F%BA%97%FDT%1D~K(%5C%9D%D5%EA%1B%5C%86%B5%A9%BDU%B5y%80%ED%AB*%03%FAV9%AB%E1%CEj%E7%82%EF%FB%18%BC%AEJ8%AB%FA'%D2%BEU9%D7U%ECc0%E1%A2r%5DynwVi%CFW%7F%BB%17%7Dy%EACU%CD%0E%F0%FA%3BX%FEbV%FEM%9B%2B%AD%BE%AA%E5%95v%AB%AA%E3E5%DCu%15rV9%07%B5%7F%B5w%FCm%BA%BE%AA%FBY%3D%14%F0%EE%C7%60%0EU%AAT%A9R%A5J%95*U%AAT%A9R%A5J%95*U%AAT%A9R%A5J%95*U%AAT%A9R%A5J%95*U%AAT%A9R%A5JU%88%D3%F5%1F%AE%DF%3B%1B%F2%3E%DAUCNa%F92%D02%AC%7Dm%F9%3A%D4%F2%8B6%AE*%BF%5C%C2Ym~9g5%D0Y%95%17%7C%C8c%B0%7C%18%26%9CU%CD%13i%F7%AA%90%B3Z%7D%95%B4%C7%60%E6E%B5%BC%05%B4%FBY%95U%9E%DB%FD%1C%FC%E0%9F%83%7F%BE%17%7DkjMU%E3%03%AC%7CWj%DF%83%9An%BCG%AE%F1%95%96yQ%0Dq%5Dy%00%3Et%B5'%FC6%5DS%95pV%95%01%81%FF'%07%00%00%00%00%00%00%00%00%00%F8x%C7%F0%BE%9COp%5D%C9%7C%AD%E7%E6%EBV%FB%1E%E0(%07%E5%AC%C6%3A%ABi%9C%8F%C6%0E9%AB%C0'%D2%8E%9F%F99%D0E%B5%99%14%F5%0D%CD%7F%24%C6%DEH%B8%E9rV%DFs%DB%D0%F7%00k%FE%1D%84%84%83J%B8%E3%BA%FB%EF%20%84%1C%D7%AD%B0%8E%D7U%C8Y%05%1E%D4t%EF%AD%95Q%BF8w%BF%E9%0A%BF%EB%03%00%00%00%00%00%00%00%00%00%B8vJ%8E%BB%F5%B1u%8Cx%80%E1o%5E%CA9%AB%CB%CB%8E%03%DF%1D%B7T%25%9C%D5(%EFJM8%AB%CC'%D2%B2*%A4s%E7c6%FB%3E%FA%A2%1E%80~%0E%3E%DA%10x%5D%95Uig%15u%15%ED%7C%14%B6%87%A1%3B%FCo8%A8%D8o%D3%ADO%01%EDx%83%1A~%1B%9FpP%A3%DC%C6'%9C%95gK%00%00%00%00%00%00%00%00%00%20%D9%C9%11%D0%C0%40%AF%3F%EE%EE%92%94%D6%16X%B5%BCMH%15%2F%BF%D4%A7%C87%F1%8E%F2%81%AE%AAvzr%DA2%ABV%17%7C%E63%83%E7I%DC%C6%0Bs%1B%EF6%1E%00%00%00%00%00%00%00%00%00%80cr%9CW%FF%7F%C6%01%0E%F1%CE%A5%84%B3%CA%BC%E0%CB%AA%84%CE%F9%BF)%EC%13%08WU%AE%AB%B1%AE%2BO%EC%8E%CBYe%FE%8CN%ABr%5Dy%60~%CFA%0D%F4%AE%D4%BE%C75%CA%EDVB%EA(%B7%F1%09g%E5%D9%12%00%00%00%00%00%00%00%00%00H%F6%EB%13S%E7y%5E%5E%FB%98%F0%22%D1%B2'%A7%F0%92%B1%BC%24z3%AC%7Dm%60%D5%92%B4%7CEUO%5E%F0%AA*%3BU%B9%AE%3E%A0j%94%07%A0%C7%A0%AB%FD%B5%3F%A0%F7%03T%3Dy%D7%F7%D6%D4%C0%AAU%D2%E6%DFt%3F%A8%CC%AA%F2%86%B9%D7%F5%1F%18%E6%01%F8%CC%D5%9E%F0%F3z%88%AA%90%EF%20%00%00%00%00%00%00%00%00%00%C0%A6%D3%EA%CFi%AFb%2C%7BB%0A%2B%C3%1A%D7%06V%D5%07%A8r%5D%3D%D9%A6%CAu%F5%25%CF%A2%99%97zNX%60%95%AB%5DUZ%D5%FBR%03%AB%1C%D4k%9F%3F%BB%5C%FF%81a%AE%AB'%7F%F3%EA%FE%F3z%94%AA%D8%DF%5B%01%00%00%00%00%00%00%00%00%00%8E%FB%F3%F2%B1%1B%8DWU%AAT%A9R%A5J%95*U%AAT%A9R%A5J%95*U%AAT%A9R%A5J%95*U%AAT%A9R%A5J%95*U%AAT%A9R%A5J%95*U%AAT%A9R%A5J%95*U%AAT%A9R%A5J%95*UiU%C7%BBe%E7%F3%B9%CB%AAJ%95*U%AAT%A9R%A5J%95*U%AAT%A9R%A5J%95*U%AAT%A9R%A5J%95*U%AAT%A9R%A5J%95*U%AAT%A9R%A5J%95*U%AAT%A9R%A5J%95*U%AAT%A9R%A5*%AAj%FD%C6%D4%5Eo%90%B5Z%ADV%AB%D5j%B5Z%ADV%AB%D5j%B5Z%ADV%AB%D5j%B5Z%ADV%AB%D5j%B5Z%ADV%AB%D5j%B5Z%ADV%AB%D5j%B5Z%ADV%AB%D5j%B5%86%AF%1B%9F%98%DA%EBm%BBV%AB%D5j%B5Z%ADV%AB%D5j%B5Z%ADV%AB%D5j%B5Z%ADV%AB%D5j%B5Z%ADV%AB%D5j%B5Z%ADV%AB%D5j%B5Z%ADV%AB%D5j%B5Z%AD%D6%E4%F58%01%00%00%00%00%00%00%00%00%00%00%00%00%00%40%85%7F%02%0C%008%C2%D0H%16j%8FX%00%00%00%00IEND%AEB%60%82") repeat-x !important;
    border-top: 1px solid #BBBBBB !important;
    border-right: 1px dashed #BBBBBB !important;
    border-bottom: 1px solid #000000 !important;
}

.firebugRulerV {
    top: 0 !important;
    left: -15px !important;
    width: 14px !important;
    height: 100% !important;
    background: url("data:image/png,%89PNG%0D%0A%1A%0A%00%00%00%0DIHDR%00%00%00%0E%00%00%13%88%08%02%00%00%00%0E%F5%CB%10%00%00%00%04gAMA%00%00%D6%D8%D4OX2%00%00%00%19tEXtSoftware%00Adobe%20ImageReadyq%C9e%3C%00%00%06~IDATx%DA%EC%DD%D1v%A20%14%40Qt%F1%FF%FF%E4%97%D9%07%3BT%19%92%DC%40(%90%EEy%9A5%CB%B6%E8%F6%9Ac%A4%CC0%84%FF%DC%9E%CF%E7%E3%F1%88%DE4%F8%5D%C7%9F%2F%BA%DD%5E%7FI%7D%F18%DDn%BA%C5%FB%DF%97%BFk%F2%10%FF%FD%B4%F2M%A7%FB%FD%FD%B3%22%07p%8F%3F%AE%E3%F4S%8A%8F%40%EEq%9D%BE8D%F0%0EY%A1Uq%B7%EA%1F%81%88V%E8X%3F%B4%CEy%B7h%D1%A2E%EBohU%FC%D9%AF2fO%8BBeD%BE%F7X%0C%97%A4%D6b7%2Ck%A5%12%E3%9B%60v%B7r%C7%1AI%8C%BD%2B%23r%00c0%B2v%9B%AD%CA%26%0C%1Ek%05A%FD%93%D0%2B%A1u%8B%16-%95q%5Ce%DCSO%8E%E4M%23%8B%F7%C2%FE%40%BB%BD%8C%FC%8A%B5V%EBu%40%F9%3B%A72%FA%AE%8C%D4%01%CC%B5%DA%13%9CB%AB%E2I%18%24%B0n%A9%0CZ*Ce%9C%A22%8E%D8NJ%1E%EB%FF%8F%AE%CAP%19*%C3%BAEKe%AC%D1%AAX%8C*%DEH%8F%C5W%A1e%AD%D4%B7%5C%5B%19%C5%DB%0D%EF%9F%19%1D%7B%5E%86%BD%0C%95%A12%AC%5B*%83%96%CAP%19%F62T%86%CAP%19*%83%96%CA%B8Xe%BC%FE)T%19%A1%17xg%7F%DA%CBP%19*%C3%BA%A52T%86%CAP%19%F62T%86%CA%B0n%A9%0CZ%1DV%C6%3D%F3%FCH%DE%B4%B8~%7F%5CZc%F1%D6%1F%AF%84%F9%0F6%E6%EBVt9%0E~%BEr%AF%23%B0%97%A12T%86%CAP%19%B4T%86%CA%B8Re%D8%CBP%19*%C3%BA%A52huX%19%AE%CA%E5%BC%0C%7B%19*CeX%B7h%A9%0C%95%E1%BC%0C%7B%19*CeX%B7T%06%AD%CB%5E%95%2B%BF.%8F%C5%97%D5%E4%7B%EE%82%D6%FB%CF-%9C%FD%B9%CF%3By%7B%19%F62T%86%CA%B0n%D1R%19*%A3%D3%CA%B0%97%A12T%86uKe%D0%EA%B02*%3F1%99%5DB%2B%A4%B5%F8%3A%7C%BA%2B%8Co%7D%5C%EDe%A8%0C%95a%DDR%19%B4T%C66%82fA%B2%ED%DA%9FC%FC%17GZ%06%C9%E1%B3%E5%2C%1A%9FoiB%EB%96%CA%A0%D5qe4%7B%7D%FD%85%F7%5B%ED_%E0s%07%F0k%951%ECr%0D%B5C%D7-g%D1%A8%0C%EB%96%CA%A0%A52T%C6)*%C3%5E%86%CAP%19%D6-%95A%EB*%95q%F8%BB%E3%F9%AB%F6%E21%ACZ%B7%22%B7%9B%3F%02%85%CB%A2%5B%B7%BA%5E%B7%9C%97%E1%BC%0C%EB%16-%95%A12z%AC%0C%BFc%A22T%86uKe%D0%EA%B02V%DD%AD%8A%2B%8CWhe%5E%AF%CF%F5%3B%26%CE%CBh%5C%19%CE%CB%B0%F3%A4%095%A1%CAP%19*Ce%A8%0C%3BO*Ce%A8%0C%95%A12%3A%AD%8C%0A%82%7B%F0v%1F%2FD%A9%5B%9F%EE%EA%26%AF%03%CA%DF9%7B%19*Ce%A8%0C%95%A12T%86%CA%B8Ze%D8%CBP%19*Ce%A8%0C%95%D1ae%EC%F7%89I%E1%B4%D7M%D7P%8BjU%5C%BB%3E%F2%20%D8%CBP%19*Ce%A8%0C%95%A12T%C6%D5*%C3%5E%86%CAP%19*Ce%B4O%07%7B%F0W%7Bw%1C%7C%1A%8C%B3%3B%D1%EE%AA%5C%D6-%EBV%83%80%5E%D0%CA%10%5CU%2BD%E07YU%86%CAP%19*%E3%9A%95%91%D9%A0%C8%AD%5B%EDv%9E%82%FFKOee%E4%8FUe%A8%0C%95%A12T%C6%1F%A9%8C%C8%3D%5B%A5%15%FD%14%22r%E7B%9F%17l%F8%BF%ED%EAf%2B%7F%CF%ECe%D8%CBP%19*Ce%A8%0C%95%E1%93~%7B%19%F62T%86%CAP%19*Ce%A8%0C%E7%13%DA%CBP%19*Ce%A8%0CZf%8B%16-Z%B4h%D1R%19f%8B%16-Z%B4h%D1R%19%B4%CC%16-Z%B4h%D1R%19%B4%CC%16-Z%B4h%D1%A2%A52%CC%16-Z%B4h%D1%A2%A52h%99-Z%B4h%D1%A2%A52h%99-Z%B4h%D1%A2EKe%98-Z%B4h%D1%A2EKe%D02%5B%B4h%D1%A2EKe%D02%5B%B4h%D1%A2E%8B%96%CA0%5B%B4h%D1%A2E%8B%96%CA%A0e%B6h%D1%A2E%8B%96%CA%A0e%B6h%D1%A2E%8B%16-%95a%B6h%D1%A2E%8B%16-%95A%CBl%D1%A2E%8B%16-%95A%CBl%D1%A2E%8B%16-Z*%C3l%D1%A2E%8B%16-Z*%83%96%D9%A2E%8B%16-Z*%83%96%D9%A2E%8B%16-Z%B4T%86%D9%A2E%8B%16-Z%B4T%06-%B3E%8B%16-Z%B4T%06-%B3E%8B%16-Z%B4h%A9%0C%B3E%8B%16-Z%B4h%A9%0CZf%8B%16-Z%B4h%A9%0CZf%8B%16-Z%B4h%D1R%19f%8B%16-Z%B4h%D1R%19%B4%CC%16-Z%B4h%D1R%19%B4%CC%16-Z%B4h%D1%A2%A52%CC%16-Z%B4h%D1%A2%A52h%99-Z%B4h%D1%A2%A52h%99-Z%B4h%D1%A2EKe%98-Z%B4h%D1%A2EKe%D02%5B%B4h%D1%A2EKe%D02%5B%B4h%D1%A2E%8B%96%CA0%5B%B4h%D1%A2E%8B%96%CA%A0e%B6h%D1%A2E%8B%96%CA%A0e%B6h%D1%A2E%8B%16-%95a%B6h%D1%A2E%8B%16-%95A%CBl%D1%A2E%8B%16-%95A%CBl%D1%A2E%8B%16-Z*%C3l%D1%A2E%8B%16-Z*%83%96%D9%A2E%8B%16-Z*%83%96%D9%A2E%8B%16-Z%B4T%86%D9%A2E%8B%16-Z%B4T%06-%B3E%8B%16-Z%B4T%06-%B3E%8B%16-Z%B4h%A9%0C%B3E%8B%16-Z%B4h%A9%0CZf%8B%16-Z%B4h%A9%0CZf%8B%16-Z%B4h%D1R%19f%8B%16-Z%B4h%D1R%19%B4%CC%16-Z%B4h%D1R%19%B4%CC%16-Z%B4h%D1%A2%A52%CC%16-Z%B4h%D1%A2%A52h%99-Z%B4h%D1%A2%A52h%99-Z%B4h%D1%A2EKe%98-Z%B4h%D1%A2EKe%D02%5B%B4h%D1%A2EKe%D02%5B%B4h%D1%A2E%8B%96%CA0%5B%B4h%D1%A2E%8B%96%CA%A0e%B6h%D1%A2E%8B%96%CA%A0e%B6h%D1%A2E%8B%16-%95a%B6h%D1%A2E%8B%16-%95A%CBl%D1%A2E%8B%16-%95A%CBl%D1%A2E%8B%16-Z*%C3l%D1%A2E%8B%16-Z*%83%96%D9%A2E%8B%16-Z*%83%96%D9%A2E%8B%16-Z%B4T%86%D9%A2E%8B%16-Z%B4T%06-%B3E%8B%16-Z%B4%AE%A4%F5%25%C0%00%DE%BF%5C'%0F%DA%B8q%00%00%00%00IEND%AEB%60%82") repeat-y !important;
    border-left: 1px solid #BBBBBB !important;
    border-right: 1px solid #000000 !important;
    border-bottom: 1px dashed #BBBBBB !important;
}

.overflowRulerX &gt; .firebugRulerV {
    left: 0 !important;
}

.overflowRulerY &gt; .firebugRulerH {
    top: 0 !important;
}

/* * * * * * * * * * * * * * * * * * * * * * * * * * * * * * * * * * * * * * * * * * * * * * * * */
.fbProxyElement {
    position: fixed !important;
    pointer-events: auto !important;
}
</style></svg>